<svg width="150" height="112" viewBox="0 0 150 112" fill="none" xmlns="http://www.w3.org/2000/svg">
<rect width="150" height="112" fill="white"/>
<g clip-path="url(#clip0)">
<path fill-rule="evenodd" clip-rule="evenodd" d="M6 52.211C6 51.7467 6.13009 51.4035 6.39116 51.1795C6.65134 50.9573 7.01577 50.8453 7.48534 50.8453C7.78027 50.8453 8.05381 50.885 8.30597 50.9654C8.55724 51.0467 8.72654 51.1126 8.81386 51.1668V69.2404H6V52.2101V52.211ZM17.1521 51.4613C17.8865 52.4719 18.5989 53.4989 19.2888 54.5413C19.7744 55.2729 20.3045 56.0795 20.8783 56.9637C21.4513 57.8471 22.0331 58.7485 22.6248 59.668C23.2035 60.5704 23.7767 61.4763 24.3444 62.3858C24.8995 63.2782 25.403 64.0992 25.8547 64.8489V52.211C25.8547 51.7467 25.9848 51.4035 26.2459 51.1804C26.5061 50.9573 26.8616 50.8453 27.3133 50.8453C27.6261 50.8453 27.9041 50.885 28.1473 50.9654C28.3906 51.0467 28.5554 51.1135 28.6427 51.1668V69.2404H25.6988C25.2126 68.4798 24.7306 67.7166 24.2527 66.9507C23.7225 66.1035 23.171 65.2192 22.598 64.2997C22.0199 63.3735 21.4377 62.4498 20.8516 61.5286C20.2877 60.6418 19.7189 59.7581 19.1453 58.8777C18.6391 58.1013 18.1265 57.3294 17.6074 56.5618C17.2033 55.9626 16.791 55.3692 16.3706 54.7815V69.2404H13.6085V52.3717C13.6085 51.9969 13.7555 51.6492 14.0513 51.3276C14.3462 51.0061 14.7891 50.8453 15.3798 50.8453C15.8316 50.8453 16.2014 50.9212 16.4874 51.0729C16.7743 51.2246 16.9953 51.3547 17.1521 51.4613V51.4613ZM36.981 51.4613C37.1538 51.6934 37.4318 52.0818 37.8141 52.6265C38.1963 53.1702 38.6303 53.8088 39.1168 54.5413C39.6033 55.2729 40.1325 56.0795 40.7063 56.9637C41.2793 57.8471 41.862 58.7485 42.4528 59.668C43.5536 61.3795 44.6307 63.1067 45.6836 64.8489V52.211C45.6836 51.7467 45.8137 51.4035 46.0739 51.1804C46.3349 50.9573 46.6905 50.8453 47.1422 50.8453C47.455 50.8453 47.733 50.885 47.9762 50.9654C48.2195 51.0467 48.3843 51.1135 48.4716 51.1668V69.2404H45.5259C45.0398 68.4798 44.5577 67.7166 44.0798 66.9507C43.5496 66.1035 42.999 65.2192 42.4251 64.2997C41.8473 63.3735 41.2654 62.4498 40.6796 61.5286C40.1154 60.6418 39.5463 59.7581 38.9724 58.8777C38.4665 58.1014 37.9541 57.3294 37.4354 56.5618C37.0313 55.9624 36.6187 55.3689 36.1977 54.7815V69.2404H33.4356V52.3717C33.4356 51.9969 33.5835 51.6492 33.8784 51.3276C34.1742 51.0061 34.6171 50.8453 35.2078 50.8453C35.6596 50.8453 36.0285 50.9212 36.3154 51.0729C36.6023 51.2246 36.8233 51.3547 36.9792 51.4613H36.981ZM74.8665 52.211C74.8665 51.7467 74.9966 51.4035 75.2567 51.1795C75.5178 50.9573 75.8823 50.8453 76.3509 50.8453C76.6468 50.8453 76.9203 50.885 77.1725 50.9654C77.4237 51.0467 77.593 51.1126 77.6803 51.1668V66.7231H86.4088V69.2395H74.8674V52.211H74.8665ZM97.1181 53.2289C96.8792 53.747 96.649 54.2691 96.4275 54.7951C95.7804 56.3183 95.1507 57.8491 94.5385 59.3871C94.191 60.2614 93.8525 61.1366 93.5228 62.011H100.635C100.312 61.1275 99.978 60.2482 99.6325 59.3735L98.6159 56.803C98.2942 55.991 98.0037 55.2675 97.7427 54.6343C97.5526 54.1578 97.3442 53.6889 97.1181 53.2289V53.2289ZM88.0243 69.2404C88.5854 67.6795 89.1672 66.1264 89.7698 64.5815C90.3754 63.0259 90.9879 61.4729 91.6071 59.9227C92.2058 58.4234 92.7743 57.0306 93.3134 55.7453C93.7578 54.6761 94.2182 53.6137 94.6945 52.5587C95.042 51.7738 95.4019 51.2337 95.7753 50.9392C96.1486 50.6448 96.6227 50.4966 97.1956 50.4966C97.7338 50.4966 98.1427 50.587 98.4207 50.7649C98.6979 50.9437 98.9064 51.1045 99.0454 51.2472C99.359 51.8009 99.7314 52.5641 100.166 53.5369C100.64 54.6019 101.1 55.6729 101.547 56.7497C102.051 57.9624 102.542 59.1806 103.019 60.4041C104.161 63.3364 105.268 66.282 106.342 69.2404H103.319C103.201 68.9631 103.092 68.6817 102.993 68.3968L102.563 67.1919C102.407 66.7547 102.241 66.2995 102.069 65.8262C101.895 65.3538 101.729 64.9031 101.573 64.4741H92.5836C92.2198 65.3959 91.8722 66.3243 91.5411 67.2587C91.2462 68.0987 91.0119 68.7581 90.8381 69.2404H88.0243V69.2404ZM112.725 51.4613C112.899 51.6934 113.177 52.0818 113.559 52.6265C113.942 53.1702 114.375 53.8088 114.862 54.5413C115.348 55.2729 115.879 56.0795 116.452 56.9637C117.025 57.8471 117.606 58.7485 118.197 59.668C119.297 61.38 120.374 63.1071 121.428 64.8489V52.211C121.428 51.7467 121.559 51.4035 121.819 51.1804C122.08 50.9573 122.436 50.8453 122.887 50.8453C123.2 50.8453 123.478 50.885 123.721 50.9654C123.965 51.0467 124.13 51.1135 124.216 51.1668V69.2404H121.272C120.786 68.4799 120.304 67.7166 119.826 66.9507C119.274 66.0675 118.722 65.1838 118.171 64.2997C117.593 63.3734 117.012 62.4497 116.426 61.5286C115.861 60.6418 115.292 59.7582 114.718 58.8777C114.213 58.1012 113.7 57.3292 113.181 56.5618C112.777 55.9624 112.365 55.369 111.944 54.7815V69.2404H109.182V52.3717C109.182 51.9969 109.329 51.6492 109.624 51.3276C109.919 51.0061 110.362 50.8453 110.954 50.8453C111.406 50.8453 111.775 50.9212 112.061 51.0729C112.347 51.2246 112.569 51.3547 112.725 51.4613V51.4613ZM141.882 60.0293C141.882 59.0475 141.734 58.1415 141.439 57.3115C141.161 56.5101 140.722 55.7759 140.149 55.1555C139.585 54.5494 138.886 54.0806 138.052 53.7501C137.219 53.4204 136.254 53.2551 135.16 53.2551H131.824V66.8306H135.16C136.254 66.8306 137.219 66.6608 138.052 66.3212C138.886 65.9825 139.585 65.5092 140.149 64.9031C140.722 64.2828 141.161 63.5486 141.439 62.7471C141.734 61.9161 141.882 61.0111 141.882 60.0293V60.0293ZM144.8 60.0293C144.8 61.4212 144.583 62.6848 144.149 63.8174C143.738 64.915 143.093 65.9071 142.26 66.7231C141.435 67.527 140.436 68.1466 139.264 68.5837C138.091 69.0218 136.775 69.2395 135.316 69.2395H129.011V52.4521C129.011 51.9346 129.15 51.5372 129.428 51.2599C129.705 50.9835 130.122 50.8453 130.679 50.8453H135.316C136.775 50.8453 138.091 51.0648 139.264 51.501C140.436 51.9391 141.435 52.5542 142.26 53.349C143.084 54.1439 143.714 55.1076 144.149 56.2403C144.583 57.3738 144.8 58.6374 144.8 60.0293Z" fill="#141414"/>
<path fill-rule="evenodd" clip-rule="evenodd" d="M61.494 66.8432C58.043 66.8432 55.2354 63.9583 55.2354 60.4123C55.2354 56.8653 58.0421 53.9813 61.494 53.9813C64.9449 53.9813 67.7525 56.8653 67.7525 60.4123C67.7525 63.9583 64.9458 66.8432 61.494 66.8432V66.8432ZM68.6035 54.7201C68.558 54.6018 68.5126 54.4826 68.4636 54.3661C68.0769 53.4348 67.5993 52.5388 67.1449 51.6347C66.9929 51.3336 66.8488 51.0286 66.7127 50.7197C66.5684 50.3937 66.4784 50.0396 66.4017 49.6855C66.3118 49.2583 66.2886 48.8338 66.3902 48.4057C66.4409 48.1835 66.5318 47.973 66.6646 47.7391C66.326 47.8836 66.0908 48.0823 65.9072 48.3325C65.4813 48.9151 65.32 49.5826 65.2095 50.2627C65.1846 50.4262 65.1677 50.5897 65.1454 50.7532C64.9943 50.2711 64.8036 49.8028 64.5751 49.3532C64.2187 48.6423 63.775 47.9757 63.3687 47.2902C62.8697 46.4511 62.4082 45.5994 62.2309 44.6437C62.1296 44.073 62.146 43.4871 62.279 42.9231C62.3494 42.607 62.4768 42.3053 62.6006 42C62.3093 42.1781 62.0317 42.3783 61.7702 42.5988C60.8435 43.3883 60.1913 44.3222 59.9605 45.4874C59.8188 46.2063 59.875 46.9145 60.0701 47.6135C60.1049 47.7418 60.1503 47.8701 60.1414 48.0028C60.1156 48.4274 59.7761 48.6785 59.4018 48.5448C59.2147 48.477 59.1016 48.3325 59.0205 48.1717C58.8813 47.8998 58.8074 47.5984 58.8049 47.292C58.7968 46.8901 58.8049 46.4863 58.8022 46.0835C58.8022 46.0455 58.8334 45.9941 58.763 45.9643C58.7042 46.032 58.6418 46.097 58.5874 46.1684C58.1811 46.6905 57.9611 47.2794 57.8283 47.908C57.6412 48.776 57.5521 49.6557 57.5253 50.5355C57.5004 51.4523 57.0085 52.1324 56.3822 52.7836C56.3109 52.8342 56.2396 52.8857 56.1692 52.939C56.1606 52.6685 56.1897 52.3982 56.2556 52.136C56.3563 51.6754 56.6138 51.2698 56.817 50.8453C56.8963 50.6764 56.9898 50.5111 57.0433 50.2763C56.8793 50.4018 56.7608 50.4885 56.645 50.5788C55.6162 51.3913 54.831 52.4781 54.3773 53.7175C54.1867 54.2358 54.0488 54.7724 53.9657 55.319C52.9913 56.8339 52.4736 58.6038 52.4759 60.4123C52.4759 65.5218 56.5212 69.6794 61.494 69.6794C66.4668 69.6794 70.512 65.5218 70.512 60.4123C70.5148 58.3531 69.8436 56.3511 68.6035 54.7201Z" fill="#0D83F9"/>
</g>
<defs>
<clipPath id="clip0">
<rect width="139" height="28" fill="white" transform="translate(6 42)"/>
</clipPath>
</defs>
</svg>
