<svg width="150" height="112" viewBox="0 0 150 112" fill="none" xmlns="http://www.w3.org/2000/svg">
<g clip-path="url(#clip0)">
<rect width="150" height="112" fill="white"/>
<path d="M154.97 0H-5V112H154.97V0Z" fill="#D2DD26"/>
<path d="M21.1212 83.1159C20.8488 82.1307 20.3041 80.2339 17.4581 80.2339C15.7955 80.2339 13.2876 81.394 13.2876 85.9703C13.2876 88.8707 14.5369 91.5775 17.4581 91.5775C19.3741 91.5775 20.7174 90.4357 21.1212 88.4563H24.5685C23.8827 91.9827 21.5345 94.4411 17.3829 94.4411C12.987 94.4411 9.84045 91.5132 9.84045 85.9333C9.84045 80.2614 13.1655 77.3797 17.4299 77.3797C22.3798 77.3797 24.3805 80.7312 24.5685 83.1159H21.1212Z" fill="#656867"/>
<path d="M28.7861 86.5502L32.8438 81.9927H36.7888L32.4776 86.6423L36.8923 94.0175H33.0412L30.1295 88.8523L28.7861 90.2149V94.0175H25.5737V81.9927H28.7861V86.5502Z" fill="#656867"/>
<path d="M48.6523 87.9872C48.6523 92.3238 45.6936 94.3311 42.4062 94.3311C39.128 94.3311 36.141 92.3422 36.141 88.0056C36.141 83.6781 39.128 81.6892 42.4062 81.6892C45.6936 81.6892 48.6523 83.6503 48.6523 87.9872ZM39.4473 87.9872C39.4473 89.5339 39.9264 91.6702 42.4062 91.6702C44.8857 91.6702 45.3461 89.5523 45.3461 88.0056C45.3461 86.4678 44.8857 84.3409 42.4062 84.3409C39.9264 84.3409 39.4473 86.4403 39.4473 87.9872Z" fill="#656867"/>
<path d="M60.7404 81.9927V94.0083H57.528V84.5246H54.0808V88.2354C54.0808 92.8299 52.6719 94.2847 50.4082 94.2847C49.8446 94.2847 48.9243 94.1924 48.4547 94.0177V91.6698C48.5202 91.7157 48.9335 91.7618 49.4126 91.7618C50.3706 91.7618 50.8686 91.2921 50.8686 87.6277V82.0019H60.7404V81.9927Z" fill="#656867"/>
<path d="M65.5967 86.5502L69.6544 81.9927H73.5902L69.2882 86.6423L73.7123 94.0175H69.8611L66.9401 88.8523L65.5967 90.2149V94.0175H62.3846V81.9927H65.5967V86.5502Z" fill="#656867"/>
<path d="M85.4723 87.9872C85.4723 92.3238 82.5135 94.3311 79.226 94.3311C75.9481 94.3311 72.961 92.3422 72.961 88.0056C72.961 83.6781 75.9481 81.6892 79.226 81.6892C82.5042 81.6892 85.4723 83.6503 85.4723 87.9872ZM76.2674 87.9872C76.2674 89.5339 76.7463 91.6702 79.226 91.6702C81.7153 91.6702 82.166 89.5523 82.166 88.0056C82.166 86.4678 81.7153 84.3409 79.226 84.3409C76.7463 84.3409 76.2674 86.4403 76.2674 87.9872Z" fill="#656867"/>
<path d="M86.5141 81.9927H92.0465C94.7798 81.9927 96.7897 83.0883 96.7897 85.0956C96.7897 86.4768 95.7849 87.3699 94.5074 87.6828C95.7567 87.9684 97.1562 88.7508 97.1562 90.7213C97.1562 92.9495 95.4466 94.0083 92.6665 94.0083H86.5141V81.9927ZM89.7265 86.8634H91.8209C92.8918 86.8634 93.6431 86.4398 93.6431 85.5006C93.6431 84.5154 92.92 84.1564 91.8491 84.1564H89.7265V86.8634ZM89.7265 91.8447H92.0934C93.277 91.8447 94.0096 91.4856 94.0096 90.2978C94.0096 89.2481 93.2393 88.7602 92.0465 88.7602H89.7265V91.8447Z" fill="#656867"/>
<path d="M110.024 87.9872C110.024 92.3238 107.056 94.3311 103.778 94.3311C100.5 94.3311 97.5039 92.3422 97.5039 88.0056C97.5039 83.6781 100.491 81.6892 103.778 81.6892C107.056 81.6892 110.024 83.6503 110.024 87.9872ZM100.819 87.9872C100.819 89.5339 101.299 91.6702 103.788 91.6702C106.267 91.6702 106.728 89.5523 106.728 88.0056C106.728 86.4678 106.267 84.3409 103.788 84.3409C101.299 84.3409 100.819 86.4403 100.819 87.9872Z" fill="#656867"/>
<path d="M33.2193 74.6639C35.9528 74.6639 42.7061 74.1942 47.7407 70.5849V73.3286H57.9226V61.2945L62.1775 56.9762L71.4201 73.3195H83.6213L69.6166 49.9601L83.2551 35.2374H70.7625L57.9226 49.6839V21.9417H47.7407V26.3245C44.6318 23.0651 39.6064 20.5882 31.773 20.5882C14.8094 20.5882 11.6346 30.7073 11.6346 36.3698C11.6346 44.1594 15.899 48.4776 23.3288 50.2454L33.8674 52.7961C39.4279 54.1403 43.4011 55.1347 43.4011 59.1676C43.4011 64.5447 37.6247 65.8155 32.4303 65.8155C22.8966 65.8155 21.3092 60.3646 21.3092 57.4643H10.8456C10.8456 63.8357 14.1613 74.6639 33.2193 74.6639ZM40.1513 44.0214L27.377 40.9736C25.2073 40.4763 21.8165 39.6294 21.8165 35.5965C21.8165 31.0018 26.7947 29.4365 30.9838 29.4365C40.5083 29.4365 41.3817 34.8875 41.6634 37.2169H47.7407V46.7927C45.5147 45.5314 42.8752 44.6934 40.1513 44.0214Z" fill="#656867"/>
</g>
<defs>
<clipPath id="clip0">
<rect width="150" height="112" fill="white"/>
</clipPath>
</defs>
</svg>
