<svg width="150" height="112" viewBox="0 0 150 112" fill="none" xmlns="http://www.w3.org/2000/svg">
<g clip-path="url(#clip0)">
<rect width="150" height="112" fill="white"/>
<g clip-path="url(#clip1)">
<path d="M52.8587 54.1324L50.7751 54.7206C50.7017 54.2353 50.3055 53.4118 49.0436 53.4118C48.1779 53.4118 47.6203 53.9559 47.6203 54.5294C47.6203 55.0294 47.9284 55.3971 48.6474 55.5294L50.0414 55.7941C52.0223 56.1618 53.0495 57.4412 53.0495 58.9265C53.0495 60.5588 51.6848 62.2206 49.205 62.2206C46.329 62.2206 45.0965 60.353 44.9498 58.8824L47.0774 58.3677C47.1654 59.3235 47.8111 60.1618 49.2344 60.1618C50.1441 60.1618 50.7017 59.7206 50.7017 59.0735C50.7017 58.5441 50.2762 58.1618 49.5865 58.0294L48.1632 57.7647C46.4024 57.4265 45.3313 56.25 45.3313 54.7059C45.3313 52.7353 47.0627 51.353 49.0583 51.353C51.6555 51.353 52.6386 52.9118 52.8587 54.1324V54.1324ZM57.0149 52.5588V54.6912H58.4382V56.6471H57.0149V59.3824C57.0149 59.9853 57.3377 60.1471 57.822 60.1471C58.0567 60.1471 58.2768 60.103 58.4089 60.0735V61.9265C58.3209 61.9706 57.954 62.1324 57.2497 62.1324C55.7383 62.1324 54.8139 61.2353 54.8139 59.7794V56.6471H53.5227V54.6912H53.8895C54.6525 54.6912 55.0193 54.1765 55.0193 53.5V52.5588H57.0149ZM59.3084 59.9853C59.3084 58.6912 60.2621 57.9559 61.4654 57.7794L63.1821 57.5147C63.5783 57.4559 63.7104 57.2647 63.7104 57.0147C63.7104 56.5882 63.3435 56.2206 62.6392 56.2206C61.8615 56.2206 61.436 56.75 61.392 57.2941L59.4551 56.8971C59.5432 55.853 60.5116 54.4706 62.6539 54.4706C65.0163 54.4706 65.882 55.7941 65.882 57.2941V60.8677C65.882 61.4412 65.9554 61.9265 65.9701 62H63.9598C63.9452 61.9412 63.8865 61.6765 63.8865 61.1765C63.505 61.7941 62.8006 62.2059 61.8322 62.2059C60.2328 62.2059 59.3084 61.1471 59.3084 59.9853V59.9853ZM62.3751 60.5882C63.0354 60.5882 63.7104 60.2647 63.7104 59.1324V58.8088L62.3311 59.0294C61.8615 59.103 61.5094 59.3235 61.5094 59.8382C61.5094 60.2206 61.7588 60.5882 62.3751 60.5882ZM72.0632 54.6912V56.8971C71.8138 56.8382 71.579 56.8235 71.3589 56.8235C70.4638 56.8235 69.6568 57.353 69.6568 58.8088V62H67.4264V54.6912H69.5834V55.6765C69.9649 54.853 70.8893 54.6177 71.4763 54.6177C71.6964 54.6177 71.9165 54.6471 72.0632 54.6912V54.6912ZM75.9854 52.5588V54.6912H77.4087V56.6471H75.9854V59.3824C75.9854 59.9853 76.3082 60.1471 76.7924 60.1471C77.0272 60.1471 77.2473 60.103 77.3794 60.0735V61.9265C77.2913 61.9706 76.9245 62.1324 76.2202 62.1324C74.7088 62.1324 73.7844 61.2353 73.7844 59.7794V56.6471H72.4931V54.6912H72.86C73.623 54.6912 73.9898 54.1765 73.9898 53.5V52.5588H75.9854ZM83.4285 62C83.3991 61.8677 83.3698 61.4559 83.3698 61.2647C82.9882 61.8971 82.1519 62.1618 81.4182 62.1618C79.6427 62.1618 78.6449 60.8677 78.6449 59.3088V54.6912H80.8753V58.8382C80.8753 59.5441 81.2568 60.103 82.0492 60.103C82.7975 60.103 83.267 59.5882 83.267 58.853V54.6912H85.4974V60.6912C85.4974 61.353 85.5561 61.8824 85.5708 62H83.4285ZM89.3609 64.7941H87.1305V54.6912H89.2875V55.4412C89.5957 54.9706 90.388 54.5147 91.4298 54.5147C93.5428 54.5147 94.8194 56.1324 94.8194 58.3235C94.8194 60.5588 93.3814 62.1618 91.3418 62.1618C90.4027 62.1618 89.6984 61.8382 89.3609 61.4265V64.7941V64.7941ZM92.6331 58.3382C92.6331 57.1177 91.8554 56.5294 90.975 56.5294C90.1092 56.5294 89.3315 57.1177 89.3315 58.3382C89.3315 59.5441 90.1092 60.1618 90.975 60.1618C91.8554 60.1618 92.6331 59.5588 92.6331 58.3382ZM106.078 62V53.8824L102.527 62H101.206L97.6844 53.8824V62H96.261V51.5735H98.2126L101.881 60.0588L105.579 51.5735H107.501V62H106.078ZM109.149 60.103C109.149 58.8382 110.073 58.1324 111.291 57.9559L113.199 57.6765C113.624 57.6177 113.741 57.3971 113.741 57.1471C113.741 56.4559 113.287 55.8824 112.215 55.8824C111.247 55.8824 110.704 56.4853 110.616 57.3088L109.295 57C109.442 55.6471 110.66 54.7059 112.186 54.7059C114.299 54.7059 115.121 55.9118 115.121 57.2941V60.8382C115.121 61.4559 115.179 61.8235 115.209 62H113.859C113.829 61.8235 113.785 61.5588 113.785 61.0441C113.477 61.5441 112.773 62.2206 111.511 62.2206C110.073 62.2206 109.149 61.2206 109.149 60.103V60.103ZM111.702 61.0588C112.832 61.0588 113.741 60.5147 113.741 58.9706V58.6471L111.584 58.9706C110.998 59.0588 110.557 59.3971 110.557 60.0294C110.557 60.5588 110.998 61.0588 111.702 61.0588ZM120.847 56.3235C120.642 56.2941 120.436 56.2794 120.245 56.2794C119.086 56.2794 118.309 56.8971 118.309 58.4559V62H116.929V54.9265H118.279V56.1618C118.793 55.0735 119.673 54.8088 120.392 54.8088C120.583 54.8088 120.774 54.8382 120.847 54.853V56.3235V56.3235ZM125.297 57.9118L128.364 62H126.633L124.329 58.8824L123.346 59.8677V62H121.981V51.353H123.346V58.0588L126.398 54.9265H128.305L125.297 57.9118ZM135.132 59.9853C134.736 61.2353 133.606 62.2206 131.963 62.2206C130.07 62.2206 128.412 60.8382 128.412 58.4412C128.412 56.2206 130.011 54.7059 131.787 54.7059C133.958 54.7059 135.176 56.2059 135.176 58.4118C135.176 58.5882 135.162 58.7647 135.147 58.853H129.835C129.865 60.1177 130.774 61 131.963 61C133.107 61 133.68 60.3677 133.944 59.5735L135.132 59.9853V59.9853ZM133.738 57.7353C133.709 56.7206 133.049 55.9265 131.801 55.9265C130.642 55.9265 129.938 56.8235 129.879 57.7353H133.738ZM138.452 54.9265H139.978V56.1765H138.452V59.853C138.452 60.5 138.716 60.8235 139.435 60.8235C139.611 60.8235 139.861 60.7941 139.978 60.7647V61.9412C139.861 61.9853 139.509 62.0735 139.039 62.0735C137.836 62.0735 137.073 61.3382 137.073 60.0588V56.1765H135.723V54.9265H136.104C136.867 54.9265 137.19 54.4559 137.19 53.8382V52.6912H138.452V54.9265V54.9265Z" fill="#343B4A"/>
<path d="M12.548 44.0831C16.2068 44.8677 19.4269 45.2581 22.206 45.2581C24.9852 45.2581 28.2052 44.8669 31.864 44.0831C32.2918 43.9915 32.7347 43.9968 33.1602 44.0989C33.5856 44.2009 33.9829 44.3969 34.3231 44.6726C34.6632 44.9484 34.9375 45.2969 35.1259 45.6925C35.3143 46.0882 35.4121 46.5211 35.4121 46.9596V65.7574C35.4121 66.2043 35.3105 66.6453 35.115 67.0469C34.9195 67.4486 34.6352 67.8003 34.2838 68.0754C33.9324 68.3505 33.523 68.5417 33.0868 68.6345C32.6506 68.7273 32.1991 68.7193 31.7665 68.611C28.8044 67.8631 25.7618 67.4828 22.7071 67.4787C19.5267 67.4787 16.1591 67.8971 12.606 68.7338C12.1753 68.8353 11.7273 68.8378 11.2955 68.7412C10.8638 68.6447 10.4593 68.4515 10.1125 68.1762C9.76575 67.9009 9.48555 67.5506 9.29289 67.1515C9.10023 66.7523 9.0001 66.3147 9 65.8713V46.9596C8.99996 46.5211 9.09773 46.0882 9.28615 45.6925C9.47457 45.2969 9.74888 44.9484 10.089 44.6726C10.4291 44.3969 10.8264 44.2009 11.2519 44.0989C11.6774 43.9968 12.1202 43.9915 12.548 44.0831V44.0831Z" fill="#1B6FFF"/>
<path d="M27.0534 53.3265L24.6147 54.0154C24.5288 53.4471 24.0644 52.4831 22.5875 52.4831C21.5743 52.4831 20.9221 53.1206 20.9221 53.7919C20.9221 54.3772 21.2823 54.8066 22.1239 54.9618L23.7555 55.2721C26.0739 55.7022 27.2771 57.2 27.2771 58.9382C27.2771 60.8493 25.6792 62.7941 22.7768 62.7941C19.41 62.7941 17.9676 60.6081 17.7952 58.8868L20.286 58.2838C20.3887 59.4029 21.1444 60.3846 22.8113 60.3846C23.8759 60.3846 24.5281 59.8676 24.5281 59.1103C24.5281 58.4904 24.0307 58.0434 23.2229 57.8882L21.5575 57.5787C19.4959 57.1824 18.242 55.8059 18.242 53.9978C18.242 51.6919 20.2691 50.0735 22.6051 50.0735C25.6447 50.0735 26.7959 51.8978 27.0534 53.3265V53.3265Z" fill="white"/>
</g>
</g>
<defs>
<clipPath id="clip0">
<rect width="150" height="112" fill="white"/>
</clipPath>
<clipPath id="clip1">
<rect width="146" height="25" fill="white" transform="translate(9 44)"/>
</clipPath>
</defs>
</svg>
