<svg xmlns="http://www.w3.org/2000/svg" xmlns:xlink="http://www.w3.org/1999/xlink" viewBox="0 0 2814.79746 2800.00004">
  <defs>
    <style>
      .cls-1 {
        fill: url(#linear-gradient);
      }

      .cls-2 {
        fill: #bdd0fb;
      }

      .cls-3 {
        fill: #91b3fa;
      }

      .cls-4 {
        fill: #7d97f4;
      }

      .cls-5 {
        fill: url(#linear-gradient-2);
      }

      .cls-6 {
        fill: #3f67f9;
        opacity: 0.5;
      }

      .cls-7, .cls-8 {
        fill: #fff;
      }

      .cls-7 {
        opacity: 0.47;
      }

      .cls-9 {
        fill: url(#linear-gradient-3);
      }

      .cls-10 {
        fill: url(#linear-gradient-4);
      }

      .cls-11 {
        fill: url(#linear-gradient-5);
      }

      .cls-12 {
        fill: url(#linear-gradient-6);
      }

      .cls-13 {
        fill: url(#linear-gradient-7);
      }

      .cls-14 {
        fill: url(#linear-gradient-8);
      }

      .cls-15 {
        fill: url(#linear-gradient-9);
      }

      .cls-16 {
        fill: url(#linear-gradient-10);
      }

      .cls-17 {
        fill: url(#linear-gradient-11);
      }

      .cls-18 {
        fill: url(#linear-gradient-12);
      }

      .cls-19 {
        fill: url(#linear-gradient-13);
      }

      .cls-20 {
        fill: url(#linear-gradient-14);
      }

      .cls-21 {
        fill: url(#linear-gradient-15);
      }

      .cls-22 {
        fill: url(#linear-gradient-16);
      }

      .cls-23 {
        fill: url(#linear-gradient-17);
      }

      .cls-24 {
        fill: url(#linear-gradient-18);
      }

      .cls-25 {
        fill: url(#linear-gradient-19);
      }

      .cls-26 {
        fill: url(#linear-gradient-20);
      }

      .cls-27 {
        fill: url(#linear-gradient-21);
      }

      .cls-28 {
        fill: url(#linear-gradient-22);
      }

      .cls-29 {
        fill: url(#linear-gradient-23);
      }

      .cls-30 {
        fill: url(#linear-gradient-24);
      }

      .cls-31, .cls-32, .cls-36, .cls-37, .cls-38, .cls-39, .cls-40, .cls-41, .cls-42, .cls-43 {
        fill-rule: evenodd;
      }

      .cls-31 {
        fill: url(#linear-gradient-25);
      }

      .cls-32 {
        fill: url(#linear-gradient-26);
      }

      .cls-33 {
        fill: url(#linear-gradient-27);
      }

      .cls-34 {
        fill: url(#linear-gradient-28);
      }

      .cls-35 {
        fill: url(#linear-gradient-29);
      }

      .cls-36 {
        fill: url(#linear-gradient-30);
      }

      .cls-37 {
        fill: url(#linear-gradient-31);
      }

      .cls-38 {
        fill: url(#linear-gradient-32);
      }

      .cls-39 {
        fill: url(#linear-gradient-33);
      }

      .cls-40 {
        fill: url(#linear-gradient-34);
      }

      .cls-41 {
        fill: url(#linear-gradient-35);
      }

      .cls-42 {
        fill: url(#linear-gradient-36);
      }

      .cls-43 {
        fill: url(#linear-gradient-37);
      }
    </style>
    <linearGradient id="linear-gradient" x1="3157.31266" y1="3567.75147" x2="708.797" y2="526.84862" gradientUnits="userSpaceOnUse">
      <stop offset="0" stop-color="#dae3fe"/>
      <stop offset="1" stop-color="#e9effd"/>
    </linearGradient>
    <linearGradient id="linear-gradient-2" x1="1554.40968" y1="-1050.84022" x2="1364.60084" y2="2718.1732" gradientUnits="userSpaceOnUse">
      <stop offset="0" stop-color="#09005d"/>
      <stop offset="1" stop-color="#1a0f91"/>
    </linearGradient>
    <linearGradient id="linear-gradient-3" x1="1365.73576" y1="-748.69824" x2="1040.35337" y2="30.86499" gradientUnits="userSpaceOnUse">
      <stop offset="0" stop-color="#ff928e"/>
      <stop offset="1" stop-color="#fe7062"/>
    </linearGradient>
    <linearGradient id="linear-gradient-4" x1="3066.57429" y1="-1105.44049" x2="2646.28825" y2="-386.88674" xlink:href="#linear-gradient-3"/>
    <linearGradient id="linear-gradient-5" x1="2380.48557" y1="-197.84523" x2="2586.57623" y2="-963.32422" gradientTransform="translate(977.43398 -1418.04941) rotate(45)" xlink:href="#linear-gradient-2"/>
    <linearGradient id="linear-gradient-6" x1="2039.14913" y1="480.23301" x2="2335.86255" y2="480.23301" gradientUnits="userSpaceOnUse">
      <stop offset="0" stop-color="#2b3582"/>
      <stop offset="1" stop-color="#150e42"/>
    </linearGradient>
    <linearGradient id="linear-gradient-7" x1="850.19022" y1="1637.4371" x2="1061.53652" y2="1637.4371" gradientTransform="translate(-767.7686)" gradientUnits="userSpaceOnUse">
      <stop offset="0" stop-color="#febbba"/>
      <stop offset="1" stop-color="#ff928e"/>
    </linearGradient>
    <linearGradient id="linear-gradient-8" x1="1062.69671" y1="2724.76937" x2="1221.17362" y2="2724.76937" gradientTransform="translate(-767.7686)" xlink:href="#linear-gradient-2"/>
    <linearGradient id="linear-gradient-9" x1="1459.43481" y1="2537.81232" x2="882.8918" y2="2990.51547" gradientTransform="translate(-767.7686)" gradientUnits="userSpaceOnUse">
      <stop offset="0" stop-color="#4f52ff"/>
      <stop offset="1" stop-color="#4042e2"/>
    </linearGradient>
    <linearGradient id="linear-gradient-10" x1="1106.76714" y1="2544.35058" x2="1076.49529" y2="2808.54264" xlink:href="#linear-gradient-7"/>
    <linearGradient id="linear-gradient-11" x1="1561.85388" y1="2668.2488" x2="985.31086" y2="3120.95196" xlink:href="#linear-gradient-9"/>
    <linearGradient id="linear-gradient-12" x1="1304.01472" y1="2728.98444" x2="1532.13922" y2="2728.98444" gradientTransform="translate(-767.7686)" xlink:href="#linear-gradient-2"/>
    <linearGradient id="linear-gradient-13" x1="1353.35358" y1="2572.60543" x2="1323.0819" y2="2836.79599" xlink:href="#linear-gradient-7"/>
    <linearGradient id="linear-gradient-14" x1="1713.0348" y1="1364.50603" x2="744.83194" y2="2866.89158" xlink:href="#linear-gradient-9"/>
    <linearGradient id="linear-gradient-15" x1="1225.43786" y1="-807.25773" x2="900.05588" y2="-27.69548" xlink:href="#linear-gradient-3"/>
    <linearGradient id="linear-gradient-16" x1="1173.64368" y1="855.44415" x2="1058.06006" y2="1354.93031" xlink:href="#linear-gradient-7"/>
    <linearGradient id="linear-gradient-17" x1="-199.00054" y1="-344.16314" x2="-404.06126" y2="-72.88456" gradientTransform="translate(773.70064 849.74381) rotate(-46.7303)" xlink:href="#linear-gradient-7"/>
    <linearGradient id="linear-gradient-18" x1="565.94533" y1="991.41999" x2="245.92857" y2="664.73568" gradientTransform="matrix(1, 0, 0, 1, 0, 0)" xlink:href="#linear-gradient-9"/>
    <linearGradient id="linear-gradient-19" x1="-499.3329" y1="-129.33208" x2="-334.85845" y2="-298.07846" gradientTransform="translate(773.70064 849.74381) rotate(-46.7303)" xlink:href="#linear-gradient-7"/>
    <linearGradient id="linear-gradient-20" x1="1040.5938" y1="-884.41887" x2="715.21148" y2="-104.85579" xlink:href="#linear-gradient-3"/>
    <linearGradient id="linear-gradient-21" x1="1170.04335" y1="1767.91348" x2="1088.85856" y2="1912.39512" gradientTransform="translate(-767.7686)" xlink:href="#linear-gradient-2"/>
    <linearGradient id="linear-gradient-22" x1="1479.60978" y1="-701.1708" x2="1154.22723" y2="78.39281" xlink:href="#linear-gradient-3"/>
    <linearGradient id="linear-gradient-23" x1="1313.64794" y1="843.24018" x2="606.33853" y2="1748.18048" gradientTransform="matrix(1, 0, 0, 1, 0, 0)" xlink:href="#linear-gradient-7"/>
    <linearGradient id="linear-gradient-24" x1="1408.30928" y1="917.22531" x2="700.99801" y2="1822.168" gradientTransform="matrix(1, 0, 0, 1, 0, 0)" xlink:href="#linear-gradient-7"/>
    <linearGradient id="linear-gradient-25" x1="4416.3014" y1="2216.97552" x2="4464.43429" y2="1777.76057" gradientTransform="translate(-2023.1781)" xlink:href="#linear-gradient-7"/>
    <linearGradient id="linear-gradient-26" x1="4444.83337" y1="2220.1129" x2="4492.9769" y2="1780.80089" gradientTransform="translate(-2023.1781)" xlink:href="#linear-gradient-7"/>
    <linearGradient id="linear-gradient-27" x1="-2749.47435" y1="1531.69316" x2="-2863.00783" y2="1314.74315" gradientTransform="matrix(-1, 0, 0, 1, -606.97005, 0)" xlink:href="#linear-gradient-7"/>
    <linearGradient id="linear-gradient-28" x1="4449.48927" y1="1921.40535" x2="4645.25251" y2="2366.81085" gradientTransform="translate(-2026.28195 -1296.67896) rotate(12.77303)" xlink:href="#linear-gradient-7"/>
    <linearGradient id="linear-gradient-29" x1="3901.89555" y1="2611.20857" x2="4053.5898" y2="2956.34718" gradientTransform="translate(-2430.44227 -217.98153) rotate(-12.15718)" xlink:href="#linear-gradient-7"/>
    <linearGradient id="linear-gradient-30" x1="2449.05898" y1="2586.35753" x2="2472.39367" y2="2826.37024" gradientTransform="translate(-263.9708)" xlink:href="#linear-gradient-2"/>
    <linearGradient id="linear-gradient-31" x1="2639.31911" y1="2525.85611" x2="2620.15158" y2="2807.5372" gradientTransform="translate(-263.9708)" xlink:href="#linear-gradient-2"/>
    <linearGradient id="linear-gradient-32" x1="2504.811" y1="2726.22113" x2="2559.81004" y2="1406.21986" gradientTransform="translate(-263.9708)" xlink:href="#linear-gradient-9"/>
    <linearGradient id="linear-gradient-33" x1="2073.51693" y1="-9946.52452" x2="1748.1338" y2="-9166.95952" gradientTransform="matrix(-1, 0, 0, 1, -606.97005, 0)" xlink:href="#linear-gradient-3"/>
    <linearGradient id="linear-gradient-34" x1="-2838.84483" y1="593.57437" x2="-2881.32446" y2="253.7366" gradientTransform="matrix(-0.9402, -0.3405, -0.3405, 0.9402, -428.77359, 38.49577)" xlink:href="#linear-gradient-7"/>
    <linearGradient id="linear-gradient-35" x1="-2546.32456" y1="1561.85071" x2="-2185.97537" y2="1618.29096" gradientTransform="matrix(-1, 0, 0, 1, -160.57815, 0)" xlink:href="#linear-gradient-7"/>
    <linearGradient id="linear-gradient-36" x1="-2941.42103" y1="123.38773" x2="-3062.31916" y2="-107.6353" gradientTransform="matrix(-0.9011, -0.4336, -0.4336, 0.9011, -459.84658, 97.21469)" xlink:href="#linear-gradient-2"/>
    <linearGradient id="linear-gradient-37" x1="1891.22887" y1="-10022.58042" x2="1565.84613" y2="-9243.01635" gradientTransform="matrix(-1, 0, 0, 1, -606.97005, 0)" xlink:href="#linear-gradient-3"/>
  </defs>
  <g id="katman_2" data-name="katman 2">
    <g id="Illustration">
      <g>
        <path class="cls-1" d="M2491.53272,2363.0991c-56.6702,58.9123-110.2909,96.9043-152.6559,126.9206-497.9897,352.8358-1087.2435,249.986-1212.4769,224.8688-184.93-37.0896-542.3956-108.783-800.8367-408.8962-391-454.0462-330.1156-1169.3833-26.8295-1641.5873,55.4757-86.3742,348.515-565.7708,944.1155-642.6509,360.4511-46.5269,780.6213,47.3125,1084.897,299.0406C2966.44812,849.1949,2920.97932,1916.6567,2491.53272,2363.0991Z"/>
        <g>
          <g>
            <path class="cls-2" d="M2514.83722,1536.6612c-11.5942-48.3801-16.7427-97.6166-9.4454-148.6266,18.3871-128.5273,116.8145-230.4711,194.1492-328.7417,71.0775-90.3191,140.0101-232.351-29.9201-252.7082-135.3809-16.2181-349.8899,67.1588-397.6238,202.5323-56.4916,160.2208-74.2899,370.7033-200.9034,501.0742-177.1259,182.3826-179.902,146.6319-255.737,499.3393-32.4037,150.7092,32.8097,250.579,118.1333,315.5393,134.6716,102.5319,320.0626,109.4106,464.763,17.1522,127.8342-81.5052,222.4766-216.6288,233.1161-369.2846C2642.11332,1818.7577,2549.56412,1681.5487,2514.83722,1536.6612Z"/>
            <path class="cls-3" d="M2158.74362,2650.9315a7.453,7.453,0,0,1-5.9741-7.0872c-11.4117-348.9643,8.2554-659.2773,58.4517-922.3179,40.2168-210.75,100.0286-391.8661,177.7682-538.3263,69.3752-130.6959,140.5444-209.1137,188.0319-251.8861,51.8869-46.7355,87.0578-62.1777,88.5308-62.8113a7.4897,7.4897,0,0,1,9.9136,3.9525,7.69464,7.69464,0,0,1-4.0829,9.984h0c-.3444.1508-35.0674,15.5127-85.4506,61.1324-46.5526,42.1512-116.3611,119.4725-184.5573,248.4682-76.7537,145.1766-135.8317,324.8008-175.5927,533.8868-49.7372,261.55-69.2022,570.1379-57.8519,917.1972a7.68465,7.68465,0,0,1-9.1867,7.8077Z"/>
          </g>
          <g>
            <path class="cls-3" d="M2779.36012,2127.3826c28.7917-113.0827-3.4555-248.8013-14.5316-372.133-5.8561-65.2085-5.4969-129.3642,11.2438-193.0164,16.6439-63.2857,54.8761-129.9054,31.1892-196.5918-47.7322-134.3494-194.18-88.3889-283.7978,1.4192-103.9959,104.2169-146.2657,286.0387-194.7013,424.6141-29.1982,83.5395-69.4748,168.2941-88.6698,254.3763-31.7986,142.6035-6.3116,245.9002,60.6383,320.1511,64.2133,71.2175,169.7166,94.3054,259.5082,56.9381C2641.35192,2389.3819,2732.913,2309.8078,2779.36012,2127.3826Z"/>
            <path class="cls-4" d="M2408.10122,2633.8082a7.94,7.94,0,0,1-7.3303-7.0369c-.1538-1.7702-15.0683-179.7712,5.9479-421.5794,19.4074-223.2874,74.2937-548.3524,225.5686-828.942a8.23255,8.23255,0,0,1,10.8262-3.243,7.47683,7.47683,0,0,1,3.5393,10.2728c-82.8443,153.6595-188.9345,421.2294-223.881,823.3117-20.9101,240.5786-6.102,417.3354-5.9502,419.0912a7.66878,7.66878,0,0,1-7.3685,8.1431A8.9654,8.9654,0,0,1,2408.10122,2633.8082Z"/>
          </g>
        </g>
        <g>
          <path class="cls-5" d="M554.01662,135.5871c-10.6678,423.8307-45.2647,1885.7853-28.7492,2403.8577,1.7496,54.8854,46.4202,98.9374,102.1419,100.7336,275.6003,8.8832,1068.422,31.3981,1519.2099,12.7701,93.8922-3.8795,168.5574-78.7882,170.506-171.3288,9.3678-444.8649,30.0347-1696.1026-19.089-2269.2951-5.8855-68.6773-60.613-123.3674-130.2395-130.2281C1867.65592,52.5231,1070.489-19.7664,681.03642,5.1262,610.79822,9.6156,555.76052,66.2815,554.01662,135.5871Z"/>
          <path class="cls-3" d="M666.00042,267.2802c-15.0533,347.1148-62.5314,1501.8846-47.4618,1928.8944,2.2022,62.4133,52.1457,112.879,115.4432,116.5275,260.6128,15.0214,929.0623,48.1437,1311.3181,17.9938,68.831-5.4281,122.8442-60.256,126.5591-128.1705,19.3716-354.1301,74.9912-1429.3825,60.546-1851.6067-2.3049-67.3559-55.2783-122.3653-123.4285-128.3923-281.9419-24.9325-1006.064-84.2581-1330.8939-66.8016C717.10532,159.0017,668.60652,207.1862,666.00042,267.2802Z"/>
          <path class="cls-6" d="M1235.13142,79.1838v.0005a24.5675,24.5675,0,0,0,23.4749,24.4103c65.095,3.3573,248.4688,12.8587,330.4203,17.5419,16.1583.9232,28.8405-13.3827,25.776-29.0361l-.5236-2.6711a24.66291,24.66291,0,0,0-22.0831-19.7134c-55.3953-4.9996-222.5482-18.8623-333.2972-14.9686A24.54686,24.54686,0,0,0,1235.13142,79.1838Z"/>
        </g>
        <g>
          <g>
            <circle class="cls-7" cx="1407.65052" cy="1065.62623" r="591.88664"/>
            <g>
              <g>
                <path class="cls-8" d="M1193.07052,1321.4097c-19.4493,0-44.0623-15.7652-44.0623-35.2143V750.1503c0-19.4491,24.613-35.2155,44.0623-35.2155,19.449,0,44.0623,15.7664,44.0623,35.2155v555.4942C1237.13282,1325.0937,1212.51952,1321.4097,1193.07052,1321.4097Z"/>
                <path class="cls-8" d="M1232.74562,1307.1971c0,52.1494-50.3636,94.4244-112.49,94.4244-62.1276,0-112.4925-42.275-112.4925-94.4244,0-52.1482,50.3649-94.4243,112.4925-94.4243C1182.382,1212.7728,1232.74562,1255.0489,1232.74562,1307.1971Z"/>
              </g>
              <g>
                <path class="cls-8" d="M1687.92362,1250.9811c-19.4493,0-30.5046-15.7664-30.5046-35.2155V679.7217c0-19.4503,11.0553-35.2155,30.5046-35.2155,19.449,0,30.5046,15.7652,30.5046,35.2155v555.493C1718.42822,1254.6639,1707.37262,1250.9811,1687.92362,1250.9811Z"/>
                <ellipse class="cls-8" cx="1605.43452" cy="1236.76823" rx="112.4922" ry="94.42347"/>
              </g>
              <path class="cls-8" d="M1186.29172,911.2242l532.1365-114.1215V659.3371a35.41135,35.41135,0,0,0-12.9112-27.0207,34.90135,34.90135,0,0,0-28.7421-7.5666l-490.4832,90.185Z"/>
            </g>
          </g>
          <rect class="cls-7" x="851.57072" y="1780.4244" width="1098.2887" height="155.8395" rx="13.5817"/>
        </g>
        <g>
          <circle class="cls-8" cx="888.71205" cy="423.72128" r="302.91583"/>
          <polygon class="cls-8" points="669.154 594.461 603.351 764.528 765.881 689.026 669.154 594.461"/>
          <path class="cls-9" d="M832.24672,575.0238a44.50161,44.50161,0,0,1,3.6186-17.9558,45.45382,45.45382,0,0,1,9.917-14.4746,48.96371,48.96371,0,0,1,52.13-9.7828,49.03664,49.03664,0,0,1,15.0112,9.7828,44.34146,44.34146,0,0,1,13.6697,32.4304,45.45658,45.45658,0,0,1-3.6187,18.0932,43.90232,43.90232,0,0,1-10.051,14.6055,46.95931,46.95931,0,0,1-15.0112,9.6518,48.66746,48.66746,0,0,1-18.4924,3.4813,49.36279,49.36279,0,0,1-18.7606-3.4813,45.34392,45.34392,0,0,1-14.877-9.6518,44.88575,44.88575,0,0,1-9.917-14.6055A45.45824,45.45824,0,0,1,832.24672,575.0238Zm86.8409-348.4368V379.8984a405.531,405.531,0,0,1-2.9479,48.9204q-2.95455,24.2541-7.7739,49.4504h-56.2853q-4.8243-25.19625-7.7738-49.4504a404.85732,404.85732,0,0,1-2.9479-48.9204V226.587Z"/>
        </g>
        <g>
          <g>
            <path class="cls-10" d="M1805.88162,161.4515a28.815,28.815,0,0,1,22.2773-7.6678c87.5003,7.869,250.7519-34.2786,357.4472-143.4476,7.4088-7.5805,20.9127-3.296,29.4055,3.0501,118.6595,88.6853,315.3524,107.0509,383.6331,110.8058a28.808,28.808,0,0,1,27.0426,25.8046c62.0953,599.735-328.3878,817.0581-409.3748,855.4189a28.8802,28.8802,0,0,1-27.5915-1.594c-403.6341-251.4171-386.3683-578.3787-391.951-820.6413A28.85326,28.85326,0,0,1,1805.88162,161.4515Z"/>
            <path class="cls-8" d="M2205.39022,961.8535a9.62663,9.62663,0,0,1-5.176-1.5079c-154.7432-98.9205-255.5993-217.1807-308.3315-361.5375-47.0957-128.9287-49.3998-260.2132-51.4352-376.0428l-.2763-15.4434a9.45088,9.45088,0,0,1,2.7242-6.845,9.55436,9.55436,0,0,1,6.868-2.8719h.0039c95.8317,0,239.6705-42.315,345.1693-136.848a9.55961,9.55961,0,0,1,11.666-.8422c115.9179,76.9141,281.2662,99.3099,369.5125,105.8134a9.5245,9.5245,0,0,1,8.8133,8.7059c20.5119,234.0073-28.1608,431.8866-144.6657,588.1435-87.0146,116.6967-190.194,177.5016-230.5177,198.2284h0A9.53434,9.53434,0,0,1,2205.39022,961.8535Zm2.5592-4.5429.8978,1.7477-.8978-1.7477c40.08-20.6002,142.6417-81.0425,229.1633-197.0812,115.9101-155.4607,164.3258-352.4345,143.9021-585.4519a5.61284,5.61284,0,0,0-5.1875-5.1318c-88.63-6.5323-254.7341-29.0471-371.3963-106.458a5.62888,5.62888,0,0,0-6.8738.4969c-106.27,95.2255-251.21,137.8494-347.7094,137.8494h-.0019a5.69889,5.69889,0,0,0-4.1476,1.6978,5.53406,5.53406,0,0,0-1.5981,4.0172l.2762,15.4434c2.0278,115.5246,4.328,246.458,51.1974,374.769,52.4252,143.5165,152.7653,261.134,306.7584,359.573A5.66761,5.66761,0,0,0,2207.94942,957.3106Z"/>
          </g>
          <g>
            <g>
              <path class="cls-8" d="M1925.20632,470.0356s125.6498,146.9007,280.6462,146.9007,280.6462-146.9007,280.6462-146.9007-125.6497-146.9007-280.6462-146.9007S1925.20632,470.0356,1925.20632,470.0356Z"/>
              <circle class="cls-11" cx="2200.45405" cy="470.84248" r="121.60586" transform="translate(311.56216 1693.86255) rotate(-45)"/>
            </g>
            <circle class="cls-8" cx="2254.17245" cy="427.68918" r="29.73811" transform="translate(357.80991 1719.20788) rotate(-45)"/>
          </g>
          <path class="cls-8" d="M2291.54112,577.1101l-162.7914-228.2177c-7.1,3.7628-38.7696,26.5069-45.5342,30.3272l161.7486,226.7552C2252.346,602.8752,2284.397,580.641,2291.54112,577.1101Z"/>
          <path class="cls-12" d="M2327.39492,684.8108a8.46129,8.46129,0,0,1-6.9046-3.5516l-279.7649-392.2078a8.47389,8.47389,0,1,1,13.7959-9.8438l279.7649,392.2077a8.47344,8.47344,0,0,1-6.8913,13.3955Z"/>
        </g>
        <g>
          <path class="cls-13" d="M158.49092,1528.5126c-21.6813,23.1423-53.6051,43.1401-76.0693,55.6103,33.5485,41.4681,78.9441,82.9964,139.0395,123.6428l17.1993,38.5959,55.1075-66.0475S194.88572,1631.1063,158.49092,1528.5126Z"/>
          <path class="cls-14" d="M453.40242,2781.1979a13.65482,13.65482,0,0,0-.3636-3.5806c-17.849-70.7644-106.439-114.84-106.439-114.84l-35.1052,2.7512c-20.1847,62.371-17.5908,100.6234-14.3492,117.6616.0893.4775.2343.9318.3611,1.3937C326.46492,2787.1707,386.06992,2788.8607,453.40242,2781.1979Z"/>
          <path class="cls-15" d="M297.50652,2784.5838c1.5639,5.6894,5.7644,10.1196,11.1405,11.2506,41.1938,8.6631,106.6674,1.6907,134.1564-1.9029,6.0653-.7926,10.4981-6.4017,10.599-12.7336C386.06992,2788.8607,326.46492,2787.1707,297.50652,2784.5838Z"/>
          <path class="cls-16" d="M297.37842,2613.2414l14.8681,71.575c1.0896,5.2442,5.1199,9.1717,10.0011,9.6304a99.21112,99.21112,0,0,0,23.0342-.3669c7.6706-1.1271,13.0118-8.9219,11.6518-17.2867l-10.3344-63.5518Z"/>
          <path class="cls-17" d="M605.43752,2783.8656c-38.7713-1.0863-58.8247-5.6518-69.1914-9.8892-.0246,3.8544-.0026,7.778.1223,11.8433.134,4.3415,3.3497,7.8096,7.3056,7.7837l212.8773-1.3736c6.7938-.0447,10.7639-7.9235,7.8193-14.1525C736.459,2780.3827,665.37062,2785.5421,605.43752,2783.8656Z"/>
          <path class="cls-18" d="M764.37062,2778.0773a9.84435,9.84435,0,0,0-.8424-1.6053c-18.8001-26.2694-66.6829-78.5778-161.2993-101.2646l-45.3904-1.4332s-20.2113,35.1298-20.5924,100.2022c10.3667,4.2374,30.4201,8.8029,69.1914,9.8892C665.37062,2785.5421,736.459,2780.3827,764.37062,2778.0773Z"/>
          <path class="cls-19" d="M548.42192,2604.9853c.5041,3.3833,6.7259,54.8053,9.1341,74.7435a9.87531,9.87531,0,0,0,8.3305,8.9206c7.7295.9233,20.2365,1.7638,31.1785-.4788,5.9028-1.2106,10.1758-6.8811,10.1758-13.475v-80.7182Z"/>
          <path class="cls-20" d="M512.00652,1666.5544s109.478,416.0555,107.4987,939.6208a20.26766,20.26766,0,0,1-16.0793,19.7512c-13.7649,2.8993-33.9988,6.3415-50.7498,5.8718a18.8067,18.8067,0,0,1-17.9214-15.7008c-15.3501-90.0206-103.4432-597.1539-153.6352-679.4858,0,0-33.0224,451.6757-22.4668,686.0078a11.10654,11.10654,0,0,1-9.7986,11.5508,186.51532,186.51532,0,0,1-40.7435-.1133,14.86712,14.86712,0,0,1-13.2427-12.617c-10.9342-76.1877-73.8675-529.6823-71.1927-856.3623.1514-18.4222,48.7194-98.5232,48.7194-98.5232Z"/>
          <path class="cls-21" d="M664.26352,1163.0238a455.528,455.528,0,0,1-46.3538-70.7436c-18.1848-34.3573-1.463,22.2403-6.4315-16.5569-136.179-98.2708-341.2382-48.5304-420.5575-38.5377a105.93384,105.93384,0,0,0-66.9346,35.9334c-67.9691,78.6575-217.1174,294.007-41.5645,511.0039,22.4642-12.4702,54.388-32.468,76.0693-55.6103-19.4219-54.7497-21.0123-124.7156,19.6911-210.5117a200.60341,200.60341,0,0,0,5.2001,20.1582c56.1007,177.7319,59.0939,325.6325,58.969,359.7193a11.25531,11.25531,0,0,0,7.0591,10.5181c73.8351,29.5874,215.9642,11.9778,263.6749,4.8683a16.04615,16.04615,0,0,0,13.4239-18.21c-23.416-169.6415,96.7568-448.7104,128.4968-518.6084A46.43824,46.43824,0,0,1,664.26352,1163.0238Z"/>
          <path class="cls-22" d="M318.53692,894.3396l-14.2301,145.3856s81.7877,24.6344,141.2743-17.3378l-41.8175-132.1338Z"/>
          <g>
            <path class="cls-23" d="M413.43862,728.6341c1.9683,1.8531,83.0754,161.1291,83.0754,161.1291L404.586,934.141l-99.3016-139.5397S380.48412,697.6129,413.43862,728.6341Z"/>
            <path class="cls-24" d="M345.95862,798.4654a14.68858,14.68858,0,0,0,1.1032,12.8784l45.8485,76.4291a14.29155,14.29155,0,0,0,2.5144,3.1297c5.4577,5.0798,24.1322,19.856,38.5688-.2614,12.3045-17.1463,23.8488-32.7345,36.22-39.1634a14.65215,14.65215,0,0,1,19.781,6.5117c7.5534,14.9723,22.186,45.492,31.3784,74.4323a14.59417,14.59417,0,0,1-8.4942,17.8988c-18.6138,7.5418-55.4039,21.1805-88.0504,25.6858a14.65811,14.65811,0,0,1-13.8633-5.8945c-14.0457-19.2413-53.6329-73.0134-67.1441-86.4735-12.5524-12.5045-35.7193-7.7889-46.1578-4.7893a14.73974,14.73974,0,0,1-11.7139-1.5374c-10.5918-6.379-29.0742-22.2649-12.1661-49.1619a14.67687,14.67687,0,0,0-4.5389-19.9356c-11.8244-7.7786-24.6563-22.3795-12.4313-46.0239,12.3757-23.9362,34.4756-26.085,49.5275-24.2455,6.6599.8146,13.4213-2.6787,15.9764-8.8817a9.69681,9.69681,0,0,1,7.5664-5.9605c7.8886-1.6007,13.0668-8.8151,11.5184-16.714-2.6548-13.545-.6554-31.1409,20.9709-43.0314,39.6648-21.8081,74.4084,13.7261,83.2429,43.7224,8.8346,29.9969-35.5128,51.1949-63.4095,54.7328C361.71452,764.4116,350.47942,786.7761,345.95862,798.4654Z"/>
            <path class="cls-25" d="M361.04152,911.7065s-17.6373-51.607-40.2141-49.7125c-22.5775,1.8945-40.3462,24.3852-12.3661,49.6685C343.26512,943.112,361.04152,911.7065,361.04152,911.7065Z"/>
          </g>
          <path class="cls-26" d="M170.73662,1304.7084c-29.7588-81.441-18.9638-179.7837-18.8506-180.7671l8.1998.9369c-.1087.966-10.6747,97.4212,18.4067,176.9962Z"/>
          <path class="cls-27" d="M377.09562,1926.0061a4.12308,4.12308,0,0,1-3.9902-3.0921c-9.0791-35.0153-77.0619-73.4955-77.7471-73.8804a4.128,4.128,0,0,1,4.0395-7.2002c2.9226,1.6389,71.74,40.5946,81.6971,79.0088a4.131,4.131,0,0,1-3.9993,5.1639Z"/>
          <g>
            <path class="cls-28" d="M940.68812,1208.7474c-154.0202,23.11-254.4062-74.0719-329.2099-133.0241-98.7613-77.8318-175.6161-39.9663-175.6161-39.9663l105.3241,201.012c157.287,148.2991,318.554,115.366,420.2217,67.3091A196.03554,196.03554,0,0,0,940.68812,1208.7474Z"/>
            <path class="cls-29" d="M1157.16152,1116.8589l-51.0759,27.4858c-61.2562,37.2954-116.0699,57.002-165.3975,64.4027a196.03554,196.03554,0,0,1,20.7198,95.3307c64.7198-30.5909,105.2943-67.3091,105.2943-67.3091C1182.40792,1167.7749,1157.16152,1116.8589,1157.16152,1116.8589Z"/>
          </g>
          <path class="cls-30" d="M1307.63082,1188.8344a37.67464,37.67464,0,0,0-22.023-24.1005l-103.658-41.6849s-1.5645-13.2945,21.9013-22.3283c23.4678-9.0339,17.981-35.3162,17.981-35.3162s-32.059,14.6248-78.9945,37.8202c-26.8414,13.2647-41.901,36.6859-49.888,54.3155l26.6842,35.0929c63.887,19.1922,128.5337,22.8622,193.731,15.2492Z"/>
        </g>
        <g>
          <g>
            <path class="cls-31" d="M2471.712,1775.0119s20.0343,203.9622-27.926,340.5381h-30.3552s7.2856-256.8016-19.4268-322.7356C2367.29162,1726.8791,2471.712,1775.0119,2471.712,1775.0119Z"/>
            <path class="cls-32" d="M2432.74762,2091.4843l11.0384,24.0657s12.7487,37.3036,10.927,62.5727c-1.8211,25.2698-37.6394,30.6847-49.7813,30.0826-12.1421-.6013-12.7487-12.6345,0-32.4894,0,0-9.079-37.3029,13.6727-73.4018Z"/>
          </g>
          <ellipse class="cls-33" cx="2179.48062" cy="1461.03548" rx="98.0683" ry="138.30043"/>
          <path class="cls-34" d="M1852.22392,1443.6028c-2.6141,4.4551,13.3734,15.7601,28.2218-1.5223,2.5006-9.3272,17.4301-48.3343,13.4962-57.2847-20.95-47.6707-67.9221-112.1153-67.9221-112.1153-12.102,7.4413-6.1034,18.7993-6.1034,18.7993l21.7615,35.7765c-8.3634,9.3005-17.6549,16.6452-23.9785,28.7541a40.14351,40.14351,0,0,0-2.6247,29.9481c2.9669,10.037,7.1446,23.1563,11.5219,33.675C1834.88332,1439.5408,1852.22392,1443.6028,1852.22392,1443.6028Z"/>
          <path class="cls-35" d="M1876.43252,1416.9244s81.8509,184.1164,244.9337,221.0832c0,0-12.9706,77.6944-41.3912,89.5898,0,0-152.3152,29.7191-247.7967-298.1874Z"/>
          <path class="cls-36" d="M2255.89152,2721.0427s6.8878,31.1684,6.3918,54.1949c-.0786,3.6167-2.291,6.6296-5.2436,7.1264-17.3348,2.921-76.5118,11.5955-109.0046.1348-2.6176-.924-4.4051-3.884-4.3232-7.1935.3071-12.3884,7.5144-41.4708,66.8952-48.9565Z"/>
          <path class="cls-37" d="M2411.28222,2721.0427s6.8877,31.1684,6.3917,54.1949c-.0785,3.6167-2.2909,6.6296-5.2435,7.1264-17.3349,2.921-76.5118,11.5955-109.0046.1348-2.6176-.924-4.4051-3.884-4.3232-7.1935.3071-12.3884,7.5144-41.4708,66.8951-48.9565Z"/>
          <path class="cls-38" d="M2378.588,1958.9462s-228.0554,9.4076-280.3963,29.3032c0,0,58.7179,580.4994,94.5825,744.4534,1.7027,7.7838,64.24,6.75,64.966-2.2772-10.1747-176.5929-15.3736-348.2263-13.3373-512.649-.3646-5.2803,3.2207-9.8255,8.0093-10.1511l5.8941-.9387c4.9913-.3391,9.2716,4.0272,9.3546,9.5418,16.0507,169.1984,43.9932,342.2056,81.7589,518.3623-1.0629,13.6417,66.2763,13.002,64.4126-.1823C2400.37142,2639.1822,2388.03842,2083.7965,2378.588,1958.9462Z"/>
          <path class="cls-39" d="M2253.63952,1615.8366c-122.36,5.1117-208.3395-23.3679-236.3571-54.8224-6.609,3.1389-47.0803,43.6141-88.8725,94.264,58.5909,54.4177,75.0581,64.8331,110.6717,87.0881,11.2361,13.3171,42.7707,21.9763,42.3307,39.9522l29.4321,326.4698c-.1694,6.9468,128.2113,75.4379,284.7518.2141l-6.8642-319.9288c0-20.0915,10.331-38.3674,26.6649-48.1201C2437.28912,1727.8819,2422.93932,1608.764,2253.63952,1615.8366Z"/>
          <path class="cls-40" d="M2104.77312,1464.0207s8.4773-23.6981-13.1261-27.9209c-21.6034-4.2235-.9942,58.7018-.9942,58.7018Z"/>
          <path class="cls-41" d="M2277.49922,1528.3243l8.5335,92.8696s-49.4609,28.6409-92.0135,3.6023l7.5579-81.1158Z"/>
          <path class="cls-42" d="M2069.28942,1477.9745c-11.6185-25.401-18.4241-57.9678-7.548-81.9755,4.4011-9.7152,14.9196-17.1186,14.9509-27.768.023-7.8355-5.8237-14.4362-7.7769-22.0288-3.0819-11.9794,4.3356-24.7297,14.7626-31.5158s23.2287-8.8005,35.6449-9.9924c5.7755-.5545,11.7886-1.0336,16.7984-3.9349,5.8333-3.3782,9.3835-9.4838,13.8715-14.4888,17.6197-19.6495,52.9679-19.3963,70.2992.5035,8.9358,10.2601,13.7869,24.7634,25.9745,30.912,6.6971,3.3786,14.4995,3.5705,21.8647,5.0492,16.9584,3.4047,31.7287,13.7544,44.1424,25.7002,18.5729,17.8728,33.4132,36.508,38.2253,62.1837,2.5523,13.6182,2.5576,27.5625,2.5548,41.4136-.0066,31.756-8.3179,67.477-27.4763,93.8263-30.7307,42.2647-93.6989,65.2865-143.8634,47.318-35.7956-12.8217-61.2902-43.7602-84.9204-73.3312-6.5584-8.2073-13.1336-16.4381-18.6792-25.349A147.84485,147.84485,0,0,1,2069.28942,1477.9745Z"/>
          <path class="cls-43" d="M2485.90572,1823.8952c-5.3841,27.1476-48.6179,39.1654-94.5618,12.96l-23.9213-73.4994c-32.774-32.7793-36.4827-89.6493-51.5195-143.9753C2441.78142,1624.5234,2476.493,1712.2184,2485.90572,1823.8952Z"/>
        </g>
      </g>
    </g>
  </g>
</svg>
