<svg xmlns="http://www.w3.org/2000/svg" xmlns:xlink="http://www.w3.org/1999/xlink" viewBox="0 0 2820.27974 2799.99999">
  <defs>
    <style>
      .cls-1 {
        fill: none;
      }

      .cls-2 {
        isolation: isolate;
      }

      .cls-3 {
        fill: #f4f7fa;
      }

      .cls-4 {
        fill: url(#linear-gradient);
      }

      .cls-13, .cls-16, .cls-5 {
        mix-blend-mode: soft-light;
      }

      .cls-6 {
        clip-path: url(#clip-path);
      }

      .cls-7 {
        fill: #fcfdfe;
      }

      .cls-8 {
        fill: url(#linear-gradient-2);
      }

      .cls-9 {
        fill: url(#linear-gradient-3);
      }

      .cls-10 {
        fill: url(#linear-gradient-4);
      }

      .cls-11 {
        clip-path: url(#clip-path-2);
      }

      .cls-12 {
        fill: url(#linear-gradient-5);
      }

      .cls-13, .cls-15 {
        fill: #fff;
      }

      .cls-13 {
        opacity: 0.74;
      }

      .cls-14 {
        fill: url(#linear-gradient-6);
      }

      .cls-16 {
        opacity: 0.5;
      }

      .cls-17 {
        fill: url(#linear-gradient-7);
      }

      .cls-18 {
        fill: url(#linear-gradient-8);
      }

      .cls-19 {
        fill: url(#linear-gradient-9);
      }

      .cls-20 {
        fill: url(#linear-gradient-10);
      }

      .cls-21 {
        fill: url(#linear-gradient-11);
      }

      .cls-22 {
        fill: url(#linear-gradient-12);
      }

      .cls-23 {
        fill: url(#linear-gradient-13);
      }

      .cls-24 {
        fill: url(#linear-gradient-14);
      }

      .cls-25 {
        fill: url(#linear-gradient-15);
      }

      .cls-26 {
        fill: url(#linear-gradient-16);
      }

      .cls-27 {
        fill: url(#linear-gradient-17);
      }

      .cls-28, .cls-35, .cls-37, .cls-47, .cls-50, .cls-71 {
        opacity: 0.3;
      }

      .cls-28, .cls-35, .cls-37, .cls-47, .cls-50, .cls-71, .cls-76 {
        mix-blend-mode: multiply;
      }

      .cls-28 {
        fill: url(#linear-gradient-18);
      }

      .cls-29 {
        fill: url(#linear-gradient-19);
      }

      .cls-30 {
        fill: url(#linear-gradient-20);
      }

      .cls-31 {
        fill: url(#linear-gradient-21);
      }

      .cls-32 {
        fill: url(#linear-gradient-22);
      }

      .cls-33 {
        fill: url(#linear-gradient-23);
      }

      .cls-34 {
        fill: url(#linear-gradient-24);
      }

      .cls-35 {
        fill: url(#linear-gradient-25);
      }

      .cls-36 {
        fill: url(#linear-gradient-26);
      }

      .cls-37 {
        fill: url(#linear-gradient-27);
      }

      .cls-38 {
        fill: url(#linear-gradient-28);
      }

      .cls-39 {
        fill: url(#linear-gradient-29);
      }

      .cls-40 {
        fill: url(#linear-gradient-30);
      }

      .cls-41 {
        fill: url(#linear-gradient-31);
      }

      .cls-42 {
        fill: url(#linear-gradient-32);
      }

      .cls-43 {
        fill: url(#linear-gradient-33);
      }

      .cls-44 {
        fill: url(#linear-gradient-34);
      }

      .cls-45 {
        fill: url(#linear-gradient-35);
      }

      .cls-46 {
        fill: url(#linear-gradient-36);
      }

      .cls-47 {
        fill: url(#linear-gradient-37);
      }

      .cls-48 {
        fill: url(#linear-gradient-38);
      }

      .cls-49 {
        fill: url(#linear-gradient-39);
      }

      .cls-50 {
        fill: url(#linear-gradient-40);
      }

      .cls-51 {
        fill: url(#linear-gradient-41);
      }

      .cls-52 {
        fill: url(#linear-gradient-42);
      }

      .cls-53 {
        fill: url(#linear-gradient-43);
      }

      .cls-54 {
        fill: url(#linear-gradient-44);
      }

      .cls-55 {
        fill: url(#linear-gradient-45);
      }

      .cls-56 {
        fill: url(#linear-gradient-46);
      }

      .cls-57 {
        fill: url(#linear-gradient-47);
      }

      .cls-58 {
        fill: url(#linear-gradient-48);
      }

      .cls-59 {
        fill: url(#linear-gradient-49);
      }

      .cls-60 {
        fill: url(#linear-gradient-50);
      }

      .cls-61 {
        fill: url(#linear-gradient-51);
      }

      .cls-62 {
        fill: url(#linear-gradient-52);
      }

      .cls-63 {
        fill: url(#linear-gradient-53);
      }

      .cls-64 {
        fill: url(#linear-gradient-54);
      }

      .cls-65 {
        fill: url(#linear-gradient-55);
      }

      .cls-66 {
        fill: url(#linear-gradient-56);
      }

      .cls-67 {
        fill: url(#linear-gradient-57);
      }

      .cls-68 {
        fill: url(#linear-gradient-58);
      }

      .cls-69 {
        fill: url(#linear-gradient-59);
      }

      .cls-70 {
        fill: url(#linear-gradient-60);
      }

      .cls-71 {
        fill: url(#linear-gradient-61);
      }

      .cls-72 {
        fill: url(#linear-gradient-62);
      }

      .cls-73 {
        fill: url(#linear-gradient-63);
      }

      .cls-74 {
        fill: url(#linear-gradient-64);
      }

      .cls-75 {
        fill: url(#linear-gradient-65);
      }

      .cls-76 {
        opacity: 0.2;
        fill: url(#linear-gradient-66);
      }

      .cls-77 {
        fill: url(#linear-gradient-67);
      }

      .cls-78 {
        fill: url(#linear-gradient-68);
      }

      .cls-79 {
        fill: url(#linear-gradient-69);
      }
    </style>
    <linearGradient id="linear-gradient" x1="-3900.12188" y1="-3734.20283" x2="-3263.81291" y2="333.64028" gradientTransform="translate(5263.06525 -444.77368) rotate(-58.34445)" gradientUnits="userSpaceOnUse">
      <stop offset="0" stop-color="#ff9085"/>
      <stop offset="1" stop-color="#fb6fbb"/>
    </linearGradient>
    <clipPath id="clip-path">
      <path class="cls-1" d="M1481.88618,1268.80688c-12.169-27.4088-64.6447-38.8299-146.378-32.3343-218.6317,17.3751-355.6845,150.2875-456.1586-159.5242S318.72646,314.14428,85.11947,652.536c-134.0677,194.2052,154.552,375.8529,136.69189,602.7474-16.9706,215.6079,118.737,332.8422,352.99622,363.8117,151.5063,20.0294,129.5199,58.6385,150.9302,65.338C1043.03808,1783.718,1525.72638,1367.55508,1481.88618,1268.80688Z"/>
    </clipPath>
    <linearGradient id="linear-gradient-2" x1="-4221.1256" y1="-3302.8366" x2="-3585.03313" y2="763.62254" gradientTransform="matrix(0.676, -0.7369, 0.7369, 0.676, 5311.59681, 110.42681)" gradientUnits="userSpaceOnUse">
      <stop offset="0" stop-color="#aa80f9"/>
      <stop offset="0.9964" stop-color="#6165d7"/>
    </linearGradient>
    <linearGradient id="linear-gradient-3" x1="-4122.48446" y1="-3318.26165" x2="-3486.39479" y2="748.17954" xlink:href="#linear-gradient-2"/>
    <linearGradient id="linear-gradient-4" x1="-3616.69178" y1="-3415.49505" x2="-3162.1059" y2="-509.38474" xlink:href="#linear-gradient-2"/>
    <clipPath id="clip-path-2">
      <path class="cls-1" d="M1097.05988,1019.012c3.4806-76.1714,46.3814-132.6048,46.5601-210.171.714-310.3617-248.9399-926.0453-603.0519-685.7413-203.2281,137.9123,6.6921,435.9645-73.0515,658.625-75.77852,211.5848,46.2426,371.0749,254.961,472.4703,112.4356,54.621,93.2943,102.1041,126.1948,109.5215C987.02418,1394.90808,1088.22358,1212.38788,1097.05988,1019.012Z"/>
    </clipPath>
    <linearGradient id="linear-gradient-5" x1="1978.67055" y1="27.07924" x2="169.9684" y2="3644.47583" gradientUnits="userSpaceOnUse">
      <stop offset="0.0036" stop-color="#e38ddd"/>
      <stop offset="1" stop-color="#9571f6"/>
    </linearGradient>
    <linearGradient id="linear-gradient-6" x1="1187.97429" y1="-74.92159" x2="1518.33863" y2="1246.54001" xlink:href="#linear-gradient-5"/>
    <linearGradient id="linear-gradient-7" x1="1867.3579" y1="779.4644" x2="1610.01567" y2="1026.81295" gradientTransform="matrix(1, 0, 0, 1, 0, 0)" xlink:href="#linear-gradient-2"/>
    <linearGradient id="linear-gradient-8" x1="1102.49516" y1="835.82626" x2="1977.26353" y2="2266.56748" gradientTransform="matrix(1, 0, 0, 1, 0, 0)" xlink:href="#linear-gradient-2"/>
    <linearGradient id="linear-gradient-9" x1="1566.35102" y1="1650.43317" x2="855.91212" y2="221.88716" gradientTransform="matrix(1, 0, 0, 1, 0, 0)" xlink:href="#linear-gradient-2"/>
    <linearGradient id="linear-gradient-10" x1="1104.35634" y1="413.70226" x2="1332.67351" y2="1119.04077" gradientTransform="matrix(1, 0, 0, 1, 0, 0)" xlink:href="#linear-gradient-2"/>
    <linearGradient id="linear-gradient-11" x1="1287.27824" y1="1427.23354" x2="868.0633" y2="2336.85243" gradientTransform="matrix(1, 0, 0, 1, 0, 0)" xlink:href="#linear-gradient-2"/>
    <linearGradient id="linear-gradient-12" x1="1453.20567" y1="1187.11825" x2="1354.33436" y2="1511.4164" gradientTransform="matrix(1, 0, 0, 1, 0, 0)" xlink:href="#linear-gradient-2"/>
    <linearGradient id="linear-gradient-13" x1="2679.86885" y1="2590.67838" x2="2699.21831" y2="2836.94319" gradientTransform="translate(-626.2627)" gradientUnits="userSpaceOnUse">
      <stop offset="0.0036" stop-color="#26264f"/>
      <stop offset="1" stop-color="#444b8c"/>
    </linearGradient>
    <linearGradient id="linear-gradient-14" x1="2725.82539" y1="2728.09751" x2="2722.31703" y2="2473.72904" gradientTransform="translate(-626.2627)" gradientUnits="userSpaceOnUse">
      <stop offset="0" stop-color="#ffc444"/>
      <stop offset="0.9964" stop-color="#f36f56"/>
    </linearGradient>
    <linearGradient id="linear-gradient-15" x1="3005.71442" y1="2561.87531" x2="3025.11472" y2="2808.78719" xlink:href="#linear-gradient-13"/>
    <linearGradient id="linear-gradient-16" x1="3024.61027" y1="2723.48961" x2="3021.10234" y2="2469.15319" xlink:href="#linear-gradient-14"/>
    <linearGradient id="linear-gradient-17" x1="2045.22784" y1="2316.21539" x2="2213.36211" y2="2316.21539" gradientUnits="userSpaceOnUse">
      <stop offset="0" stop-color="#ab316d"/>
      <stop offset="1" stop-color="#792d3d"/>
    </linearGradient>
    <linearGradient id="linear-gradient-18" x1="2056.85298" y1="2316.22307" x2="2213.36133" y2="2316.22307" xlink:href="#linear-gradient-17"/>
    <linearGradient id="linear-gradient-19" x1="2091.90468" y1="2297.68493" x2="2430.37712" y2="2297.68493" xlink:href="#linear-gradient-17"/>
    <linearGradient id="linear-gradient-20" x1="2333.5093" y1="1434.69092" x2="2656.97442" y2="1730.74331" gradientTransform="matrix(1, 0, 0, 1, 0, 0)" xlink:href="#linear-gradient-13"/>
    <linearGradient id="linear-gradient-21" x1="1531.17606" y1="1350.30598" x2="1591.38568" y2="1350.30598" gradientTransform="matrix(1, 0, 0, 1, 0, 0)" xlink:href="#linear-gradient-14"/>
    <linearGradient id="linear-gradient-22" x1="1972.51567" y1="1727.78957" x2="1867.1539" y2="1902.43047" gradientUnits="userSpaceOnUse">
      <stop offset="0.0036" stop-color="#6165d7"/>
      <stop offset="1" stop-color="#aa80f9"/>
    </linearGradient>
    <linearGradient id="linear-gradient-23" x1="2044.15126" y1="1721.50713" x2="1783.12132" y2="1860.44242" gradientTransform="matrix(1, 0, 0, 1, 0, 0)" xlink:href="#linear-gradient"/>
    <linearGradient id="linear-gradient-24" x1="1925.48604" y1="1544.69706" x2="1894.50678" y2="1646.08387" gradientTransform="matrix(1, 0, 0, 1, 0, 0)" xlink:href="#linear-gradient-13"/>
    <linearGradient id="linear-gradient-25" x1="2034.05797" y1="1704.77233" x2="1774.34954" y2="1843.00424" gradientTransform="matrix(1, 0, 0, 1, 0, 0)" xlink:href="#linear-gradient"/>
    <linearGradient id="linear-gradient-26" x1="2000.57397" y1="1812.3954" x2="2095.64068" y2="1812.3954" gradientTransform="matrix(1, 0, 0, 1, 0, 0)" xlink:href="#linear-gradient-14"/>
    <linearGradient id="linear-gradient-27" x1="1957.48973" y1="1811.72969" x2="2574.52921" y2="1811.72969" gradientTransform="matrix(1, 0, 0, 1, 0, 0)" xlink:href="#linear-gradient-2"/>
    <linearGradient id="linear-gradient-28" x1="2239.02885" y1="1701.95236" x2="2360.68528" y2="1525.35416" gradientTransform="translate(-530.68335 272.367) rotate(-11.85266)" xlink:href="#linear-gradient-14"/>
    <linearGradient id="linear-gradient-29" x1="2225.22671" y1="1615.28103" x2="2440.23945" y2="1485.83437" gradientTransform="translate(-530.68335 272.367) rotate(-11.85266)" xlink:href="#linear-gradient-14"/>
    <linearGradient id="linear-gradient-30" x1="970.02987" y1="1328.10754" x2="893.64295" y2="1541.18658" gradientTransform="matrix(1, 0, 0, 1, 0, 0)" xlink:href="#linear-gradient-14"/>
    <linearGradient id="linear-gradient-31" x1="1557.01748" y1="840.13132" x2="635.47879" y2="1443.128" gradientTransform="translate(27.70761 -23.79726) rotate(14.84505)" xlink:href="#linear-gradient-14"/>
    <linearGradient id="linear-gradient-32" x1="1044.82579" y1="2254.55746" x2="1177.94529" y2="2734.94528" gradientTransform="matrix(-0.9968, 0.0799, 0.0799, 0.9968, 1470.81222, 98.9604)" gradientUnits="userSpaceOnUse">
      <stop offset="0" stop-color="#311944"/>
      <stop offset="1" stop-color="#893976"/>
    </linearGradient>
    <linearGradient id="linear-gradient-33" x1="1163.30135" y1="2594.19611" x2="1165.23074" y2="2432.13696" gradientTransform="matrix(-0.9968, 0.0799, 0.0799, 0.9968, 1470.81222, 98.9604)" xlink:href="#linear-gradient-14"/>
    <linearGradient id="linear-gradient-34" x1="1211.48778" y1="2208.36727" x2="1344.60811" y2="2688.75807" xlink:href="#linear-gradient-32"/>
    <linearGradient id="linear-gradient-35" x1="1350.69493" y1="2596.42315" x2="1352.62434" y2="2434.36243" gradientTransform="matrix(-0.9968, 0.0799, 0.0799, 0.9968, 1470.81222, 98.9604)" xlink:href="#linear-gradient-14"/>
    <linearGradient id="linear-gradient-36" x1="1069.86945" y1="2072.99873" x2="1242.41532" y2="2072.99873" gradientTransform="matrix(-0.9968, 0.0799, 0.0799, 0.9968, 1470.81222, 98.9604)" gradientUnits="userSpaceOnUse">
      <stop offset="0" stop-color="#444b8c"/>
      <stop offset="0.9964" stop-color="#26264f"/>
    </linearGradient>
    <linearGradient id="linear-gradient-37" x1="1069.8726" y1="2072.99873" x2="1242.41571" y2="2072.99873" xlink:href="#linear-gradient-36"/>
    <linearGradient id="linear-gradient-38" x1="1167.28304" y1="2097.64581" x2="1429.21971" y2="2097.64581" xlink:href="#linear-gradient-36"/>
    <linearGradient id="linear-gradient-39" x1="1693.76248" y1="2128.68932" x2="1109.19014" y2="1289.4515" gradientTransform="matrix(-0.9968, 0.0799, 0.0799, 0.9968, 1470.81222, 98.9604)" xlink:href="#linear-gradient-14"/>
    <linearGradient id="linear-gradient-40" x1="1693.70881" y1="2128.73435" x2="1109.12628" y2="1289.48189" gradientTransform="matrix(-0.9968, 0.0799, 0.0799, 0.9968, 1470.81222, 98.9604)" xlink:href="#linear-gradient-14"/>
    <linearGradient id="linear-gradient-41" x1="1337.73616" y1="1663.20397" x2="1432.0279" y2="1663.20397" gradientTransform="matrix(-0.9968, 0.0799, 0.0799, 0.9968, 1470.81222, 98.9604)" xlink:href="#linear-gradient-14"/>
    <linearGradient id="linear-gradient-42" x1="1857.70106" y1="2014.49707" x2="1273.12304" y2="1175.25108" gradientTransform="matrix(-0.9968, 0.0799, 0.0799, 0.9968, 1470.81222, 98.9604)" xlink:href="#linear-gradient-14"/>
    <linearGradient id="linear-gradient-43" x1="-1091.67039" y1="533.89912" x2="-1053.45144" y2="-56.7594" gradientTransform="matrix(-0.7795, 0.6265, 0.6265, 0.7795, -1509.7344, 796.1562)" xlink:href="#linear-gradient-14"/>
    <linearGradient id="linear-gradient-44" x1="1201.1283" y1="1140.27583" x2="1131.22856" y2="962.74322" gradientTransform="matrix(-0.9968, 0.0799, 0.0799, 0.9968, 1470.81222, 98.9604)" gradientUnits="userSpaceOnUse">
      <stop offset="0" stop-color="#444b8c"/>
      <stop offset="0.9964" stop-color="#3e4177"/>
    </linearGradient>
    <linearGradient id="linear-gradient-45" x1="-1163.05384" y1="529.28146" x2="-1124.8349" y2="-61.37686" gradientTransform="matrix(-0.7795, 0.6265, 0.6265, 0.7795, -1509.7344, 796.1562)" xlink:href="#linear-gradient-14"/>
    <linearGradient id="linear-gradient-46" x1="1511.63175" y1="397.17503" x2="2153.27839" y2="397.17503" xlink:href="#linear-gradient-17"/>
    <linearGradient id="linear-gradient-47" x1="1768.36698" y1="425.69371" x2="2153.27839" y2="425.69371" xlink:href="#linear-gradient-17"/>
    <linearGradient id="linear-gradient-48" x1="2043.0642" y1="70.84545" x2="1238.11231" y2="1499.78976" gradientTransform="matrix(1, 0, 0, 1, 0, 0)" xlink:href="#linear-gradient"/>
    <linearGradient id="linear-gradient-49" x1="2115.70856" y1="797.56125" x2="2560.82768" y2="797.56125" xlink:href="#linear-gradient-17"/>
    <linearGradient id="linear-gradient-50" x1="2293.80928" y1="817.34508" x2="2560.82768" y2="817.34508" xlink:href="#linear-gradient-17"/>
    <linearGradient id="linear-gradient-51" x1="2484.37054" y1="571.18199" x2="1925.96445" y2="1562.46012" gradientTransform="matrix(1, 0, 0, 1, 0, 0)" xlink:href="#linear-gradient"/>
    <linearGradient id="linear-gradient-52" x1="996.75971" y1="1970.60885" x2="934.26982" y2="1811.89593" gradientUnits="userSpaceOnUse">
      <stop offset="0" stop-color="#311944"/>
      <stop offset="1" stop-color="#6b3976"/>
    </linearGradient>
    <linearGradient id="linear-gradient-53" x1="-354.72076" y1="2648.67696" x2="-341.75921" y2="2881.98718" gradientTransform="matrix(-1, 0, 0, 1, 617.89657, 0)" xlink:href="#linear-gradient-36"/>
    <linearGradient id="linear-gradient-54" x1="939.61528" y1="2723.49685" x2="959.02458" y2="2723.49685" gradientTransform="matrix(1, 0, 0, 1, 0, 0)" xlink:href="#linear-gradient-14"/>
    <linearGradient id="linear-gradient-55" x1="-151.84456" y1="2635.64284" x2="-138.88302" y2="2868.95288" gradientTransform="matrix(-1, 0, 0, 1, 617.89657, 0)" xlink:href="#linear-gradient-36"/>
    <linearGradient id="linear-gradient-56" x1="755.06947" y1="2711.5285" x2="793.67108" y2="2711.5285" gradientTransform="matrix(1, 0, 0, 1, 0, 0)" xlink:href="#linear-gradient-14"/>
    <linearGradient id="linear-gradient-57" x1="910.78249" y1="2476.46859" x2="1040.99631" y2="2476.46859" gradientTransform="matrix(1, 0, 0, 1, 0, 0)" xlink:href="#linear-gradient-36"/>
    <linearGradient id="linear-gradient-58" x1="768.28788" y1="2472.49558" x2="957.67218" y2="2472.49558" gradientTransform="matrix(1, 0, 0, 1, 0, 0)" xlink:href="#linear-gradient-36"/>
    <linearGradient id="linear-gradient-59" x1="6069.10348" y1="2019.75735" x2="6041.747" y2="2895.16974" gradientTransform="matrix(-1, 0, 0, 1, 7044.96397, 0)" xlink:href="#linear-gradient"/>
    <linearGradient id="linear-gradient-60" x1="5867.11911" y1="2132.03351" x2="5948.55601" y2="2132.03351" gradientTransform="matrix(-1, 0, 0, 1, 7044.96397, 0)" xlink:href="#linear-gradient"/>
    <linearGradient id="linear-gradient-61" x1="5983.85943" y1="2158.20609" x2="6273.11038" y2="2158.20609" gradientTransform="matrix(-1, 0, 0, 1, 7044.96397, 0)" xlink:href="#linear-gradient"/>
    <linearGradient id="linear-gradient-62" x1="5731.34902" y1="853.24026" x2="5708.42602" y2="1048.68942" gradientTransform="matrix(-0.9939, 0.1103, 0.1103, 0.9939, 6499.98532, 308.6669)" xlink:href="#linear-gradient-14"/>
    <linearGradient id="linear-gradient-63" x1="947.82026" y1="1892.07664" x2="959.40192" y2="2371.55297" gradientTransform="matrix(1, 0, 0, 1, 0, 0)" xlink:href="#linear-gradient-14"/>
    <linearGradient id="linear-gradient-64" x1="1095.21915" y1="2118.5026" x2="914.9811" y2="2115.46256" gradientTransform="matrix(1, 0, 0, 1, 0, 0)" xlink:href="#linear-gradient-36"/>
    <linearGradient id="linear-gradient-65" x1="1020.15899" y1="2065.23644" x2="1007.22349" y2="2479.17493" gradientTransform="matrix(1, 0, 0, 1, 0, 0)" xlink:href="#linear-gradient-36"/>
    <linearGradient id="linear-gradient-66" x1="935.79957" y1="2117.16758" x2="1071.58298" y2="2117.16758" gradientTransform="matrix(1, 0, 0, 1, 0, 0)" xlink:href="#linear-gradient-36"/>
    <linearGradient id="linear-gradient-67" x1="-840.19801" y1="2363.67424" x2="-599.45922" y2="2025.13588" gradientTransform="translate(1611.6691)" xlink:href="#linear-gradient-14"/>
    <linearGradient id="linear-gradient-68" x1="6233.5305" y1="2031.81821" x2="6207.05992" y2="2878.88154" gradientTransform="matrix(-1, 0, 0, 1, 7044.96397, 0)" xlink:href="#linear-gradient"/>
    <linearGradient id="linear-gradient-69" x1="5779.21684" y1="2349.36459" x2="6019.95524" y2="2010.82678" gradientTransform="matrix(-1, 0, 0, 1, 7044.96397, 0)" xlink:href="#linear-gradient-14"/>
  </defs>
  <g class="cls-2">
    <g id="katman_2" data-name="katman 2">
      <g id="Illustration">
        <g>
          <path class="cls-3" d="M2766.138,1183.58828c-75.5287-494.371-385.1964-1101.7411-996.9787-1165.3031,0,0-464.4941-56.4987-922.3831,29.1308-271.7576,50.8208-510.04912,202.1038-660.82992,419.5352-150.78259,217.4313-201.14859,482.5592-140.02309,735.326,39.7005,164.1742,66.5283,334.0884,59.1654,502.787-12.8137,293.6044-5.4415,567.6628,279.49489,742.76,254.41512,156.3428,574.60072,294.2312,880.06222,318.3824,207.5896,16.413,440.388-10.1471,640.4652-64.193C2924.74818,2426.57828,2841.66658,1677.95928,2766.138,1183.58828Z"/>
          <g>
            <path class="cls-4" d="M746.33588,1729.05508c142.2042-23.6241,281.42-60.5973,419.8534-100.2918,66.6024-19.0979,133.2456-37.2835,200.4615-54.0977,63.2089-15.8119,126.3681-32.3192,187.4471-55.1908,7.4491-2.9332,14.8397-5.9989,22.1994-9.1357-34.503-125.7706-25.8842-290.9447-240.7891-273.8665-218.6317,17.3751-355.6845,150.2875-456.1586-159.5242S318.72646,314.14428,85.11947,652.536c-134.0677,194.2052,154.552,375.8529,136.69189,602.7474-16.9706,215.6079,118.737,332.8422,352.99622,363.8117C689.76928,1634.29328,731.77318,1671.89748,746.33588,1729.05508Z"/>
            <g class="cls-5">
              <g class="cls-6">
                <g>
                  <path class="cls-7" d="M807.65648,1451.92808a1959.15473,1959.15473,0,0,0,294.6497,194.8908q2.4102-.67065,4.8192-1.3402c-422.3298-225.4482-765.87182-612.9095-973.90711-1118.6788l-4.5831,1.8826C281.22956,899.66038,516.03068,1218.914,807.65648,1451.92808Z"/>
                  <path class="cls-7" d="M1457.93328,1550.63238c-35.4255-98.3196-58.5353-216.2119-68.7554-351.0209l-4.9396.3764c10.2444,135.098,33.4049,253.3195,68.9143,351.9947Q1455.54463,1551.31058,1457.93328,1550.63238Z"/>
                  <path class="cls-7" d="M767.54908,1417.24618l1.942-4.5567c-197.2639-84.0714-418.17672-38.8571-568.7651,13.8762l1.63888,4.6769C352.12586,1378.797,571.74728,1333.79628,767.54908,1417.24618Z"/>
                  <path class="cls-7" d="M429.38708,1061.44258l4.4489-2.1784c-106.19442-216.976-56.89522-465.7071-18.05862-594.6594l-4.7433-1.4302C371.98876,592.82458,322.44946,842.94648,429.38708,1061.44258Z"/>
                </g>
              </g>
            </g>
          </g>
          <g>
            <path class="cls-8" d="M851.72488,1534.72188q-.62745,3.7188-1.2702,7.4885c2.4058,1.5977,4.8248,3.1831,7.2085,4.8007Q854.62388,1540.92948,851.72488,1534.72188Z"/>
            <path class="cls-9" d="M1084.71948,1574.86258c.7747.4607,1.5416.9329,2.3163,1.3925q3.6567,2.1696,7.3233,4.321C1103.76478,1586.11648,1116.33658,1593.04748,1084.71948,1574.86258Z"/>
            <path class="cls-10" d="M1203.24788,1013.31988c-3.4476-19.9432-59.9611-54.6667-59.6279-199.6201.714-310.3618-248.9399-926.0454-603.0519-685.7414-203.2281,137.9124,6.6921,435.9646-73.0515,658.625-23.8371,66.5592-28.1012,127.9633-16.2511,184.0255,26.6411,126.0405,135.6226,181.369,271.2121,288.445,260.641,205.8297,267.9036,357.8695,347.9176,342.145C1184.61858,1578.75138,1247.22488,1267.754,1203.24788,1013.31988Z"/>
            <g class="cls-5">
              <g class="cls-11">
                <g>
                  <path class="cls-7" d="M1997.38208,1696.85858c-2.9106-7.2325-.0153-4.3008-.5947-7.461-980.9329-225.1021-1274.7129-687.8834-1381.5067-1665.9196-.8342,1.656-5.065-2.9668-3.6309,2.8838,34.2114,391.7223,137.5695,805.0482,363.348,1120.5544C1212.36418,1478.61358,1624.77558,1600.84578,1997.38208,1696.85858Z"/>
                  <path class="cls-7" d="M809.862,1752.78888c184.2456-96.675,568.3466-192.681,774.2167-198.9004.0934-1.7428.1818-3.4861.2871-5.2284-205.8854,6.2238-592.6981,103.0072-776.9981,199.7259C808.19688,1749.855,809.03448,1751.31968,809.862,1752.78888Z"/>
                  <path class="cls-7" d="M1851.87938,1662.56308c.2005-3.5325,1.0568-5.0125,2.0814-4.4219-116.0165-75.3106-169.7115-168.8685-216.6135-306.2071-34.3899-100.7033-48.7881-250.1624-39.1406-363.9214-2.5096-2.482-3.9181-2.53-5.0888-.0414-8.7742,114.2277,4.0269,264.224,39.3071,365.345C1680.78648,1491.92918,1733.99728,1586.53508,1851.87938,1662.56308Z"/>
                  <path class="cls-7" d="M948.13328,1107.33258c.9685-1.3476,1.9234-2.7034,2.8868-4.0559-155.6463-127.3786-351.0109-168.8951-548.28362-160.8792.1326,1.7335.30252,3.4647.435,5.1982C599.16128,939.63048,793.48268,980.79278,948.13328,1107.33258Z"/>
                  <path class="cls-7" d="M725.15318,640.55168c1.6261-.2417,3.2521-.4834,4.8799-.7124-20.1344-208.7227,59.3717-412.7011,178.7354-580.935-1.3525-.9778-2.705-1.9525-4.049-2.9416C784.683,225.13368,704.66028,430.66358,725.15318,640.55168Z"/>
                </g>
              </g>
            </g>
          </g>
          <g>
            <path class="cls-12" d="M2280.73468,495.22878,444.155,443.15728c-61.58652-1.7461-111.72232,40.1711-111.72232,93.6317v1544.4223c0,53.461,50.1358,94.9521,111.72232,92.6834l1836.581-67.6633c53.1212-1.9572,96.0173-43.5524,96.0173-92.913V587.32788C2376.75328,537.96658,2333.85678,496.73508,2280.73468,495.22878Z"/>
            <path class="cls-13" d="M444.15548,2143.11568c-41.891,1.4946-75.94782-26.7512-75.94782-63.0929V537.67368c0-36.3417,34.05632-64.8763,75.94692-63.7371l1836.5809,49.9423c36.1852.9837,65.4413,29.0518,65.4413,62.6935v1427.7608c0,33.6417-29.2557,61.9573-65.4404,63.2485Z"/>
            <path class="cls-14" d="M2280.73548,495.22878l-1836.58-52.0715c-61.58612-1.7461-111.72322,40.1711-111.72322,93.6317v69.4383l2044.32232,45.2138v-64.1136C2376.75458,537.96658,2333.85838,496.73508,2280.73548,495.22878Z"/>
            <path class="cls-15" d="M529.50588,532.557c0,17.3664-14.9318,31.0579-33.3769,30.5799-18.4728-.479-33.4686-14.9848-33.4686-32.3987,0-17.4143,14.9958-31.1039,33.4686-30.5774C514.57408,500.68628,529.50588,515.19018,529.50588,532.557Z"/>
            <path class="cls-15" d="M646.013,535.72728c0,17.2835-14.7895,30.9115-33.0583,30.4379-18.2965-.4744-33.1492-14.9086-33.1492-32.2396,0-17.3306,14.8527-30.9567,33.1492-30.4353C631.22348,504.011,646.013,518.44378,646.013,535.72728Z"/>
            <path class="cls-15" d="M761.41218,538.86758c0,17.2014-14.6496,30.7662-32.7448,30.297-18.1226-.4696-32.8337-14.8334-32.8337-32.0815s14.7111-30.8114,32.8337-30.2947C746.76258,507.304,761.41218,521.66588,761.41218,538.86758Z"/>
            <g class="cls-16">
              <path class="cls-15" d="M1566.84448,1088.94448c-214.51-269.3085-585.8011-183.6238-820.6803-481.18a619.61707,619.61707,0,0,1-90.816-158.6252l-211.1927-5.9878c-61.58662-1.7462-111.72282,40.1711-111.72282,93.632v1544.422c0,53.4605,50.1358,94.952,111.72192,92.6829l1769.3177-65.1849c-40.532-50.436-393.5564-237.2534-484.7515-524.0864C1645.32088,1322.30378,1696.26468,1251.42578,1566.84448,1088.94448Z"/>
            </g>
          </g>
          <g>
            <path class="cls-17" d="M1353.88018,1936.04528a117.64531,117.64531,0,0,1-64.0237-16.5583c-58.4349-35.0294-144.7791-92.8769-222.4608-168.6012-98.5704-96.0904-155.2047-193.7659-167.5964-289.6797l-.1939-1.5033-2.4046-409.2618c0-80.8825,52.7556-146.5374,151.802-189.6795,81.8324-35.6428,190.2945-53.3042,304.8774-49.9877,113.2495,3.2779,218.0426,26.645,295.6067,65.5799,92.2015,46.284,140.5789,111.3279,140.5789,188.4437l-2.1933,391.0525-.1777,1.4377c-11.3237,91.8469-63.4316,186.7852-155.5301,282.7899-73.8722,77.0012-157.3486,138.0247-214.6783,175.8339A121.84988,121.84988,0,0,1,1353.88018,1936.04528Z"/>
            <path class="cls-18" d="M1376.35508,1936.04528a114.90629,114.90629,0,0,1-63.1788-16.5583c-57.6632-35.0294-142.8667-92.8769-219.5215-168.6012-97.2678-96.0904-153.154-193.7659-165.3806-289.6797l-.1924-1.5033-2.3729-409.2618c0-80.8825,52.0585-146.5374,149.7959-189.6795,80.7518-35.6428,187.7801-53.3042,300.8503-49.9877,111.7525,3.2779,215.1614,26.645,291.6996,65.5799,90.9847,46.284,138.7223,111.3279,138.7223,188.4437l-2.1649,391.0525-.1753,1.4377c-11.1733,91.8469-62.5932,186.7852-153.4751,282.7899-72.8963,77.0012-155.2691,138.0247-211.8417,175.8339A119.13709,119.13709,0,0,1,1376.35508,1936.04528Z"/>
            <path class="cls-19" d="M952.73108,1050.73528l2.3887,407.1937c26.8038,207.7612,270.9697,375.9702,377.312,439.8786,30.4639,18.3076,69.4122,17.2222,99.6605-2.6818,104.1226-68.5145,334.9156-241.0019,359.5751-440.7559l2.1905-389.9746C1793.85788,775.06738,952.73108,748.61668,952.73108,1050.73528Z"/>
            <path class="cls-20" d="M1382.389,1835.04348a14.53252,14.53252,0,0,1-7.8796-2.0859c-43.7859-26.515-128.6643-82.054-202.505-154.5845-79.7588-78.3469-125.7597-154.5186-136.3081-226.0598l-2.3398-400.4512c.0968-38.423,30.5125-71.3073,90.1335-97.6197,66.5574-29.3747,161.0771-44.7883,258.8998-42.4651,96.8472,2.2995,188.6088,21.7952,252.1803,53.3409,56.2329,27.9022,84.6616,60.7964,84.7524,97.8907l-2.1802,386.5866c-9.8454,69.2294-53.0199,143.8624-128.8243,222.3159-71.2761,73.7656-154.5364,132.2407-198.0549,160.6765A15.05766,15.05766,0,0,1,1382.389,1835.04348Z"/>
            <path class="cls-21" d="M1372.39788,1807.67168c-44.2195-27.2347-122.85-79.824-191.4541-147.3396-74.9553-73.7676-118.3316-144.5551-128.5285-210.054l-2.322-398.1261c.0691-27.472,25.3215-52.6719,74.8644-74.6069,63.0497-27.9179,153.3839-42.629,247.4378-40.5175,93.1527,2.0914,180.9551,20.4898,241.2933,50.344,46.8825,23.1957,70.5996,48.4982,70.6639,75.2917l-2.1754,385.1652c-9.5674,63.5493-50.481,133.05-122.0273,206.961C1493.72488,1723.411,1416.416,1778.59088,1372.39788,1807.67168Z"/>
            <g>
              <path class="cls-15" d="M1530.61818,1286.41688l-297.7656,2.6486c-22.8904.2038-41.5397,18.0481-41.5397,39.8445v190.7815c0,21.6684,18.5797,38.4637,41.3872,37.5296l296.7146-12.1497c21.1048-.8638,38.2204-18.3348,38.3282-39.0379l.9428-182.2534C1568.79348,1302.96208,1551.79518,1286.22848,1530.61818,1286.41688Z"/>
              <path class="cls-22" d="M1422.47838,1395.81768c.0664-21.0708-18.0185-37.727-40.1004-36.3308-19.5514,1.2347-35.7692,17.024-36.8664,35.9722a35.865,35.865,0,0,0,19.1998,33.8927,13.29409,13.29409,0,0,1,6.673,14.1924l-8.6056,48.1945a9.68821,9.68821,0,0,0,10.1784,11.3068l21.7833-.7646c6.3685-.2224,11.2132-5.9297,10.161-11.9593l-8.3267-47.7368c-.9946-5.7001,1.9428-11.351,7.1062-14.4562A38.06409,38.06409,0,0,0,1422.47838,1395.81768Z"/>
              <path class="cls-15" d="M1526.43578,1267.49348a15.88639,15.88639,0,0,1-16.1356-15.8707l.1809-41.5582c.1824-41.7395-34.324-76.077-77.3302-76.5039l-97.1917-.9645c-44.5082-.4424-81.1037,34.2639-81.1412,77.3238l-.0375,42.8712c-.0079,9.1028-7.758,16.5322-17.3301,16.5946-9.5942.0624-17.3845-7.2947-17.3806-16.4359l.0166-43.05c.0241-61.5405,52.4337-110.9575,115.9368-110.0751l97.2347,1.3516c61.0847.8488,109.8792,49.7384,109.594,108.906l-.199,41.3931A16.24469,16.24469,0,0,1,1526.43578,1267.49348Z"/>
            </g>
          </g>
          <g>
            <path class="cls-23" d="M2088.60628,2713.85478s-69.4435,35.2884-70.5774,40.9211c-1.1343,5.6331,44.6594-1.8886,63.3528-1.0758,18.6951.8127,34.0732-5.3649,32.3817-14.2176-1.6929-8.8547-8.2361-31.121-8.2361-31.121Z"/>
            <path class="cls-24" d="M2086.06558,2685.21678l4.2242,34.9575s10.9942,4.3759,18.379-.7979l3.1505-38.3402Z"/>
            <path class="cls-25" d="M2413.10018,2686.05488l8.0781,14.4989a19.04958,19.04958,0,0,1,1.8483,13.5556c-2.8238,12.0573-8.4653,35.5525-10.9255,41.6801-3.3496,8.3446-48.2886,13.3022-48.2886,13.3022s-4.0081-6.3047,5.3229-13.9204c9.3293-7.6158,15.3273-8.8133,18.6201-20.0524,3.2924-11.2374,5.4894-43.0258,5.4894-43.0258Z"/>
            <path class="cls-26" d="M2379.47908,2649.21258c2.9513,2.6288,17.3841,51.6111,17.3841,51.6111s4.6721,6.6789,13.5472-3.1784c8.8742-9.8582,4.0161-4.4221,4.0161-4.4221l-1.664-48.1751Z"/>
            <path class="cls-27" d="M2047.858,1982.892c-3.664,104.2785-3.8127,217.5725,1.5539,338.6046,6.0407,136.2916,18.1836,262.2586,33.485,376.4482,5.6887.2034,11.6658.2365,17.91.0411,4.217-.1313,8.3026-.3614,12.2505-.6656a943.35012,943.35012,0,0,0,25.7321-92.0069,979.66912,979.66912,0,0,0,17.965-107.732c13.3726-118.1101-2.2988-128.414,8.5534-215.9454,9.6116-77.5211,23.2804-80.5482,39.3267-190.6116,17.4099-119.422,4.4496-137.3391-1.853-143.8103C2175.95038,1919.66038,2112.92518,1938.41858,2047.858,1982.892Z"/>
            <path class="cls-28" d="M2202.78158,1947.21488c-25.5913-26.282-84.1157-10.3713-145.9286,29.7393,71.1105,85.9,78.8627,141.6243,70.3376,177.7797-9.634,40.8648-38.9262,52.6345-38.8148,97.3179.1382,54.9116,44.4615,69.4571,43.5204,127.5645-.6242,38.4232-20.1007,38.0241-24.7007,85.4809-5.442,56.1514,20.0032,75.4995,11.7616,117.0444-3.5458,17.873-13.6654,41.2275-42.4882,65.2866,2.0776,17.0604,4.209,33.9487,6.4297,50.5183,5.6861.2005,11.6641.2356,17.9083.0373,4.217-.1292,8.303-.3589,12.2501-.6635a943.21639,943.21639,0,0,0,25.7325-92.0056,979.72437,979.72437,0,0,0,17.965-107.7333c13.3717-118.1096-2.2988-128.414,8.5534-215.9454,9.6116-77.5211,23.2804-80.5499,39.3259-190.6124C2222.04318,1971.60078,2209.08418,1953.68488,2202.78158,1947.21488Z"/>
            <path class="cls-29" d="M2091.90468,1981.14108a2434.66636,2434.66636,0,0,1,186.3311,374.0499,2529.30965,2529.30965,0,0,1,100.7696,312.9989,33.99523,33.99523,0,0,0,20.4972,3.553c13.2218-1.9547,21.1469-11.3916,23.2176-14.0256a753.18728,753.18728,0,0,0,5.3238-166.2745c-2.1025-26.4723-5.8221-70.5558-20.9137-124.9767-16.9036-60.9608-28.5249-64.3871-50.5772-128.8805-22.8897-66.9426-17.3451-83.6474-39.2653-167.4212a1191.39424,1191.39424,0,0,0-48.9513-146.8874Q2180.11968,1952.20808,2091.90468,1981.14108Z"/>
            <path class="cls-30" d="M2075.61,1545.91468c-67.6079-44.1559-96.5781-39.0648-116.1783-78.7224-19.3858-39.227-19.3425-101.4645,12.7387-134.4352,2.3551-2.4216,26.7914-26.7537,59.8595-22.5854,50.0149,6.3085,53.6976,69.4914,109.7973,98.437,47.5348,24.5286,99.3734,7.2772,134.4551-4.3992,84.478-28.1147,97.0226-81.2953,140.8226-72.8185,54.8845,10.6209,59.7392,98.8696,114.4177,104.3065,36.5453,3.6327,45.2509-34.705,93.295-45.2627,56.4544-12.4086,118.402,24.2744,153.1443,68.8803,63.5011,81.5314,46.7742,203.2228,7.0412,277.5062-32.641,61.0269-102.8235,131.2229-161.9457,116.1215-46.7072-11.9298-61.9142-70.8066-102.0963-64.9477-28.5686,4.1678-29.6025,35.2012-63.3702,51.1726-55.4514,26.2295-123.9088-23.7613-142.5827-37.3983-53.2247-38.8682-44.7475-63.7256-113.3779-141.6476C2174.52068,1629.34348,2135.48008,1585.01388,2075.61,1545.91468Z"/>
            <path class="cls-31" d="M1591.38568,1374.16678s-11.4251-15.9866-18.6748-27.8655c-7.2496-11.8798-41.0919-45.2568-41.0919-45.2568s-2.5784,5.2962,4.7068,13.7717c7.2848,8.4747,22.6164,22.999,19.0913,29.1431-3.525,6.145-13.4488,11.5616-6.2873,23.1647,7.1619,11.6022,19.615,3.6788,25.9816,12.9853,6.3657,9.306,12.8874,19.4582,12.8874,19.4582Z"/>
            <path class="cls-15" d="M1595.84508,1363.73538q-11.5584,19.5549-23.1189,39.1038a419.82616,419.82616,0,0,0,46.0793,100.9768c10.6865,16.9337,43.8199,66.6108,99.9171,106.5608,76.3643,54.3806,215.4881,105.1163,256.2144,47.2467,36.341-51.637-22.3151-166.0936-33.1169-186.6426a269.35989,269.35989,0,0,1-103.965,30.2567c-15.1336,1.1788-54.5243,3.8627-98.9006-11.3789C1656.82528,1461.65078,1611.23,1390.45728,1595.84508,1363.73538Z"/>
            <path class="cls-15" d="M1852.72218,1538.44768c3.8428,19.3104,63.9049,8.9543,76.3008,44.006,6.6513,18.8086-7.4709,30.7558-8.0628,62.6993-.6632,35.7605,16.3819,56.0692,29.4575,84.2008,19.1497,41.2034,19.2209,81.5949,19.3637,162.3707.2017,114.9855-25.2231,138.1069-3.5208,175.1658,28.249,48.2377,96.084,51.317,114.4181,52.153,62.7044,2.8484,70.1431-30.4617,138.1815-34.4402,77.705-4.5432,88.772,37.6924,144.3433,19.6795,50.7658-16.4565,67.8482-60.232,107.3774-51.1675,24.7062,5.6619,31.2575,25.7965,54.5683,23.6172,23.4236-2.1911,47.6374-25.4045,49.2878-49.2068,2.0517-29.5855-30.2893-66.8562-80.9728-66.9147-20.1396,7.9052-53.5247,17.0671-90.6547,6.8903-60.835-16.6747-92.4768-74.5134-127.62-138.7526-24.3125-44.4386-68.9985-126.1199-69.5312-233.2231-.2199-44.1678,7.2459-57.0896-3.5203-80.6953-34.9597-76.6588-170.5933-65.2193-182.0785-64.1121C1927.64028,1459.62658,1848.08148,1515.13008,1852.72218,1538.44768Z"/>
            <g>
              <path class="cls-32" d="M1822.421,1634.92488l170.3628,7.434a4.67644,4.67644,0,0,1,4.1436,3.3916l80.2547,248.9249c1.1512,3.5708-2.4573,12.5018-5.8323,12.0963l-168.4347-25.6189a4.7106,4.7106,0,0,1-3.7971-3.264l-83.4966-232.3447C1814.43748,1642.09868,1819.12268,1634.78088,1822.421,1634.92488Z"/>
              <path class="cls-33" d="M1819.77778,1641.01738l170.3623,7.4335a4.67824,4.67824,0,0,1,4.1441,3.3916l80.2542,248.9253c1.1513,3.5704-1.439,7.2556-4.8136,6.8505l-169.4526-20.3739a4.70824,4.70824,0,0,1-3.7979-3.264l-81.1639-235.9854C1814.12518,1644.55,1816.479,1640.87328,1819.77778,1641.01738Z"/>
              <path class="cls-34" d="M1866.363,1650.28818l-6.5649-19.8442a2.71836,2.71836,0,0,1,2.3013-3.6954h62.0121a2.49907,2.49907,0,0,1,2.3385,1.9136l6.2349,21.9493a2.69472,2.69472,0,0,1-2.4132,3.5725l-61.682-2.1055A2.49235,2.49235,0,0,1,1866.363,1650.28818Z"/>
              <path class="cls-35" d="M1971.23348,1847.36048c-11.0662-40.1194,7.1459-66.2451-11.442-97.4225-26.2918-44.0975-82.7754-25.4334-100.3358-61.0155-4.7356-9.5946-7.0009-23.8939-.6123-46.2026l-39.0656-1.7013c-3.2988-.1436-5.6526,3.5289-4.4674,6.9768l81.1639,235.9854a4.7084,4.7084,0,0,0,3.7979,3.2636l102.9858,12.3857C1984.915,1881.74348,1975.73018,1863.66748,1971.23348,1847.36048Z"/>
            </g>
            <path class="cls-36" d="M2095.64068,1817.54878s-25.7435-5.7263-35.6724-12.712c-9.9293-6.9912-20.4578-18.2171-35.0961-17.6057-14.6378.6166-29.3689,8.9349-22.6066,10.8467,6.7628,1.9077,19.3934,16.9057,29.0435,22.8113,9.6497,5.9051,31.7004,6.4378,35.8068,6.1166,4.1059-.3216,20.3163,10.578,20.3163,10.578Z"/>
            <path class="cls-37" d="M2493.46418,1960.61078c-20.1396,7.9052-53.5247,17.0671-90.6547,6.8903-60.835-16.6747-92.4772-74.5134-127.62-138.7526-24.3129-44.4386-68.9985-126.1199-69.5312-233.2231-.2199-44.1678,7.2459-57.0896-3.5199-80.6953a82.09242,82.09242,0,0,0-5.9026-10.5865c-26.5571,20.0713-36.8555,40.1715-39.8652,57.8213-7.3247,42.9572,27.2146,78.083,9.2416,115.1355-17.2155,35.4893-59.7773,25.6706-68.6511,56.092-9.5734,32.8194,37.53,52.6137,39.6063,103.3265,2.4928,60.8604-62.9591,90.6649-51.4878,131.3729,9.9425,35.2813,64.7172,32.7389,64.69,51.6632-.0326,22.4986,1.6933-23.957-64.69-51.6632-20.1184-8.3954-114.8037,61.4888-126.311,49.2238-2.478,19.8294-2.031,33.4143,7.492,49.6747,28.249,48.2377,96.084,51.317,114.4181,52.153,62.7044,2.8484,70.1431-30.4617,138.1815-34.4402,77.705-4.5432,88.7716,37.6924,144.3433,19.6795,50.7658-16.4565,67.8482-60.232,107.3774-51.1675,24.7062,5.6619,31.2575,25.7965,54.5683,23.6172,23.4236-2.1911,47.6374-25.4045,49.2878-49.2068C2576.48868,1997.94,2544.14728,1960.66928,2493.46418,1960.61078Z"/>
            <path class="cls-15" d="M2094.981,1805.62068q-11.88255,23.6202-23.7634,47.2352c12.212,6.6887,142.7781,75.7597,237.4172,7.381,11.7018-8.453,42.7996-30.9232,59.5616-74.924,18.4748-48.4971,8.1115-93.5874,1.3886-122.8733-16.6417-72.496-63.7058-148.5438-130.4814-179.0975-25.5062-11.6709-55.7891-17.5752-84.2737-23.1278-24.1558-4.7106-62.1206-10.4823-62.9295-6.3941-.3949,1.9949,8.4272,4.5432,14.5531,8.4183,37.6263,23.7956-10.1458,122.0724,34.0745,169.2029,42.361,45.1479,97.3396,37.6928,106.1998,78.6084,4.1195,19.0223-4.4068,36.1351-8.206,43.7581C2217.32708,1796.34348,2160.27528,1815.38218,2094.981,1805.62068Z"/>
            <path class="cls-38" d="M2006.361,1380.03638s15.3336,49.8395,34.4309,57.6027c19.0972,7.7564,49.2865,16.6641,53.0763,20.118,3.7882,3.4458-101.4599,41.6584-160.4727,24.0714h0c16.8154-8.2263,21.3133-10.856,21.3133-10.856a100.7078,100.7078,0,0,0,20.7235-15.304c5.3492-5.2929,13.723-15.1476,20.0252-31.5228l-5.5157-28.2956Z"/>
            <path class="cls-39" d="M2013.24578,1401.79418s-8.8886,22.088-29.9638,18.6977c-18.8727-3.0348-17.9116-56.1124-5.0903-65.1494,4.275-3.0127,12.9522-4.1598,19.3913-1.5246,4.5288,1.8517,18.0078,14.1946,15.0035,32.2762,4.1589-2.4738,8.3009-2.0865,9.737.1377,1.8246,2.8187-1.1314,7.9348-1.8001,9.0929A15.51712,15.51712,0,0,1,2013.24578,1401.79418Z"/>
          </g>
          <g>
            <path class="cls-40" d="M951.90568,1276.76428s9.1204-30.8359,24.7555-31.7045,74.701-25.1899,67.7521-11.292-31.3481,19.3582-31.3481,19.3582,11.8076,27.2581-14.6229,34.0617S916.627,1325.83408,951.90568,1276.76428Z"/>
            <path class="cls-41" d="M948.68008,1266.55578q10.8744,24.20055,21.7489,48.3927a452.40324,452.40324,0,0,1-75.9549,103.4095c-16.4331,16.738-66.8699,65.4801-144.2153,98.6757-105.2879,45.1867-288.2954,73.5113-328.6151.5673-35.97842-65.0868,58.1416-180.9904,75.3783-201.744,25.2158,17.2574-2.8769-23.0233,124.335,54.9843,16.3656,10.0355,67.395,15.4248,125.5977,7.4418C854.67268,1363.509,924.59528,1293.27168,948.68008,1266.55578Z"/>
            <path class="cls-42" d="M500.473,2711.71688s-4.2726,26.1547-3.7284,35.4621c.5424,9.3086,103.8361,14.0669,104.8796,7.0933s-17.0738-18.061-29.8248-21.974c-12.7521-3.914-50.0734-14.3583-50.0734-14.3583Z"/>
            <path class="cls-43" d="M525.54518,2685.64248l-3.2944,32.5211s-11.9987,7.9291-22.5702,1.8087l-5.29-35.3986Z"/>
            <path class="cls-44" d="M316.17976,2754.11548s-4.2737,26.1536-3.7303,35.4621,103.8379,14.0668,104.88052,7.0933c1.0437-6.9726-17.07372-18.0611-29.82492-21.9751-12.7509-3.913-50.0725-14.3582-50.0725-14.3582Z"/>
            <path class="cls-45" d="M341.25186,2728.04088l-3.2952,32.5213s-11.9978,7.9299-22.5703,1.8086l-5.289-35.3986Z"/>
            <path class="cls-46" d="M506.80148,1836.63608q17.9088,36.30885,35.8196,72.6169c9.6018,138.139,14.3744,288.3483,11.3092,448.9883-2.2797,119.5155-8.6681,232.7328-17.8424,339.0073q-24.28185-1.1118-48.5655-2.2287c-23.4087-46.4586-51.042-116.8449-53.5851-203.7302-2.6533-90.6299,24.8235-102.6625,23.0811-189.4385-2.2592-112.4702-49.42162-142.4778-74.54832-277.7637-9.6089-51.7373-16.0785-119.3131-8.3886-201.2976Q440.44254,1829.71028,506.80148,1836.63608Z"/>
            <path class="cls-47" d="M374.08146,1822.78988q35.83815,3.73665,71.67742,7.4799c43.0081,74.8433,55.0161,152.7435,47.4683,187.2002-10.677,48.7518-38.922,64.3687-37.3698,113.3154,1.5361,48.4315,30.0704,60.9902,48.1716,118.0734,12.5297,39.5225,9.2233,75.8609,2.0947,146.9255-14.3561,143.1461-48.9225,186.9222-19.9688,233.8546,8.228,13.3349,23.0508,29.2159,52.0942,41.3413-.7109,8.7779-1.4107,17.5841-2.1612,26.2684q-24.28155-1.10775-48.5653-2.2268c-23.4093-46.4644-51.0422-116.846-53.5853-203.7321-2.6535-90.6309,24.8231-102.6655,23.0809-189.4395-2.2592-112.4702-49.4212-142.475-74.54792-277.7617C372.86116,1972.35108,366.39156,1904.77538,374.08146,1822.78988Z"/>
            <path class="cls-48" d="M442.56768,1880.21418c-22.4126,122.2154-42.209,253.0168-57.65562,391.736-18.6495,167.4926-28.6028,325.3967-32.5164,472.004q-26.65185.75855-53.3042,1.5097c-70.0161-138.5109-74.294-232.4194-64.1987-293.5603,3.89-23.5601,14.4558-69.7576,16.8679-138.8002,1.6802-48.1279-1.3896-84.7552-5.225-128.7849-8.4076-96.5371-18.61268-117.6114-20.07868-191.4526-1.37812-69.2991-1.66212-104.3642,18.12-124.8319C296.69506,1814.113,432.28168,1875.44158,442.56768,1880.21418Z"/>
            <path class="cls-49" d="M556.21968,1934.03658c17.0241-28.2476-4.3585-55.4917-9.2257-109.0097-5.5158-60.6556,17.8498-70.7557,40.9587-171.2762,15.3672-66.8529,30.1197-131.0325,12.5114-206.1585-8.4384-36.005-22.7509-97.0725-73.2909-126.5691-26.081-15.2212-61.6914-13.6994-131.84682-10.0282-86.7559,4.5364-130.1326,6.8037-162.4828,23.8389-4.7352,2.4945-103.15209,56.0265-109.92629,143.2851-6.8961,88.8098,89.82319,100.7475,102.72271,219.1805,5.79078,53.1658-4.53172,134.9367-11.22552,187.9737-6.42748,50.9248-10.8508,63.9638-.8012,79.3813,24.2216,37.1617,98.3763,26.5685,246.68752,5.3912C518.47688,1961.73708,543.51618,1955.11578,556.21968,1934.03658Z"/>
            <path class="cls-50" d="M330.56386,1678.24838c-6.2714,23.0829-28.8254,40.3239-44.526,96.4702-3.3895,12.1234-27.5322,98.4486,3.7844,119.6982,18.09,12.2712,34.328-10.9793,78.2298-14.0156,76.07572-5.2624,112.31632,58.6754,162.01062,41.2159,8.6214-3.0338,20.005-9.4915,31.3697-24.3334,2.2628,13.3747,1.8745,24.9902-5.2127,36.7529-12.7035,21.0792-37.7428,27.7005-95.9189,36.009-148.31122,21.1773-222.46592,31.7705-246.68752-5.3912-10.0496-15.4175-5.62628-28.4565.8012-79.3813,6.6938-53.037,17.0163-134.8079,11.22552-187.9737-12.89952-118.433-109.61881-130.3707-102.72271-219.1805,1.843-23.7419,10.5769-44.8829,22.25529-63.2831C267.86626,1464.48478,350.27556,1605.71218,330.56386,1678.24838Z"/>
            <path class="cls-51" d="M175.59466,1852.94528l24.5477,15.6737c4.4079-5.0894,14.612-15.3581,30.545-18.8643,17.9509-3.9451,38.5565,1.7135,39.036,7.4424.3842,4.59-12.163,9.2188-14.1025,9.9356-15.6617,5.7798-27.2825.9794-33.6148,7.2755-2.2389,2.2268-5.0303,6.3675-11.448,10.2045a34.94654,34.94654,0,0,1-4.3824,2.2618c-10.4533,4.0645-28.3853-14.1342-29.92768-15.7234Z"/>
            <path class="cls-52" d="M248.11876,1530.986c17.7578-42.5312,30.0608-107.6487,2.0128-204.3538C65.31887,1399.45488-28.93583,1572.09168,7.867,1708.94468c30.33809,112.8179,140.71438,167.7695,165.33578,179.3302q8.5932-19.5615,17.1875-39.118c-28.5339-31.7746-60.68739-78.7568-56.1394-132.3702C140.55376,1642.45958,212.16666,1617.09128,248.11876,1530.986Z"/>
            <path class="cls-53" d="M390.78406,1223.50018s-1.4593,32.3296-11.4955,56.5401c-9.0689,21.8813-56.7702,35.6364-66.43858,40.5202-9.67032,4.8839,18.11478,19.1612,46.01778,21.9667,27.901,2.8056,107.58472-3.5302,121.94872-14.1078,14.3641-10.5768-11.5423-9.7815-31.4588-17.0935-19.9149-7.3104-31.4305-46.2599-27.9151-63.938C424.95688,1229.70768,390.78406,1223.50018,390.78406,1223.50018Z"/>
            <path class="cls-54" d="M434.91448,1211.77888c14.478-14.2247,16.4987-15.8861,18.0764-20.803,6.3273-19.7345-8.9788-46.76-29.0552-53.4137-1.0446-.3448-14.5077-4.6554-19.64722,1.1866-4.3648,4.9598,2.0563,11.8111-.9967,21.371-2.85978,8.9502-10.61878,9.6205-24.9984,21.3578-11.8462,9.6654-19.2077,15.6749-20.906,24.1277-3.50138,17.427,17.5939,42.6828,36.2691,41.9958C400.37246,1247.35368,402.19906,1243.92328,434.91448,1211.77888Z"/>
            <path class="cls-55" d="M395.48416,1250.29278s15.3895,17.4255,38.83352,11.6646c20.9904-5.157,15.6344-53.3328.2731-61.0294-5.1239-2.5662-14.4359-2.354-21.43822,1.0202-4.1374,1.9938-5.2868,4.0643-12.1085,7.1912-6.2916,2.882-8.2864,2.4825-9.978,4.5132-2.1182,2.5378-3.0288,8.0001,3.605,21.1846-4.7813-3.3837-9.92408-4.0922-13.08008-1.854a7.36163,7.36163,0,0,0-2.33872,3.2581C377.251,1242.20978,383.453,1248.27328,395.48416,1250.29278Z"/>
          </g>
          <g>
            <path class="cls-56" d="M2045.96188,563.59628c24.1203,12.2463,54.4239,1.0017,67.6834-25.1156,13.2608-26.1171,4.4565-57.2172-19.6638-69.4634-1.2488-.6348-2.5246-1.1676-3.8033-1.6779a305.98249,305.98249,0,0,0,10.1257-43.5866c1.3822-.0038,2.7696-.0273,4.1795-.1528,27.5185-2.4535,49.3591-27.7401,48.7839-56.4824-.5766-28.7418-23.3522-50.0537-50.8713-47.6004-1.4385.1292-2.8511.3556-4.2562.6055a280.44433,280.44433,0,0,0-11.7817-41.6232c1.2659-.7407,2.5255-1.5062,3.7561-2.3681,23.5429-16.4942,31.0711-49.0501,16.8123-72.7141-14.2584-23.6646-44.9037-29.4757-68.4473-12.9817-1.2066.8456-2.3414,1.7585-3.4632,2.685a248.52584,248.52584,0,0,0-30.533-28.5011c.7759-1.2724,1.5353-2.5609,2.2223-3.914,13.2603-26.1171,30.5885-54.6461,6.2794-66.5131-56.2346-27.4523-80.3656-3.9521-93.6263,22.1652-.6868,1.3531-1.2789,2.727-1.8484,4.1033a248.65019,248.65019,0,0,0-41.0272-7.8316c.0864-1.452.1528-2.9066.1243-4.3803-.5768-28.7404,7.9513-44.294-19.6716-44.8312-60.236-1.1711-80.5592,24.9739-79.9832,53.7141.0301,1.5029.1561,2.9713.3041,4.4304a280.46959,280.46959,0,0,0-40.5559,15.05c-.6271-1.282-1.2781-2.5562-2.0228-3.794-14.2586-23.664-44.9031-29.4752-68.4475-12.9796-23.5445,16.4954-31.0712,49.05-16.8128,72.7141.7299,1.2127,1.5308,2.346,2.343,3.4646a305.835,305.835,0,0,0-29.2132,33.8959c-1.1664-.7321-2.3503-1.4475-3.5999-2.0817-24.1199-12.2462-54.4229-1.0015-67.683,25.1155-13.2606,26.1174-4.4568,57.2172,19.6634,69.4634,1.2496.6349,2.5254,1.1678,3.8043,1.6782a305.90324,305.90324,0,0,0-10.1257,43.5863c-1.383.0043-2.7702.0271-4.1785.1518-27.5205,2.4543-49.3609,27.7411-48.7849,56.4836.5762,28.7418,23.3528,50.0519,50.8715,47.5986,1.4375-.128,2.8509-.3542,4.255-.6045a280.5142,280.5142,0,0,0,11.7818,41.6238c-1.2652.7407-2.5252,1.5062-3.7556,2.3679-23.5438,16.4942-31.0707,49.0503-16.8123,72.7145,14.2586,23.6649,61.4636,34.6586,85.0069,18.164,1.2066-.8456-14.2184-6.9407-13.0968-7.8673a248.66732,248.66732,0,0,0,30.5328,28.5017c-.7749,1.2718-1.5353,2.5603-2.2215,3.9134-13.2607,26.1171-4.4569,57.2172,19.6632,69.4629,24.1202,12.2466,54.4234,1.0021,67.6837-25.1147.687-1.3531,1.2789-2.727,1.8477-4.1038a248.60767,248.60767,0,0,0,41.0275,7.8316c-.086,1.4522-.1528,2.9072-.1237,4.3806.5762,28.7405,23.352,50.0518,50.8709,47.5989,27.5189-2.4533,49.3603-27.7415,48.7835-56.4826-.0302-1.5019-.1557-2.9706-.3047-4.4295a280.39163,280.39163,0,0,0,40.5565-15.0499c.6271,1.2817,1.2781,2.5559,2.023,3.7923,14.2588,23.6638,44.9032,29.4769,68.4471,12.9813,23.5444-16.4961,31.0718-49.0505,16.8134-72.716-.7307-1.2108-1.5308-2.3448-2.3432-3.4629a305.90612,305.90612,0,0,0,29.2128-33.8958C2043.52938,562.247,2044.71248,562.96238,2045.96188,563.59628Zm-300.682,3.8157c-87.5749-44.4643-119.5394-157.3809-71.3938-252.2066,48.1449-94.8266,158.168-135.6527,245.743-91.1887,87.5755,44.4635,119.54,157.3798,71.3952,252.2058C1942.87828,571.049,1832.85548,611.87548,1745.27988,567.412Z"/>
            <path class="cls-57" d="M2104.48338,423.60018c27.5185-2.4541,49.3591-27.7415,48.7839-56.4831-.5766-28.7413-23.3522-50.0534-50.8713-47.5995-1.4383.128-2.8511.3561-4.2562.6051a280.34774,280.34774,0,0,0-11.7817-41.6232c1.2659-.7396,2.5255-1.5062,3.7561-2.3687,23.5429-16.4942,52.6709-56.35,36.061-78.4263-31.5264-41.8996-64.1524-23.7629-87.696-7.2689-1.2066.8456-2.3414,1.7579-3.4624,2.6838a248.64946,248.64946,0,0,0-30.5338-28.5007c.7759-1.2718,1.5353-2.5601,2.2223-3.9125a54.795,54.795,0,0,0,3.0875-43.2091q-34.11075,60.03675-67.2065,120.6285c69.8644,51.1954,92.1069,152.0847,48.437,238.0977-37.0059,72.8875-110.5683,113.8147-182.3958,108.6864-3.2039,8.3092-6.3495,16.664-9.7813,24.8931-9.3104,22.3325-19.888,44.2046-30.4792,66.0484q9.99195,1.88385,20.0598,2.9465c-.086,1.453-.1528,2.908-.1237,4.3803.5762,28.7416,18.0262,53.161,67.8999,50.5157,27.5894-1.4632,32.3309-30.6568,31.7545-59.399-.0302-1.5012-.1555-2.9699-.3043-4.4288a280.4421,280.4421,0,0,0,40.5561-15.0504c.6271,1.2822,1.2781,2.5558,2.0234,3.7921,14.2586,23.6653,63.7224,33.7199,87.2664,17.2243,23.5448-16.4956,12.2521-53.2928-2.0063-76.9575-.7307-1.2122-1.5308-2.3456-2.3432-3.4645a305.81266,305.81266,0,0,0,29.2128-33.895c1.167.7323,2.3501,1.4477,3.5995,2.0805,24.1203,12.2476,54.4239,1.0018,67.6842-25.1159,13.26-26.1159,4.4564-57.2172-19.6638-69.4626-1.2496-.635-2.5254-1.1678-3.8041-1.6775a306.03278,306.03278,0,0,0,10.1257-43.5861C2101.68608,423.749,2103.07348,423.72508,2104.48338,423.60018Z"/>
            <path class="cls-58" d="M2071.90468,566.54638c24.1202,12.2464,54.4233,1.0019,67.6841-25.116,13.2599-26.1171,4.4561-57.2167-19.6647-69.4633-1.2493-.6343-2.5246-1.1676-3.8039-1.6778a305.754,305.754,0,0,0,10.1255-43.5868c1.3831-.0035,2.7706-.0266,4.18-.1526,27.5189-2.453,49.3594-27.7402,48.7834-56.482-.5759-28.7424-23.3513-50.0534-50.8705-47.6004-1.4383.1289-2.8509.3557-4.2561.6056a280.45611,280.45611,0,0,0-11.7819-41.6234c1.2661-.7407,2.5256-1.506,3.7562-2.3679,23.5432-16.4942,31.0709-49.0503,16.8125-72.7149-14.2587-23.6641-44.9035-29.4759-68.4475-12.9811-1.2063.8456-2.3414,1.7584-3.4631,2.6843a248.59084,248.59084,0,0,0-30.5331-28.5006c.7759-1.272,1.5353-2.5611,2.2227-3.9136,13.2602-26.1171,4.4564-57.2174-19.6636-69.4635-24.1206-12.2466-54.4231-1.0018-67.6837,25.1153-.6868,1.3531-1.2791,2.727-1.8485,4.1038a248.62429,248.62429,0,0,0-41.0263-7.8321c.0858-1.4523.1521-2.9067.1235-4.3799-.5769-28.7409-23.3522-50.052-50.8717-47.5987-27.5185,2.4525-49.3597,27.7413-48.7837,56.4816.0306,1.5023.1559,2.9706.3047,4.4294a280.55568,280.55568,0,0,0-40.5561,15.0506c-.6269-1.2819-1.2778-2.5559-2.0224-3.7939-14.2579-23.664-44.9039-29.4759-68.4477-12.9803-23.5444,16.4962-31.0705,49.0509-16.8128,72.7147.7309,1.2121,1.5307,2.3463,2.3435,3.4646a305.80046,305.80046,0,0,0-29.2134,33.8958c-1.167-.7319-2.3502-1.4471-3.5999-2.0812-24.1204-12.2469-54.423-1.0019-67.6833,25.115-13.2605,26.1173-4.4565,57.2178,19.6635,69.4637,1.2501.6347,2.525,1.1675,3.8045,1.6778a305.79336,305.79336,0,0,0-10.1257,43.5867c-1.3823.0041-2.7704.0273-4.1796.1515-27.5185,2.4547-49.3602,27.7414-48.7839,56.4836.576,28.7418,23.3526,50.0516,50.8714,47.599,1.4374-.1278,2.8507-.3543,4.2549-.6045a280.543,280.543,0,0,0,11.7819,41.6236c-1.2653.74-2.5254,1.5053-3.7554,2.3683-23.5438,16.4937-31.0707,49.0502-16.8126,72.7139,14.2584,23.6648,44.9038,29.4763,68.4468,12.9821,1.2067-.8462,2.3419-1.7583,3.4631-2.685a248.68085,248.68085,0,0,0,30.5331,28.5013c-.7751,1.272-1.5353,2.5604-2.2222,3.9137-13.2601,26.1169-4.4565,57.2164,19.6639,69.4634,24.1201,12.2459,54.4233,1.0019,67.6834-25.1158.6871-1.3525,1.2785-2.7268,1.848-4.1031a248.69865,248.69865,0,0,0,41.0275,7.8314c-.0856,1.452-.1533,2.907-.1242,4.3803.5772,28.7404,23.3525,50.052,50.8712,47.5989,27.5189-2.453,49.3604-27.7414,48.7837-56.482-.03-1.5021-.1556-2.9709-.3047-4.4298a280.36627,280.36627,0,0,0,40.556-15.0502c.6273,1.2816,1.2791,2.5562,2.0239,3.7917,14.2583,23.6649,44.9031,29.4777,68.4469,12.9821,23.5442-16.4956,31.0711-49.05,16.8133-72.7155-.731-1.2113-1.531-2.3455-2.344-3.4636a305.85456,305.85456,0,0,0,29.2136-33.8959C2069.472,565.19638,2070.65508,565.91168,2071.90468,566.54638Zm-300.6815,3.8149c-87.575-44.4641-119.5402-157.3796-71.3945-252.2062,48.1464-94.8261,158.168-135.6524,245.7432-91.1885,87.5754,44.4641,119.5396,157.3803,71.3949,252.2062C1968.821,573.99958,1858.79848,614.82508,1771.22318,570.36128Z"/>
          </g>
          <g>
            <path class="cls-59" d="M2486.38068,913.00988c16.7326,8.4955,37.7546.695,46.9529-17.423,9.1992-18.1178,3.0916-39.6923-13.641-48.1876-.8663-.4405-1.7514-.81-2.6385-1.1641a212.24535,212.24535,0,0,0,7.0244-30.2365c.9589-.0027,1.9213-.019,2.8994-.1061,19.09-1.702,34.241-19.2436,33.8421-39.1826-.4-19.9386-16.1998-34.7229-35.2902-33.021-.9979.0896-1.9778.2467-2.9525.42a194.54953,194.54953,0,0,0-8.1732-28.8746c.8782-.5138,1.752-1.0448,2.6056-1.6427,16.3321-11.4423,21.5545-34.0268,11.663-50.4428-9.8912-16.4165-31.1504-20.4477-47.4829-9.0056-.837.5866-1.6242,1.2199-2.4024,1.8626a172.4126,172.4126,0,0,0-21.1812-19.7716c.5383-.8826,1.0651-1.7765,1.5417-2.7152,9.1988-18.1177,21.2196-37.9087,4.3561-46.141-39.0107-19.0441-55.7507-2.7417-64.9499,15.3763-.4764.9386-.8872,1.8917-1.2822,2.8465a172.49633,172.49633,0,0,0-28.4612-5.4329c.06-1.0072.1061-2.0163.0863-3.0387-.4001-19.9376,5.5159-30.7273-13.6465-31.1-41.7865-.8124-55.885,17.3248-55.4854,37.2622.0209,1.0426.1083,2.0613.2109,3.0734a194.57531,194.57531,0,0,0-28.1341,10.4404c-.4351-.8893-.8867-1.7732-1.4033-2.6319-9.8914-16.416-31.1499-20.4474-47.483-9.0042s-21.5545,34.0267-11.6632,50.4428c.5063.8413,1.0619,1.6275,1.6254,2.4034a212.16274,212.16274,0,0,0-20.2656,23.5141c-.8092-.5078-1.6305-1.0041-2.4973-1.4441-16.7324-8.4953-37.754-.6948-46.9527,17.423-9.199,18.1179-3.0917,39.6923,13.6408,48.1877.8668.4404,1.7519.8101,2.6391,1.1641a212.19365,212.19365,0,0,0-7.0243,30.2365c-.9595.0029-1.9218.0188-2.8987.1053-19.0914,1.7026-34.2423,19.2444-33.8428,39.1834.3997,19.9386,16.2002,34.7217,35.2903,33.0198.9972-.0887,1.9777-.2457,2.9517-.4193a194.59272,194.59272,0,0,0,8.1733,28.875c-.8778.5138-1.7518,1.0449-2.6054,1.6426-16.3326,11.4423-21.5542,34.0269-11.6629,50.4431,9.8914,16.4166,42.6381,24.0431,58.9705,12.6006.837-.5866-9.8636-4.8149-9.0855-5.4576a172.50963,172.50963,0,0,0,21.1811,19.772c-.5376.8822-1.0651,1.7761-1.5412,2.7147-9.1991,18.1178-3.0918,39.6924,13.6407,48.1874,16.7325,8.4956,37.7542.6952,46.9531-17.4224.4766-.9387.8872-1.8918,1.2818-2.8469a172.45792,172.45792,0,0,0,28.4613,5.4329c-.0597,1.0074-.106,2.0168-.0858,3.0389.3997,19.9377,16.1996,34.7216,35.2898,33.02,19.0903-1.7019,34.2419-19.2446,33.8418-39.1828-.0209-1.0419-.108-2.0607-.2114-3.0727a194.51411,194.51411,0,0,0,28.1346-10.4404c.4351.8892.8867,1.7731,1.4034,2.6308,9.8915,16.4159,31.1499,20.4485,47.4827,9.0053,16.3331-11.4435,21.5549-34.027,11.6637-50.4441-.5069-.8399-1.062-1.6266-1.6255-2.4023a212.21387,212.21387,0,0,0,20.2653-23.5139C2484.69318,912.074,2485.514,912.57018,2486.38068,913.00988Zm-208.5872,2.6471c-60.7519-30.8455-82.9261-109.1773-49.5269-174.9592,33.3988-65.7825,109.7234-94.1041,170.4753-63.2589,60.7524,30.845,82.9265,109.1766,49.5279,174.9586C2414.87018,918.18,2338.54588,946.50188,2277.79348,915.657Z"/>
            <path class="cls-60" d="M2526.97788,815.89278c19.09-1.7025,34.241-19.2447,33.8421-39.1831-.4-19.9383-16.1998-34.7228-35.2902-33.0205-.9977.0888-1.9778.247-2.9525.4198a194.48051,194.48051,0,0,0-8.1732-28.8746c.8782-.5131,1.752-1.0448,2.6056-1.6432,16.3321-11.4422,36.5386-39.0907,25.0161-54.4054-21.8704-29.0663-44.5035-16.4846-60.836-5.0425-.837.5866-1.6242,1.2194-2.4018,1.8618a172.48987,172.48987,0,0,0-21.1818-19.7713c.5383-.8823,1.0651-1.776,1.5417-2.7142a38.01163,38.01163,0,0,0,2.1418-29.9747q-23.6631,41.64825-46.6221,83.6816c48.466,35.515,63.8959,105.5032,33.6015,165.1716-25.6715,50.5631-76.7028,78.9549-126.5305,75.3973-2.2226,5.7642-4.4047,11.56-6.7854,17.2686-6.4588,15.4924-13.7966,30.6654-21.1439,45.8188q6.93165,1.3068,13.9158,2.044c-.0597,1.0079-.106,2.0173-.0858,3.0387.3997,19.9384,12.505,36.8784,47.1031,35.0434,19.1391-1.015,22.4284-21.2671,22.0285-41.2059-.0209-1.0415-.1079-2.0603-.2111-3.0723a194.56041,194.56041,0,0,0,28.1343-10.4407c.4351.8895.8867,1.773,1.4037,2.6306,9.8914,16.417,44.2051,23.392,60.5379,11.9487,16.3333-11.4432,8.4994-36.9699-1.3918-53.3864-.5069-.841-1.062-1.6272-1.6255-2.4034a212.14488,212.14488,0,0,0,20.2653-23.5134c.8095.508,1.6303,1.0043,2.497,1.4433,16.7326,8.4963,37.7546.6949,46.9535-17.4233,9.1986-18.117,3.0914-39.6924-13.6411-48.1871-.8668-.4406-1.7519-.8102-2.639-1.1638a212.27745,212.27745,0,0,0,7.0244-30.2363C2525.03738,815.996,2525.99978,815.97938,2526.97788,815.89278Z"/>
            <path class="cls-61" d="M2504.37758,915.05648c16.7325,8.4955,37.7542.6951,46.9534-17.4233,9.1985-18.1178,3.0912-39.692-13.6417-48.1877-.8667-.44-1.7513-.81-2.6388-1.1639a212.11839,212.11839,0,0,0,7.0242-30.2367c.9594-.0025,1.922-.0185,2.8997-.1059,19.0902-1.7017,34.2413-19.2437,33.8418-39.1823-.3996-19.939-16.1992-34.7228-35.2896-33.021-.9978.0893-1.9777.2467-2.9526.42a194.55421,194.55421,0,0,0-8.1732-28.8747c.8783-.5138,1.752-1.0447,2.6057-1.6426,16.3322-11.4423,21.5543-34.0269,11.6631-50.4434-9.8915-16.416-31.1502-20.4478-47.483-9.0051-.8369.5866-1.6242,1.2198-2.4024,1.8622a172.44787,172.44787,0,0,0-21.1812-19.7713c.5382-.8824,1.065-1.7767,1.5419-2.7149,9.1987-18.1178,3.0914-39.6925-13.6409-48.1878-16.7328-8.4957-37.7541-.695-46.9531,17.4228-.4765.9387-.8873,1.8918-1.2824,2.8468a172.48117,172.48117,0,0,0-28.4604-5.4331c.0595-1.0076.1054-2.0165.0856-3.0384-.4002-19.938-16.1997-34.7218-35.2904-33.0199-19.0899,1.7013-34.2414,19.2445-33.8419,39.182.0212,1.0422.1082,2.0607.2114,3.0728a194.612,194.612,0,0,0-28.1343,10.4408c-.4349-.8893-.8865-1.7731-1.403-2.6319-9.8909-16.4161-31.1505-20.4479-47.4831-9.0046-16.3331,11.4436-21.5541,34.0273-11.6633,50.4432.5071.8408,1.0619,1.6276,1.6257,2.4034a212.146,212.146,0,0,0-20.2657,23.5139c-.8096-.5077-1.6304-1.0038-2.4973-1.4437-16.7327-8.4959-37.754-.695-46.9528,17.4226-9.199,18.118-3.0916,39.6928,13.6408,48.188.8672.4403,1.7516.8098,2.6392,1.1639a212.13556,212.13556,0,0,0-7.0243,30.2367c-.9589.0028-1.9219.0189-2.8994.105-19.09,1.7029-34.2419,19.2447-33.8421,39.1835.3996,19.9386,16.2,34.7215,35.2901,33.02.9972-.0886,1.9776-.2457,2.9518-.4193a194.61875,194.61875,0,0,0,8.1732,28.8749c-.8777.5133-1.7519,1.0443-2.6052,1.6429-16.3326,11.4419-21.5541,34.0268-11.6631,50.4426,9.8913,16.4166,31.1504,20.4481,47.4825,9.0059.8371-.587,1.6246-1.2197,2.4024-1.8626a172.51491,172.51491,0,0,0,21.1812,19.7717c-.5377.8824-1.065,1.7762-1.5415,2.715-9.1987,18.1177-3.0916,39.6918,13.6411,48.1877,16.7325,8.4952,37.7542.6951,46.9529-17.4232.4766-.9382.8869-1.8916,1.282-2.8463a172.53852,172.53852,0,0,0,28.4613,5.4327c-.0594,1.0072-.1063,2.0166-.0861,3.0387.4004,19.9376,16.1999,34.7217,35.29,33.02s34.242-19.2446,33.8419-39.1823c-.0208-1.042-.1079-2.061-.2114-3.0731a194.48578,194.48578,0,0,0,28.1343-10.4405c.4352.8891.8873,1.7733,1.404,2.6304,9.8912,16.4166,31.1499,20.4491,47.4825,9.0058,16.333-11.4432,21.5545-34.0267,11.6637-50.4437-.5072-.8403-1.0621-1.6271-1.6261-2.4027a212.18006,212.18006,0,0,0,20.2659-23.5141C2502.69,914.12,2503.51078,914.61618,2504.37758,915.05648Zm-208.5869,2.6465c-60.7519-30.8454-82.9267-109.1765-49.5273-174.9589,33.3998-65.7822,109.7233-94.104,170.4754-63.2587s82.9263,109.1768,49.5276,174.9588C2432.867,920.22688,2356.54288,948.54808,2295.79068,917.703Z"/>
          </g>
          <g>
            <path class="cls-62" d="M922.562,1906.97718s-59.6721-24.6428-43.4666-51.8595,20.3381-15.056,20.3381-15.056-29.9189-16.2141,11.349-30.4015,50.21,3.1849,76.1405-6.6594,44.416,31.5376,22.7289,43.1412a272.5504,272.5504,0,0,1-41.9664,17.9514S936.21478,1931.041,922.562,1906.97718Z"/>
            <path class="cls-63" d="M940.14818,2731.63828s-1.6211,12.8973-.5329,17.2177c1.0884,4.3211,38.5883,7.4438,51.3168,5.9416,12.7286-1.5027-7.5815-14.5042-15.6916-16.9444S940.14818,2731.63828,940.14818,2731.63828Z"/>
            <path class="cls-64" d="M959.02458,2710.122l-3.9522,25.8762s-10.079,4.5305-14.9242.0536l-.5329-27.0858Z"/>
            <path class="cls-65" d="M779.35908,2708.966s7.9568,5.9046,5.8349,12.9756c-2.1204,7.0712-20.687,35.4045-33.919,43.4456-13.2311,8.0429-9.0836-8.7118-5.2331-19.1468,3.8504-10.4344,13.6894-33.4214,17.5306-37.2744C767.41278,2705.11358,779.35908,2708.966,779.35908,2708.966Z"/>
            <path class="cls-66" d="M793.67108,2680.53768c-3.8461,10.7209-7.5457,19.5354-10.4391,26.0375-6.403,14.3829-9.9019,19.7799-13.8645,24.4594-3.4552,4.0753-11.6366,12.7719-13.836,11.3239-2.2331-1.4684,3.752-12.0413,15.289-43.0066,1.6751-4.4947,6.9662-18.8142,6.9662-18.8142h15.8844Z"/>
            <path class="cls-67" d="M1037.55638,2232.54828a669.91831,669.91831,0,0,1,1.4413,119.5377c-5.1317,66.1371-18.3568,107.9882-34.9415,178.506-10.1357,43.0957-23.7919,106.5247-36.1523,185.8516a34.879,34.879,0,0,1-22.1653,4.3464,33.655,33.655,0,0,1-13.3163-5.059c-32.4266-99.0867-22.8502-160.4899-7.2004-198.746,6.6702-16.3082,14.7575-29.1729,19.0798-54.2397,5.7197-33.164-1.3519-51.7036-11.4378-128.5244-7.1898-54.7534-5.9458-63.2176-1.1615-71.4287C950.82138,2229.96088,1009.303,2230.60318,1037.55638,2232.54828Z"/>
            <path class="cls-68" d="M957.67218,2244.07088c-19.8644,102.5887-39.3611,156.4693-54.1153,186.9448a512.2156,512.2156,0,0,0-27.2551,66.5263,541.94859,541.94859,0,0,0-16.5619,63.3703c-6.8487,31.4455-23.7754,77.3604-69.3194,137.5829-.5678.3332-8.3343,4.7252-15.7581.8105a15.23428,15.23428,0,0,1-6.3745-6.6165c5.9539-57.5766,12.7883-105.9592,18.7218-143.2997,1.2448-7.8317,6.7275-42.0968,15.3241-87.366,3.3652-17.7168,8.2947-43.6742,14.1999-70.3354,7.3525-33.2023,18.6283-78.37,36.0051-132.4946Q905.10508,2251.63018,957.67218,2244.07088Z"/>
            <path class="cls-69" d="M1052.43138,2127.73408c-1.2647.2895-6.7572,2.1166-8.9287,25.0615-5.2371,55.3246,23.5682,77.7242,16.4754,107.7273-6.8079,28.7989-41.53,42.7708-77.2698,57.1526-23.8832,9.6112-97.7532,39.3359-140.7138,5.9113-18.08-14.0679-20.059-31.0517-32.9573-93.4812-32.7717-158.6178-65.2678-175.4686-51.4844-209.8061,23.669-58.9668,106.8446-80.1631,117.388-84.2255,112.4315-43.3226,245.2019,36.2994,297.6669,127.7738,6.9086,12.0446,48.1653,83.9781,19.1781,118.0976-17.5375,20.6413-57.837,23.9732-84.432,9.8979C1071.82,2173.037,1064.27048,2125.01988,1052.43138,2127.73408Z"/>
            <path class="cls-70" d="M1175.31218,2169.69208a2.53791,2.53791,0,0,0,2.305-3.5868c-.9641-2.1088-24.1722-51.9178-77.8032-71.5724a2.53359,2.53359,0,1,0-1.7421,4.7583c51.5858,18.9065,74.703,68.421,74.9302,68.9178A2.53673,2.53673,0,0,0,1175.31218,2169.69208Z"/>
            <path class="cls-71" d="M850.86088,2003.245c7.0956,19.318-14.1963,36.057-5.0699,57.0322,13.0807,30.0594,65.0623,14.6312,83.6474,44.3582,22.0261,35.2309-28.4133,93.018-7.604,112.7968,9.4824,9.0127,20.4381-2.5308,48.1598,3.802,39.4808,9.0182,51.3439,40.2168,69.706,35.4863,5.775-1.4878,12.776-6.7304,18.666-22.8706,2.5682,8.9555,3.7904,17.4571,1.6119,26.673-6.8079,28.7989-41.53,42.7708-77.2703,57.1526-23.8836,9.6112-97.7527,39.3359-140.7133,5.9113-18.08-14.0679-20.059-31.0517-32.9573-93.4812-32.7717-158.6178-45.4673-172.2452-31.6839-206.5827,7.5154-18.7232,19.0372-33.9514,31.5957-46.1632C836.02738,1983.34068,847.14668,1993.13188,850.86088,2003.245Z"/>
            <path class="cls-72" d="M954.74878,1912.31868a19.22523,19.22523,0,0,0,16.4972,22.2888c13.1195,1.6655,29.1572,4.2,36.3054,7.3001,13.1213,5.691-37.7017,3.0757-83.7366,7.0952a382.16556,382.16556,0,0,1-62.8233.6843,3.20362,3.20362,0,0,1-1.037-6.1186c11.0596-5.0067,24.0596-12.6466,39.6047-16.3775,19.2449-4.6202,40.4383-49.9389,40.4383-49.9389l18.4134,13.3379Z"/>
            <path class="cls-73" d="M924.55288,1901.68108s19.6337,22.3014,49.6079,14.9873c26.8389-6.5511,20.0896-68.1346.472-78.0009-6.5434-3.2907-18.4455-3.0392-27.4018,1.2605-5.2897,2.5393-6.7662,5.1835-15.4899,9.1658-8.0462,3.6714-10.5952,3.1566-12.7614,5.748-2.7128,3.2398-3.887,10.2204,4.5642,27.0828-6.1029-4.3332-12.6762-5.2497-16.7134-2.3943a9.3939,9.3939,0,0,0-2.9959,4.1583C901.26428,1891.31208,909.17838,1899.07438,924.55288,1901.68108Z"/>
            <g>
              <path class="cls-74" d="M1097.733,2032.48088a9.74733,9.74733,0,0,0-9.8713-10.8784H957.96448a12.02851,12.02851,0,0,0-11.7749,10.8784l-13.8342,169.644a9.66741,9.66741,0,0,0,9.8625,10.5731h127.9525a11.94172,11.94172,0,0,0,11.7126-10.5731Z"/>
              <path class="cls-75" d="M1101.22108,2032.47708l-15.8777,169.6584a11.90108,11.90108,0,0,1-11.7093,10.5625H945.70318a9.64863,9.64863,0,0,1-9.8669-10.5625l13.8283-169.6584a12.05361,12.05361,0,0,1,10.9798-10.8399,6.14569,6.14569,0,0,1,.7991-.0347h129.909A9.74354,9.74354,0,0,1,1101.22108,2032.47708Z"/>
              <path class="cls-76" d="M1071.583,2212.698H945.70318a9.64863,9.64863,0,0,1-9.8669-10.5625l13.8283-169.6584a12.05361,12.05361,0,0,1,10.9798-10.8399c-.2443.4165-.3817.7295-.4869.9034-2.3632,4.9335-3.3014,10.666-1.2503,15.8438,5.0726,12.6119,22.1667,15.2177,31.3041,24.043a32.97509,32.97509,0,0,1,9.6939,21.958c.4173,7.1576-2.0155,14.2457-1.0077,21.3676,1.5641,10.6677,12.0215,13.2736,21.6814,15.1838,12.4728,2.4668,25.502,4.0649,34.9533,12.9597,12.2285,11.5007,8.1993,30.4711,8.3384,44.995.0696,10.8051-1.0077,24.4604,7.0881,33.1805Z"/>
            </g>
            <path class="cls-77" d="M918.91408,2128.84288l2.6802-4.3821a18.75878,18.75878,0,0,1,20.4492-13.8905l14.0808,1.7368a7.57553,7.57553,0,0,1,6.4813,9.0818c-1.3102,6.2849-4.6814,13.8042-13.3333,13.2204-14.6966-.9915-24.0916,20.4266-24.0916,20.4266l-5.6408-7.9448A16.5804,16.5804,0,0,1,918.91408,2128.84288Z"/>
            <path class="cls-78" d="M918.82568,2124.43538c-3.0336,2.7584-33.7917,29.8502-70.7916,20.5992-32.2231-8.0569-52.0065-39.3857-55.4728-65.747-8.2421-62.6936,55.0672-103.0973,44.9984-115.785-5.9957-7.5555-19.7845-5.1417-41.1964,8.0577-22.2265,13.7012-82.2885,50.7256-95.0894,123.3813-1.0888,6.1758-15.2121,92.7973,34.2382,128.5731,45.7217,33.0778,135.2804,15.0847,195.9344-63.1576Q925.13688,2142.39623,918.82568,2124.43538Z"/>
            <path class="cls-79" d="M1107.901,2104.45248l-2.2367-3.657a15.65481,15.65481,0,0,0-17.0655-11.592l-11.7509,1.4494a6.3221,6.3221,0,0,0-5.4089,7.579c1.0934,5.245,3.9068,11.5201,11.1271,11.0329,12.2648-.8274,20.1052,17.0466,20.1052,17.0466l4.7075-6.6301A13.837,13.837,0,0,0,1107.901,2104.45248Z"/>
          </g>
        </g>
      </g>
    </g>
  </g>
</svg>
