<svg xmlns="http://www.w3.org/2000/svg" xmlns:xlink="http://www.w3.org/1999/xlink" viewBox="0 0 2811.90459 2800.00002">
  <defs>
    <style>
      .cls-1 {
        opacity: 0.3;
        fill: url(#linear-gradient);
      }

      .cls-2 {
        fill: url(#linear-gradient-2);
      }

      .cls-10, .cls-11, .cls-3, .cls-5, .cls-51, .cls-56 {
        fill: #fff;
      }

      .cls-3 {
        opacity: 0.86;
      }

      .cls-4 {
        fill: url(#linear-gradient-3);
      }

      .cls-6 {
        fill: url(#linear-gradient-4);
      }

      .cls-7 {
        fill: url(#linear-gradient-5);
      }

      .cls-8 {
        fill: url(#linear-gradient-6);
      }

      .cls-9 {
        fill: url(#linear-gradient-7);
      }

      .cls-10 {
        opacity: 0.46;
      }

      .cls-11, .cls-15, .cls-16, .cls-17, .cls-18, .cls-19, .cls-20, .cls-21, .cls-22, .cls-23, .cls-24, .cls-25, .cls-26, .cls-27, .cls-28, .cls-29, .cls-30 {
        fill-rule: evenodd;
      }

      .cls-12 {
        fill: url(#linear-gradient-8);
      }

      .cls-13 {
        fill: url(#linear-gradient-9);
      }

      .cls-14 {
        fill: url(#linear-gradient-10);
      }

      .cls-15 {
        fill: url(#linear-gradient-11);
      }

      .cls-16 {
        fill: url(#linear-gradient-12);
      }

      .cls-17 {
        fill: url(#linear-gradient-13);
      }

      .cls-18 {
        fill: url(#linear-gradient-14);
      }

      .cls-19 {
        fill: url(#linear-gradient-15);
      }

      .cls-20 {
        fill: url(#linear-gradient-16);
      }

      .cls-21 {
        fill: url(#linear-gradient-17);
      }

      .cls-22 {
        fill: url(#linear-gradient-18);
      }

      .cls-23 {
        fill: url(#linear-gradient-19);
      }

      .cls-24 {
        fill: url(#linear-gradient-20);
      }

      .cls-25 {
        fill: url(#linear-gradient-21);
      }

      .cls-26 {
        fill: url(#linear-gradient-22);
      }

      .cls-27 {
        fill: url(#linear-gradient-23);
      }

      .cls-28 {
        fill: url(#linear-gradient-24);
      }

      .cls-29 {
        fill: url(#linear-gradient-25);
      }

      .cls-30 {
        fill: url(#linear-gradient-26);
      }

      .cls-31 {
        fill: url(#linear-gradient-27);
      }

      .cls-32 {
        fill: url(#linear-gradient-28);
      }

      .cls-33 {
        fill: url(#linear-gradient-29);
      }

      .cls-34 {
        fill: url(#linear-gradient-30);
      }

      .cls-35 {
        fill: url(#linear-gradient-31);
      }

      .cls-36 {
        fill: url(#linear-gradient-32);
      }

      .cls-37 {
        fill: url(#linear-gradient-33);
      }

      .cls-38 {
        fill: url(#linear-gradient-34);
      }

      .cls-39 {
        fill: url(#linear-gradient-35);
      }

      .cls-40 {
        fill: url(#linear-gradient-36);
      }

      .cls-41 {
        fill: url(#linear-gradient-37);
      }

      .cls-42 {
        fill: url(#linear-gradient-38);
      }

      .cls-43 {
        fill: url(#linear-gradient-39);
      }

      .cls-44 {
        fill: url(#linear-gradient-40);
      }

      .cls-45 {
        fill: url(#linear-gradient-41);
      }

      .cls-46 {
        fill: url(#linear-gradient-42);
      }

      .cls-47 {
        fill: url(#linear-gradient-43);
      }

      .cls-48 {
        fill: #e78456;
      }

      .cls-49 {
        fill: url(#linear-gradient-44);
      }

      .cls-50 {
        fill: url(#linear-gradient-45);
      }

      .cls-51 {
        opacity: 0.34;
      }

      .cls-52 {
        fill: url(#linear-gradient-46);
      }

      .cls-53 {
        fill: url(#linear-gradient-47);
      }

      .cls-54 {
        fill: url(#linear-gradient-48);
      }

      .cls-55 {
        fill: url(#linear-gradient-49);
      }

      .cls-56 {
        opacity: 0.78;
      }

      .cls-57 {
        fill: url(#linear-gradient-50);
      }

      .cls-58 {
        fill: url(#linear-gradient-51);
      }

      .cls-59 {
        fill: url(#linear-gradient-52);
      }

      .cls-60 {
        fill: url(#New_Gradient_Swatch_37);
      }

      .cls-61 {
        fill: url(#New_Gradient_Swatch_5);
      }

      .cls-62 {
        fill: url(#linear-gradient-53);
      }

      .cls-63 {
        fill: url(#linear-gradient-54);
      }

      .cls-64 {
        fill: url(#linear-gradient-55);
      }

      .cls-65 {
        fill: url(#linear-gradient-56);
      }

      .cls-66 {
        fill: url(#linear-gradient-57);
      }

      .cls-67 {
        fill: url(#linear-gradient-58);
      }

      .cls-68 {
        fill: url(#linear-gradient-59);
      }

      .cls-69 {
        fill: url(#New_Gradient_Swatch_5-2);
      }

      .cls-70 {
        fill: url(#linear-gradient-60);
      }

      .cls-71 {
        fill: url(#linear-gradient-61);
      }

      .cls-72 {
        fill: url(#linear-gradient-62);
      }

      .cls-73 {
        fill: url(#New_Gradient_Swatch_5-3);
      }

      .cls-74 {
        fill: url(#linear-gradient-63);
      }

      .cls-75 {
        fill: url(#linear-gradient-64);
      }

      .cls-76 {
        fill: url(#linear-gradient-65);
      }

      .cls-77 {
        fill: url(#linear-gradient-66);
      }

      .cls-78 {
        fill: #70e5c5;
      }
    </style>
    <linearGradient id="linear-gradient" x1="3161.87935" y1="3629.22508" x2="684.39324" y2="552.34275" gradientUnits="userSpaceOnUse">
      <stop offset="0" stop-color="#b37cff"/>
      <stop offset="1" stop-color="#f895e7"/>
    </linearGradient>
    <linearGradient id="linear-gradient-2" x1="1025.79518" y1="-921.27458" x2="557.09096" y2="2547.11464" gradientUnits="userSpaceOnUse">
      <stop offset="0" stop-color="#a737d5"/>
      <stop offset="1" stop-color="#ef497a"/>
    </linearGradient>
    <linearGradient id="linear-gradient-3" x1="4039.72896" y1="-1126.3933" x2="5220.60212" y2="-1126.3933" gradientTransform="matrix(-0.9934, -0.1146, -0.1146, 0.9934, 5007.08227, 2635.33773)" xlink:href="#linear-gradient"/>
    <linearGradient id="linear-gradient-4" x1="977.66985" y1="2895.72849" x2="1614.70439" y2="2132.03345" gradientUnits="userSpaceOnUse">
      <stop offset="0" stop-color="#2b3582"/>
      <stop offset="1" stop-color="#150e42"/>
    </linearGradient>
    <linearGradient id="linear-gradient-5" x1="-1392.57944" y1="2196.56869" x2="-768.48184" y2="324.27057" gradientTransform="matrix(-1, 0, 0, 1, 257.68175, 0)" xlink:href="#linear-gradient-4"/>
    <linearGradient id="linear-gradient-6" x1="1363.69222" y1="444.99449" x2="1487.16498" y2="3277.63725" gradientUnits="userSpaceOnUse">
      <stop offset="0" stop-color="#53d8ff"/>
      <stop offset="1" stop-color="#3840f7"/>
    </linearGradient>
    <linearGradient id="linear-gradient-7" x1="1397.04902" y1="2428.26434" x2="1406.48161" y2="2644.66154" xlink:href="#linear-gradient-4"/>
    <linearGradient id="linear-gradient-8" x1="1960.96671" y1="2057.70678" x2="1711.36921" y2="1794.61782" gradientUnits="userSpaceOnUse">
      <stop offset="0" stop-color="#f9b776"/>
      <stop offset="1" stop-color="#f47960"/>
    </linearGradient>
    <linearGradient id="linear-gradient-9" x1="1754.91554" y1="1928.45947" x2="1721.18583" y2="1665.36917" xlink:href="#linear-gradient-8"/>
    <linearGradient id="linear-gradient-10" x1="-4658.02612" y1="1799.79966" x2="-4624.25799" y2="1799.79966" gradientTransform="matrix(-1, 0, 0, 1, -2895.34475, 0)" xlink:href="#linear-gradient-8"/>
    <linearGradient id="linear-gradient-11" x1="-4731.36664" y1="1638.42587" x2="-4864.4625" y2="1755.86354" gradientTransform="matrix(-1, 0, 0, 1, -2895.34475, 0)" gradientUnits="userSpaceOnUse">
      <stop offset="0" stop-color="#cb236d"/>
      <stop offset="1" stop-color="#4c246d"/>
    </linearGradient>
    <linearGradient id="linear-gradient-12" x1="-5732.15495" y1="807.70829" x2="-5624.12644" y2="807.70829" gradientTransform="matrix(-0.9842, -0.1769, -0.1769, 0.9842, -3275.54069, -40.02584)" xlink:href="#linear-gradient-11"/>
    <linearGradient id="linear-gradient-13" x1="-5428.71745" y1="709.00283" x2="-5525.70946" y2="856.28681" gradientTransform="matrix(-0.9842, -0.1769, -0.1769, 0.9842, -3275.54069, -40.02584)" xlink:href="#linear-gradient-11"/>
    <linearGradient id="linear-gradient-14" x1="-4849.04222" y1="2648.37464" x2="-4745.58549" y2="2648.37464" xlink:href="#linear-gradient-11"/>
    <linearGradient id="linear-gradient-15" x1="-4979.99232" y1="2681.91892" x2="-4922.44776" y2="2681.91892" xlink:href="#linear-gradient-11"/>
    <linearGradient id="linear-gradient-16" x1="-4913.85656" y1="2028.83849" x2="-4905.53412" y2="1944.22736" gradientTransform="matrix(-1, 0, 0, 1, -2895.34475, 0)" xlink:href="#linear-gradient-8"/>
    <linearGradient id="linear-gradient-17" x1="-5012.21662" y1="2496.94911" x2="-4926.82742" y2="2496.94911" gradientTransform="matrix(-1, 0, 0, 1, -2895.34475, 0)" xlink:href="#linear-gradient-8"/>
    <linearGradient id="linear-gradient-18" x1="-4912.12962" y1="2488.58193" x2="-4811.82282" y2="2488.58193" gradientTransform="matrix(-1, 0, 0, 1, -2895.34475, 0)" xlink:href="#linear-gradient-8"/>
    <linearGradient id="linear-gradient-19" x1="-5234.63728" y1="2371.23791" x2="-4955.28137" y2="1987.40706" gradientTransform="matrix(-1, 0, 0, 1, -2895.34475, 0)" xlink:href="#linear-gradient-8"/>
    <linearGradient id="linear-gradient-20" x1="-4858.32833" y1="1922.41118" x2="-5057.87272" y2="2260.48184" xlink:href="#linear-gradient-11"/>
    <linearGradient id="linear-gradient-21" x1="2137.38149" y1="2102.52982" x2="1757.58762" y2="2719.69492" gradientTransform="matrix(1, 0, 0, 1, 0, 0)" xlink:href="#linear-gradient-11"/>
    <linearGradient id="linear-gradient-22" x1="2077.76854" y1="1508.25599" x2="1955.69288" y2="2511.99632" gradientTransform="matrix(1, 0, 0, 1, 0, 0)" xlink:href="#linear-gradient-11"/>
    <linearGradient id="linear-gradient-23" x1="-5531.22498" y1="859.40245" x2="-5520.14135" y2="694.53218" gradientTransform="matrix(-0.9852, -0.1732, -0.1896, 1.0333, -3303.69384, 67.82213)" xlink:href="#linear-gradient-8"/>
    <linearGradient id="linear-gradient-24" x1="-5440.30236" y1="988.59538" x2="-5429.20559" y2="823.52968" gradientTransform="matrix(-0.9842, -0.1769, -0.1769, 0.9842, -3275.54069, -40.02584)" xlink:href="#linear-gradient-8"/>
    <linearGradient id="linear-gradient-25" x1="-5596.01259" y1="978.12628" x2="-5584.91572" y2="813.05912" gradientTransform="matrix(-0.9842, -0.1769, -0.1769, 0.9842, -3275.54069, -40.02584)" xlink:href="#linear-gradient-8"/>
    <linearGradient id="linear-gradient-26" x1="-5429.44286" y1="708.52557" x2="-5526.43481" y2="855.80945" gradientTransform="matrix(-0.9842, -0.1769, -0.1769, 0.9842, -3275.54069, -40.02584)" xlink:href="#linear-gradient-11"/>
    <linearGradient id="linear-gradient-27" x1="717.40507" y1="2056.22302" x2="408.31617" y2="2547.59545" gradientTransform="matrix(1, 0, 0, 1, 0, 0)" xlink:href="#linear-gradient-11"/>
    <linearGradient id="linear-gradient-28" x1="1005.58814" y1="2405.68474" x2="1119.76329" y2="2524.93449" xlink:href="#linear-gradient-4"/>
    <linearGradient id="linear-gradient-29" x1="829.36344" y1="2287.39589" x2="948.24386" y2="1839.61357" xlink:href="#linear-gradient-6"/>
    <linearGradient id="linear-gradient-30" x1="1157.04807" y1="2705.0019" x2="1373.01457" y2="2863.50931" xlink:href="#linear-gradient-4"/>
    <linearGradient id="linear-gradient-31" x1="1260.2452" y1="2620.70021" x2="805.85703" y2="2249.52884" gradientUnits="userSpaceOnUse">
      <stop offset="0" stop-color="#fdf53f"/>
      <stop offset="0.66452" stop-color="#e57a58"/>
      <stop offset="1" stop-color="#d93c65"/>
    </linearGradient>
    <linearGradient id="linear-gradient-32" x1="1383.50305" y1="2886.83348" x2="929.11592" y2="2515.66296" xlink:href="#linear-gradient-31"/>
    <linearGradient id="linear-gradient-33" x1="1160.15038" y1="2404.36005" x2="708.40433" y2="2574.75528" xlink:href="#linear-gradient-6"/>
    <linearGradient id="linear-gradient-34" x1="808.13001" y1="2119.19106" x2="661.51047" y2="2293.54932" xlink:href="#linear-gradient-8"/>
    <linearGradient id="linear-gradient-35" x1="395.79763" y1="1796.10298" x2="630.71115" y2="2620.2601" xlink:href="#linear-gradient-31"/>
    <linearGradient id="linear-gradient-36" x1="637.16573" y1="2277.8366" x2="930.23434" y2="1876.90279" xlink:href="#linear-gradient-8"/>
    <linearGradient id="linear-gradient-37" x1="457.88723" y1="1945.58313" x2="468.68229" y2="1848.42769" xlink:href="#linear-gradient-8"/>
    <linearGradient id="linear-gradient-38" x1="515.46435" y1="1860.83485" x2="467.88349" y2="1703.90186" xlink:href="#linear-gradient-8"/>
    <linearGradient id="linear-gradient-39" x1="472.62357" y1="1573.22664" x2="516.76208" y2="1824.97945" xlink:href="#linear-gradient-4"/>
    <linearGradient id="linear-gradient-40" x1="466.18048" y1="1875.77742" x2="418.59953" y2="1718.84415" xlink:href="#linear-gradient-8"/>
    <linearGradient id="linear-gradient-41" x1="855.09248" y1="2187.12597" x2="1078.10334" y2="2187.12597" xlink:href="#linear-gradient-4"/>
    <linearGradient id="linear-gradient-42" x1="1042.06349" y1="2092.54971" x2="906.34194" y2="2230.2527" gradientUnits="userSpaceOnUse">
      <stop offset="0" stop-color="#fdf53f"/>
      <stop offset="1" stop-color="#d93c65"/>
    </linearGradient>
    <linearGradient id="linear-gradient-43" x1="882.15967" y1="2284.60983" x2="703.83889" y2="2333.48287" xlink:href="#linear-gradient-4"/>
    <linearGradient id="linear-gradient-44" x1="2358.58483" y1="-137.97442" x2="2028.03593" y2="131.86167" gradientTransform="translate(871.08377 -783.62443) rotate(45)" xlink:href="#linear-gradient-31"/>
    <linearGradient id="linear-gradient-45" x1="1377.13144" y1="267.49984" x2="1388.37502" y2="1286.13242" xlink:href="#linear-gradient-31"/>
    <linearGradient id="linear-gradient-46" x1="3048.34505" y1="408.9524" x2="2717.79615" y2="678.78848" gradientTransform="translate(1459.84551 -1111.16741) rotate(45)" xlink:href="#linear-gradient-31"/>
    <linearGradient id="linear-gradient-47" x1="2066.89174" y1="814.42664" x2="2078.13532" y2="1833.05922" xlink:href="#linear-gradient-31"/>
    <linearGradient id="linear-gradient-48" x1="-18.99699" y1="1784.63816" x2="480.58157" y2="1204.77094" gradientTransform="translate(987.33419 2.48077) rotate(45)" xlink:href="#linear-gradient-42"/>
    <linearGradient id="linear-gradient-49" x1="822.9629" y1="-702.22662" x2="640.82403" y2="336.6389" gradientTransform="translate(987.33419 2.48077) rotate(45)" xlink:href="#linear-gradient-31"/>
    <linearGradient id="linear-gradient-50" x1="585.63459" y1="757.96664" x2="439.19725" y2="1018.1079" xlink:href="#linear-gradient-42"/>
    <linearGradient id="linear-gradient-51" x1="738.645" y1="844.37106" x2="592.20777" y2="1104.51213" xlink:href="#linear-gradient-42"/>
    <linearGradient id="linear-gradient-52" x1="1088.29996" y1="458.53221" x2="931.46584" y2="767.14166" xlink:href="#linear-gradient-42"/>
    <linearGradient id="New_Gradient_Swatch_37" data-name="New Gradient Swatch 37" x1="2463.69064" y1="248.41684" x2="2502.18001" y2="1412.71152" gradientUnits="userSpaceOnUse">
      <stop offset="0" stop-color="#85ccff"/>
      <stop offset="0.99638" stop-color="#9a76ff"/>
    </linearGradient>
    <linearGradient id="New_Gradient_Swatch_5" data-name="New Gradient Swatch 5" x1="2469.15973" y1="569.19001" x2="2458.53096" y2="664.18405" gradientUnits="userSpaceOnUse">
      <stop offset="0" stop-color="#2c50ff"/>
      <stop offset="0.99638" stop-color="#1a1b80"/>
    </linearGradient>
    <linearGradient id="linear-gradient-53" x1="2470.74377" y1="-966.54978" x2="2349.82316" y2="-717.30553" gradientTransform="translate(47.98208 423.53667) rotate(9.25321)" xlink:href="#linear-gradient-4"/>
    <linearGradient id="linear-gradient-54" x1="2240.94624" y1="356.94958" x2="2495.95875" y2="972.95393" gradientUnits="userSpaceOnUse">
      <stop offset="0" stop-color="#c4421b"/>
      <stop offset="1" stop-color="#5c0e16"/>
    </linearGradient>
    <linearGradient id="linear-gradient-55" x1="-7758.19272" y1="355.62549" x2="-7503.1802" y2="971.62986" gradientTransform="matrix(-1, 0, 0, 1, -5065.16985, 0)" xlink:href="#linear-gradient-54"/>
    <linearGradient id="linear-gradient-56" x1="2473.30848" y1="295.11994" x2="2449.32696" y2="603.45268" gradientUnits="userSpaceOnUse">
      <stop offset="0" stop-color="#52f0c0"/>
      <stop offset="1" stop-color="#9f71fb"/>
    </linearGradient>
    <linearGradient id="linear-gradient-57" x1="3439.62429" y1="-2115.86926" x2="3579.04291" y2="-2115.86926" gradientTransform="matrix(-0.4986, 0.8668, 0.8668, 0.4986, 5998.17497, -900.72193)" gradientUnits="userSpaceOnUse">
      <stop offset="0" stop-color="#2c759e"/>
      <stop offset="1" stop-color="#051042"/>
    </linearGradient>
    <linearGradient id="linear-gradient-58" x1="-7319.98081" y1="4199.46928" x2="-7441.93721" y2="4198.00583" gradientTransform="matrix(-0.4986, 0.8668, 0.8668, 0.4986, -4917.31873, 5413.33457)" gradientUnits="userSpaceOnUse">
      <stop offset="0" stop-color="#53eac9"/>
      <stop offset="0.99638" stop-color="#45aed8"/>
    </linearGradient>
    <linearGradient id="linear-gradient-59" x1="1805.24223" y1="3916.50205" x2="1658.05749" y2="4315.16802" gradientTransform="translate(-2112.31437 426.93087) rotate(-61.24092)" xlink:href="#linear-gradient-54"/>
    <linearGradient id="New_Gradient_Swatch_5-2" x1="2538.2877" y1="555.15954" x2="2507.23763" y2="832.66791" xlink:href="#New_Gradient_Swatch_5"/>
    <linearGradient id="linear-gradient-60" x1="6189.51303" y1="-46.91467" x2="6328.87237" y2="-46.91467" gradientTransform="translate(-1833.08151 -3418.06711) rotate(45.24309)" xlink:href="#linear-gradient-57"/>
    <linearGradient id="linear-gradient-61" x1="1038.20937" y1="-1083.35198" x2="915.84152" y2="-1084.82037" gradientTransform="translate(1166.92329 1081.95779) rotate(45.24309)" xlink:href="#linear-gradient-58"/>
    <linearGradient id="linear-gradient-62" x1="987.43583" y1="-1308.83428" x2="840.33719" y2="-910.40153" gradientTransform="translate(1177.68545 1063.58993) rotate(44.79743)" xlink:href="#linear-gradient-54"/>
    <linearGradient id="New_Gradient_Swatch_5-3" x1="2451.93812" y1="770.18311" x2="2426.71017" y2="952.60153" xlink:href="#New_Gradient_Swatch_5"/>
    <linearGradient id="linear-gradient-63" x1="2464.81053" y1="407.81146" x2="2461.41742" y2="112.59175" xlink:href="#linear-gradient-54"/>
    <linearGradient id="linear-gradient-64" x1="2346.75953" y1="-564.29566" x2="2357.32935" y2="-821.18832" gradientTransform="translate(47.98208 423.53667) rotate(9.25321)" xlink:href="#linear-gradient-54"/>
    <linearGradient id="linear-gradient-65" x1="2471.62981" y1="-1001.62855" x2="2335.56784" y2="-721.1746" gradientTransform="translate(47.98208 423.53667) rotate(9.25321)" xlink:href="#linear-gradient-4"/>
    <linearGradient id="linear-gradient-66" x1="2295.02007" y1="870.12918" x2="2311.58404" y2="467.55247" gradientTransform="translate(30.44757 -279.99006) rotate(-7.63743)" xlink:href="#linear-gradient-54"/>
  </defs>
  <g id="katman_2" data-name="katman 2">
    <g id="Illustration">
      <g>
        <path class="cls-1" d="M2488.22208,2410.31941c-57.3408,59.6094-111.5959,98.0509-154.4622,128.4223-503.8818,357.0105-1100.1076,252.9438-1226.8227,227.5294-187.118-37.5284-548.8131-110.0701-810.31213-413.7342-395.62619-459.4184-334.02139-1183.2192-27.14689-1661.0103,56.13212-87.3961,352.63852-572.4648,955.28612-650.2546,364.7159-47.0774,789.8575,47.8723,1097.7333,302.5788C2968.75658,878.503,2922.74978,1958.59481,2488.22208,2410.31941Z"/>
        <g>
          <path class="cls-2" d="M552.09128,3.41621c134.8575,106.1929,894.9322,752.7737,425.0486,1495.1671,0,0-608.38413-311.2746-448.1503-1487.6264C530.39048.66571,543.28118-3.52229,552.09128,3.41621Z"/>
          <path class="cls-3" d="M598.853,160.59681c28.9887,45.8626,56.1527,92.7051,82.6216,139.9824q39.63675,70.93815,76.1771,143.553,36.53385,72.5958,69.8488,146.7694c22.2123,49.4282,43.3271,99.3736,62.8121,149.9679,19.5262,50.5679,38.0116,101.5837,54.1879,153.3704,16.2315,51.7504,31.2648,103.9488,43.1278,156.9542,1.5086,6.6174,3.2247,13.1887,4.5629,19.8457l4.049,19.9643,4.049,19.9643c.6547,3.3334,1.3942,6.6471,1.9797,9.9937l1.6798,10.0497,6.7163,40.2053,5.2044,40.4556c6.1307,54.0331,9.0796,108.524,7.2984,163.0578a6.74581,6.74581,0,1,1-13.4844-.4414l.0008-.0395.0033-.0824c2.0719-53.6938-.5089-107.549-6.2575-161.0814l-4.9137-40.0999-6.4231-39.9089-1.605-9.9805c-.5608-3.3202-1.2755-6.6174-1.9063-9.9278l-3.9008-19.8424-3.9-19.8424c-1.2887-6.6175-2.9563-13.1559-4.4154-19.7404-11.4661-52.7188-26.1091-104.7327-41.9569-156.3382-15.7909-51.645-33.9016-102.5752-53.0597-153.0904-19.117-50.5383-39.8726-100.4672-61.7342-149.902q-32.7579-74.172-68.8137-146.8551-36.0978-72.6255-75.1757-143.7374c-26.1248-47.3284-53.0095-94.3273-81.5866-140.1438l-.0263-.0412a2.85757,2.85757,0,0,1,4.8404-3.0386Z"/>
        </g>
        <g>
          <path class="cls-4" d="M57.00036,176.673c183.9875,74.4199,1236.99562,551.2267,967.06042,1619.7225,0,0-774.03962-135.4432-989.99212-1601.7553A16.79066,16.79066,0,0,1,57.00036,176.673Z"/>
          <path class="cls-3" d="M160.71356,346.77781c49.6736,44.8134,97.3544,91.5835,144.12119,139.3021q70.0797,71.62755,136.61443,146.6246c88.6058,100.006,172.5598,204.2776,249.3899,313.7371,76.6663,109.4891,146.5093,224.199,203.2887,345.566,14.2864,30.2841,27.4192,61.1182,39.754,92.2719q18.5664,46.7058,33.531,94.7885a1084.38144,1084.38144,0,0,1,42.8948,196.5501,6.74595,6.74595,0,1,1-13.3954,1.6107l-.0033-.0329-.0074-.0593a1071.43327,1071.43327,0,0,0-41.448-194.3663q-14.568-47.63475-32.7784-94.1066c-12.0869-30.9627-24.9743-61.6387-39.0228-91.7943-55.82-120.8531-124.8008-235.4313-200.6889-344.9303-76.0511-109.4793-159.3043-213.9222-247.2563-314.1653q-66.0011-75.16515-135.66333-147.0297c-46.43489-47.8439-93.88759-94.8379-143.12559-139.6942l-.0428-.0378a2.8575,2.8575,0,0,1,3.8382-4.2343Z"/>
        </g>
        <path class="cls-5" d="M1084.62618,1695.38151c-.0593,0-.1203,0-.1796-.0033a3.37437,3.37437,0,0,1-3.1917-3.5443,327.03826,327.03826,0,0,1,4.7283-40.8608,3.37232,3.37232,0,1,1,6.6372,1.199,320.47919,320.47919,0,0,0-4.6295,40.011A3.37248,3.37248,0,0,1,1084.62618,1695.38151Z"/>
        <g>
          <rect class="cls-6" x="1278.98578" y="2260.09041" width="249.5984" height="249.5984"/>
          <g>
            <path class="cls-7" d="M38.79,2264.49021a48.98659,48.98659,0,0,0,48.8664,48.8189H2730.14118a48.98625,48.98625,0,0,0,48.8663-48.8189l21.9883-1518.5636c0-26.8499-31.6341-79.2695-89.6106-75.3304L128.85766,603.77361A123.13974,123.13974,0,0,0,2.50128,729.72Z"/>
            <path class="cls-8" d="M87.034,2189.72841c0,25.0018,20.8034,45.4589,46.23032,45.4589h2533.1519c25.4269,0,46.2304-20.4571,46.2304-45.4589l20.7492-1355.5599c-2.4437-81.5746-75.1751-110.8931-119.2636-109.162L138.94076,659.70961a87.211,87.211,0,0,0-63.3773,24.8082,84.24288,84.24288,0,0,0-25.3398,62.2767Z"/>
            <g>
              <path class="cls-5" d="M2685.27178,1562.22761h-.093a6.26623,6.26623,0,0,1-6.1723-6.36l1.6411-111.798a6.42978,6.42978,0,0,1,6.3532-6.1723,6.26514,6.26514,0,0,1,6.1727,6.3596l-1.6414,111.7984A6.26552,6.26552,0,0,1,2685.27178,1562.22761Z"/>
              <path class="cls-5" d="M2689.29588,1288.26051h-.0934a6.26727,6.26727,0,0,1-6.1723-6.36l6.2884-428.1945c-.1191-25.5885-7.8928-46.0191-23.1066-60.5948-28.3498-27.1652-73.3274-25.7582-75.25-25.7018l-791.0697-21.2117a6.26413,6.26413,0,0,1,.1662-12.526,1.58246,1.58246,0,0,1,.1713.0063l790.635,21.2118c4.9062-.2311,52.4162-1.101,84.0145,29.1724,17.7593,17.0214,26.8331,40.4719,26.9674,69.7061l-6.2906,428.3199A6.26537,6.26537,0,0,1,2689.29588,1288.26051Z"/>
            </g>
          </g>
          <path class="cls-9" d="M1991.45218,2465.84041H818.29338a41.923,41.923,0,0,0-41.8781,41.9304,35.63978,35.63978,0,0,0,35.5951,35.6475h1179.4418c19.6587,0,32.9557-14.276,32.9557-33.9347v-6.283C2024.40788,2483.54231,2011.11088,2465.84041,1991.45218,2465.84041Z"/>
        </g>
        <path class="cls-10" d="M2406.73658,2105.58461H427.76718a83.62434,83.62434,0,0,1-83.5919-81.2921L314.61228,912.653A101.91271,101.91271,0,0,1,419.30758,808.07l1954.6408,54.0803a83.62435,83.62435,0,0,1,83.6243,83.6244v1108.9738A50.8361,50.8361,0,0,1,2406.73658,2105.58461Z"/>
        <g>
          <path class="cls-5" d="M1404.19548,1786.69231c-163.6663,0-296.8182-133.1519-296.8182-296.8166,0-163.6655,133.1519-296.8174,296.8182-296.8174,163.6656,0,296.8174,133.1519,296.8174,296.8174C1701.01288,1653.54041,1567.86108,1786.69231,1404.19548,1786.69231Zm0-543.8945c-136.2399,0-247.0786,110.838-247.0786,247.0779,0,136.2391,110.8387,247.0771,247.0786,247.0771,136.2384,0,247.0771-110.838,247.0771-247.0771C1651.27258,1353.63581,1540.43388,1242.79781,1404.19548,1242.79781Z"/>
          <path class="cls-11" d="M1311.21248,1604.18181v-213.3901a29.41725,29.41725,0,0,1,44.4287-25.2985l179.809,106.6959a29.41653,29.41653,0,0,1,0,50.5961l-179.809,106.695A29.41724,29.41724,0,0,1,1311.21248,1604.18181Z"/>
        </g>
        <g>
          <path class="cls-12" d="M1757.35378,1788.78411s71.191,191.8277,179.471,168.2887c0,0,11.1629,65.2744-7.0617,72.9713,0,0-162.4201,4.7079-178.5573-218.3562Z"/>
          <g>
            <path class="cls-13" d="M1760.40788,1833.73661c-.3087,3.3249,12.0556,5.6228,15.9904-8.5517-1.0814-6.1539-3.0028-33.1027-7.7211-37.2893-25.1306-22.2985-69.9436-47.3827-69.9436-47.3827-5.0121,7.6518,1.5608,12.6915,1.5608,12.6915l22.3698,15.0965c-2.3335,7.729-5.7387,14.5619-6.124,23.3857a26.18853,26.18853,0,0,0,6.6119,18.2924c4.4518,5.087,10.4452,11.6548,15.8476,16.6412C1749.22558,1836.058,1760.40788,1833.73661,1760.40788,1833.73661Z"/>
            <path class="cls-14" d="M1748.404,1822.68731c-3.0271-7.375-11.7394-27.4118-15.6674-31.516-2.7175-2.8427-3.9626-5.4284-3.811-7.9054.1284-2.0751,1.2154-3.923,3.3235-5.6457l.8712-.7082,21.0694,11.2651,8.4917,13.2942-2.8426,1.8182-8.0174-12.5563-18.2514-9.7565a3.99293,3.99293,0,0,0-1.2781,2.4967c-.0889,1.4658.8795,3.2709,2.8822,5.3658,5.1714,5.402,15.8963,31.4633,16.3492,32.5701Z"/>
          </g>
          <path class="cls-15" d="M1935.78568,1708.62311s34.3791-31.0519-9.8252-64.7148c-41.5293-31.6262-71.8832,10.8169-58.1196,38.1268a3.32428,3.32428,0,0,1-2.2453,4.7462c-3.6254.7933-6.7644,4.4092-1.0435,17.1673a3.32745,3.32745,0,0,1-.3838,3.3447c-5.0939,6.8289-22.0764,34.186,29.1436,38.3676a3.38042,3.38042,0,0,0,2.5317-.8616Z"/>
          <path class="cls-16" d="M2116.37288,1754.19891s3.2996-39.6246,24.5059-52.5426c21.2063-12.9177,62.3743-23.9012,79.622,19.1817,8.2267,20.5497,5.5022,30.3272.4021,34.9336-4.6501,4.1995-5.1723,10.7284-2.0994,16.2143,3.4936,6.2372,3.9602,13.9506-6.5704,20.9512a13.32027,13.32027,0,0,0-5.8547,8.5566c-2.7503,14.3651-17.451,48.8293-96.0134,11.1482Z"/>
          <path class="cls-17" d="M2025.54128,1682.95371c15.4609-6.63,48.2111-13.3804,73.6868,31.1752a19.46469,19.46469,0,0,0,7.4862,7.4109c15.179,8.369,59.1105,38.7839,19.1062,93.6724a19.04262,19.04262,0,0,0-3.4807,8.4975c-1.3383,9.3024-5.7637,29.907-19.0683,34.9916a19.129,19.129,0,0,0-9.5265,7.9513c-8.9429,14.7217-34.4405,45.6872-77.3369,13.345a19.08687,19.08687,0,0,0-7.3746-3.4064l-59.2422-13.0492a19.19659,19.19659,0,0,0-9.5165.3432c-7.243,2.1154-21.8774,3.9671-27.3223-13.0673a19.49047,19.49047,0,0,0-5.9419-8.9191c-9.9319-8.4428-31.0219-31.3392-15.0686-63.4405a19.36038,19.36038,0,0,0,1.8239-11.599c-1.8699-12.0221-2.8486-38.7176,22.1012-50.2357a18.52652,18.52652,0,0,0,8.777-8.2184c8.3214-16.0168,35.4394-57.0503,83.2232-26.9571A19.0671,19.0671,0,0,0,2025.54128,1682.95371Z"/>
          <path class="cls-18" d="M1945.07748,2624.40251l8.62,9.9637-5.9143,21.6329a15.28519,15.28519,0,0,1-12.0014,11.002c-19.2532,3.5253-62.9143,9.9028-85.3776.2339,0,0-6.987-46.8148,70.4062-32.8688Z"/>
          <path class="cls-19" d="M2080.05738,2649.26521l4.5902,11.2684-1.8608,40.5709c-.2612,5.7023-4.8612,10.4872-11.0618,11.4438-8.464,1.3055-20.7725,2.6262-32.354,1.7313-9.0672-.7005-14.7473-9.2176-11.1988-16.8204l13.6574-29.2632a17.82971,17.82971,0,0,1,10.3428-9.3143Z"/>
          <path class="cls-20" d="M2040.76308,1858.34591l8.8122,87.2888s-47.4483,16.092-78.6987-2.0715l8.4461-87.6424Z"/>
          <path class="cls-21" d="M2116.87188,2336.24381s-22.5237,251.0982-37.3971,327.9268c0,0-11.1291,8.1088-27.7783-2.347l-20.2138-335.0936Z"/>
          <path class="cls-22" d="M2016.78488,2351.32081l-61.703,281.1985s-16.7876,17.4061-38.6038,0l10.6345-295.6108Z"/>
          <path class="cls-23" d="M2094.84058,1952.21021l15.44,1.7218c29.8887,32.0484,84.7154,252.2773,104.4895,299.107l80.4726-13.1439a4.01162,4.01162,0,0,1,4.511,5.4661c-3.5728,8.7304-16.9761,33.9182-69.207,33.9182-24.402,0,13.6876,18.9375-.9057,25.4349,0,0-32.0701-11.5461-32.1214-31.8544,0,0-91.9329-209.4025-110.8356-231.4442C2067.78108,2019.37411,2094.84058,1952.21021,2094.84058,1952.21021Z"/>
          <path class="cls-24" d="M2110.28058,1953.932s-81.783-30.3003-183.869,1.0649c0,0-11.4443,77.289-5.5548,114.0741l175.9139,6.3705Z"/>
          <path class="cls-25" d="M1923.26048,2093.22771s-56.2186,180.482-64.5626,300.7329a11.21216,11.21216,0,0,0,10.4088,11.9637c11.6997.8377,32.3336,3.7195,60.3649,13.0539,45.4541,15.1365,83.09,10.1466,117.0712.3882,26.6721-7.6593,93.3745-14.3574,120.833-16.8843a11.19292,11.19292,0,0,0,9.9972-13.1305c-7.9853-44.4927-38.3124-202.4112-84.3241-309.7534Z"/>
          <path class="cls-26" d="M1920.28238,2064.90451l2.9781,28.3232s54.097.2081,173.6131-3.8118l.6211-20.4868S1965.08968,2071.52161,1920.28238,2064.90451Z"/>
          <path class="cls-27" d="M1920.67188,1773.71851c-13.5829,52.4854-9.6186,112.8018,52.1305,126.3344,42.7226,9.3628,87.6188-34.1679,101.2017-86.6533,13.5826-52.4851-9.6725-92.4551-52.0142-103.4127C1979.64848,1699.02931,1934.25448,1721.23341,1920.67188,1773.71851Z"/>
          <path class="cls-28" d="M1925.31548,1789.90911s-2.0228-31.7356-17.8505-21.9476c-15.8282,9.7878,6.1178,47.822,15.9007,50.0518C1933.14888,1820.24291,1925.31548,1789.90911,1925.31548,1789.90911Z"/>
          <path class="cls-29" d="M2060.72578,1826.51161s4.7352-24.2083,21.8856-13.0191c17.1503,11.1895-15.5726,50.7427-35.7403,41.9437Z"/>
          <path class="cls-30" d="M2086.11018,1807.26511s-49.1022,53.158-74.6127-57.1496c0,0-25.4573,32.9511-37.0762,3.8057,0,0-50.6811,17.3702-56.2813-3.9486-5.6004-21.3185,68.5158-79.1239,128.1191-37.6385C2105.86238,1753.81931,2086.11018,1807.26511,2086.11018,1807.26511Z"/>
        </g>
        <g>
          <path class="cls-31" d="M128.74856,1860.36011s-116.6919,64.6425-126.346,174.0462c-9.6545,109.4037-.8036,563.4944,233.1924,675.2583s543.72812,86.0061,662.28712,73.788c118.5588-12.2181,184.2949-92.7925,198.9792-148.2702,14.6838-55.4773,38.4027-262.1386-86.319-328.8007-124.7218-66.6618-255.7161-168.7902-386.611-268.236C493.03628,1938.69951,268.71156,1776.36521,128.74856,1860.36011Z"/>
          <path class="cls-32" d="M973.76388,2344.09741s-31.4948,1.6657-35.3565,66.4611c0,0,73.0304,65.4682,171.6804,81.0507,7.4061,1.1697-10.3535-50.556-13.0235-57.5626C1084.36078,2400.708,1044.35338,2379.23711,973.76388,2344.09741Z"/>
          <path class="cls-33" d="M619.06808,2267.90981h66.4615s203.9881-225.2857,337.7783-248.0145c0,0,93.1309,118.8811-4.9603,341.0052-7.8909,17.8683-29.9602,25.8069-46.4224,15.2924a26.5764,26.5764,0,0,1-10.6067-12.6436l7.888-189.6581s-174.0027,152.1845-204.2474,181.553C734.71448,2384.813,580.97888,2366.91271,619.06808,2267.90981Z"/>
          <path class="cls-34" d="M1261.61038,2740.90881c-27.8511-24.4046-72.2268-51.7902-136.2888-59.6414l-21.6649,13.2517s13.8151,20.3776,39.0531,41.9026c23.1955,13.4724,59.0126,31.7199,88.7065,35.6749C1260.286,2775.94161,1264.54378,2758.49661,1261.61038,2740.90881Z"/>
          <path class="cls-35" d="M1097.06428,2434.04661c-17.1577,5.5535-24.7038,29.8623-68.2419,13.7874a385.37417,385.37417,0,0,1-89.5445-47.1744c-.3598,3.1343-.6625,6.4079-.8705,9.8993,0,0,77.0033,73.2429,175.6533,88.8251a9.818,9.818,0,0,0,10.605-13.2294A247.76258,247.76258,0,0,0,1097.06428,2434.04661Z"/>
          <path class="cls-36" d="M1282.59168,2761.74881a229.76677,229.76677,0,0,0-20.9813-20.84c2.9334,17.5878-1.3244,35.0328-30.1941,31.1878-29.6939-3.955-65.511-22.2025-88.7065-35.6749,29.0717,24.7943,73.3057,51.1105,129.1352,49.5654C1284.24588,2785.64371,1290.786,2771.06231,1282.59168,2761.74881Z"/>
          <path class="cls-37" d="M621.49988,2315.99791l311.2341,3.3697s177.7375,147.052,209.9758,371.2831c0,0,5.351,16.4916-26.7761,19.3127,0,0-107.4587-70.1837-177.5263-194.2681-85.9136-152.146-256.1194-83.6585-256.1194-83.6585-55.9253-40.3193-134.9493-48.5304-194.4839-61.9628Z"/>
          <path class="cls-38" d="M628.84988,2065.28331s33.5052,167.9119,197.6693,234.3394l58.3946-6.8821,13.7796,21.9704-136.9763,4.3648s-117.0866-46.3754-179.1215-172.7418C580.54608,2142.159,546.38528,2071.62421,628.84988,2065.28331Z"/>
          <path class="cls-39" d="M646.80448,2313.254s-38.1004-103.569-46.2894-204.2032c0,0,27.8732-23.9549,45.2957-34.2898a12.59777,12.59777,0,0,0,4.9204-16.3342c-12.8091-26.5347-90.2713-130.7252-96.073-132.1734-31.5393-7.8712-160.88573-69.3721-251.984,55.2364-39.09619,53.4777,7.7586,218.1006,185.12993,388.5842l36.5915,6.9989Z"/>
          <path class="cls-40" d="M499.99168,2131.74481s105.8555,125.3394,241.1931,143.6624c0,0,34.9767-31.8876,60.9852-20.5029,26.0086,11.3844,61.6709,61.6359,61.6709,61.6359H690.06758s-164.3093-5.7895-246.414-105.4262C450.26038,2176.24961,470.04518,2155.42341,499.99168,2131.74481Z"/>
          <path class="cls-41" d="M438.238,1838.34131l-23.1619,77.2496a8.493,8.493,0,0,0,3.2985,9.4597c11.1511,7.6377,40.2957,22.8259,80.2772,8.0656a12.59556,12.59556,0,0,0,8.1021-10.8165l5.4906-67.2963Z"/>
          <g>
            <path class="cls-42" d="M573.86188,1775.78081s-11.3876,80.0774-42.1485,104.7033-90.6929,6.0835-110.9355-54.2848l40.3333-103.2189Z"/>
            <path class="cls-43" d="M456.56758,1789.77371a3.96339,3.96339,0,0,0,5.1546-3.1764c1.1102-7.3921,3.8822-22.0212,9.4938-31.9854,0,0-2.9354-10.506,26.5512,5.3648,29.4868,15.8711,73.7754,39.1849,99.85,25.3022,25.4221-13.5356,51.1733-81.6551-16.0133-69.0343a3.96369,3.96369,0,0,1-4.7155-4.1505c.8254-11.1956-.2855-36.9527-26.3684-45.2196-24.4081-7.7365-11.3034,4.8032-16.8095,11.4538-1.6201,1.9565,2.0449-6.6618-32.6385-1.6201-11.8996,1.7295-27.1689-29.8634-56.4002-16.9813-24.0777,10.6106-27.8219,25.4411-27.4245,34.6827a3.95182,3.95182,0,0,1-5.6321,3.7695c-7.37383-3.3963-19.23523-5.1606-30.59673,9.075-15.7074,19.6807,6.739,36.7472,13.4727,41.2218a3.96663,3.96663,0,0,1,1.7972,3.2728c.0635,10.235,1.657,54.8801,24.03323,80.063a3.998,3.998,0,0,0,6.6471-1.1484l17.2286-41.0492a3.98243,3.98243,0,0,1,4.8937-2.2493Z"/>
            <path class="cls-44" d="M456.93128,1798.108s-10.5204-42.8507-26.5021-28.9381c-15.9813,13.9125,4.1662,44.5335,22.4741,50.37Z"/>
          </g>
          <path class="cls-45" d="M855.09248,2326.26621l78.0238-260.201a26.60666,26.60666,0,0,1,23.6694-18.9028l105.3424-7.2076a14.94035,14.94035,0,0,1,15.117,19.854l-87.2236,248.4894a21.87056,21.87056,0,0,1-18.4379,14.5159l-103.7346,11.5194Z"/>
          <path class="cls-46" d="M998.98958,2154.254c-5.8253,11.7586-15.8849,18.6463-22.4688,15.3847s-7.1992-15.438-1.3743-27.1963c5.8249-11.7586,15.8845-18.6463,22.4685-15.3847C1004.19928,2130.31941,1004.81448,2142.49541,998.98958,2154.254Z"/>
          <path class="cls-47" d="M867.849,2334.33351c-.1693,0-.3385-.0039-.509-.0137l-221.0353-11.1722a9.90573,9.90573,0,1,1,1.0003-19.7862l221.0354,11.1721a9.90631,9.90631,0,0,1-.4914,19.8Z"/>
          <path class="cls-48" d="M600.51728,2110.80291a1.75355,1.75355,0,0,1-1.7522-1.759c.1494-46.176-17.6717-107.4803-17.8551-108.095a1.7548,1.7548,0,1,1,3.3686-.9848c.1834.6181,18.1472,62.4012,17.991,109.0934A1.75073,1.75073,0,0,1,600.51728,2110.80291Z"/>
          <path class="cls-48" d="M499.995,2133.497a1.75545,1.75545,0,0,1-1.3787-.6656c-.4822-.6146-48.8316-62.0683-65.4506-104.1864a1.753,1.753,0,0,1,3.26-1.2904c16.4356,41.6393,64.459,102.6923,64.948,103.3035a1.75412,1.75412,0,0,1-1.3787,2.8389Z"/>
          <path class="cls-48" d="M431.96358,2227.45871l-1.304-.5569c-69.93983-29.9441-113.14113-113.4468-113.569-114.2855a1.75415,1.75415,0,0,1,3.1242-1.5961c.421.8252,42.5221,82.1851,110.52633,112.0919l7.2059-10.1806a1.75429,1.75429,0,1,1,2.866,2.0239Z"/>
        </g>
        <g>
          <circle class="cls-49" cx="1381.46025" cy="659.67891" r="360.72109" transform="translate(-61.84309 1170.05539) rotate(-45)"/>
          <circle class="cls-50" cx="1381.46023" cy="659.67884" r="348.72671"/>
          <path class="cls-5" d="M1059.99438,645.969c-.0593,0-.1202,0-.1795-.0033a3.37532,3.37532,0,0,1-3.1918-3.5475,327.237,327.237,0,0,1,4.7284-40.8575,3.37231,3.37231,0,1,1,6.6372,1.199,320.86881,320.86881,0,0,0-4.6296,40.0142A3.372,3.372,0,0,1,1059.99438,645.969Z"/>
          <path class="cls-5" d="M1093.90178,518.18881a3.37256,3.37256,0,0,1-3.0074-4.8914c55.6998-110.3521,167.0385-178.9047,290.5662-178.9047a328.03656,328.03656,0,0,1,58.6791,5.2801,3.37157,3.37157,0,1,1-1.2088,6.6339,321.58,321.58,0,0,0-57.4703-5.1681c-120.9667,0-229.998,67.1329-284.5449,175.1958A3.37166,3.37166,0,0,1,1093.90178,518.18881Z"/>
          <circle class="cls-51" cx="1389.05848" cy="667.27701" r="295.15405" transform="translate(-64.99029 1177.65358) rotate(-45)"/>
          <g>
            <path class="cls-5" d="M1349.09708,613.682q0,37.46775-23.4173,57.3128t-66.6004,19.8452h-21.1152v82.5558h-49.216V541.28691h74.1415q42.23055,0,64.2189,18.1782T1349.09708,613.682Zm-111.1329,36.8326h16.1936q22.70295,0,33.9749-8.97t11.2721-26.1162q0-17.305-9.4463-25.5606t-29.609-8.2555h-22.3853Z"/>
            <path class="cls-5" d="M1497.28738,643.05281h92.0816v120.3411a259.61773,259.61773,0,0,1-42.1512,10.2401,274.56148,274.56148,0,0,1-40.4047,2.937q-52.54995,0-80.2538-30.879t-27.7038-88.6682q0-56.2014,32.1491-87.6362,32.1492-31.4346,89.1445-31.4347a172.48134,172.48134,0,0,1,68.9023,14.2885l-16.3524,39.3728a116.78979,116.78979,0,0,0-52.8675-12.7009q-31.911,0-51.1211,21.4328t-19.2101,57.6303q0,37.78515,15.4792,57.7097t45.0088,19.9245a159.20556,159.20556,0,0,0,31.276-3.1752v-48.4222h-43.9769Z"/>
          </g>
        </g>
        <g>
          <circle class="cls-52" cx="2071.22048" cy="1206.60571" r="360.72105" transform="translate(-246.55265 1817.98068) rotate(-45)"/>
          <circle class="cls-53" cx="2071.22048" cy="1206.60564" r="348.72669"/>
          <path class="cls-5" d="M1783.66188,1065.11741a3.37267,3.37267,0,0,1-3.0073-4.8915c55.7014-110.3554,167.0401-178.908,290.5661-178.908a328.03767,328.03767,0,0,1,58.6792,5.2801,3.3711,3.3711,0,0,1,2.7141,3.9231,3.33576,3.33576,0,0,1-3.923,2.7108,321.58,321.58,0,0,0-57.4703-5.1681c-120.9667,0-229.9963,67.1329-284.5449,175.1991A3.37164,3.37164,0,0,1,1783.66188,1065.11741Z"/>
          <circle class="cls-51" cx="2078.81875" cy="1214.20381" r="295.15409" transform="translate(-249.69983 1825.5789) rotate(-45)"/>
          <path class="cls-5" d="M2061.31488,1184.62481h104.2515v136.2459a293.92775,293.92775,0,0,1-47.722,11.5935,310.849,310.849,0,0,1-45.7449,3.3252q-59.4951,0-90.8605-34.9601t-31.3653-100.387q0-63.6294,36.3981-99.2186t100.9262-35.5893a195.27867,195.27867,0,0,1,78.0089,16.1769l-18.5136,44.5765a132.22679,132.22679,0,0,0-59.8548-14.3795q-36.1284,0-57.8775,24.2654t-21.749,65.2471q0,42.77895,17.525,65.3369,17.5251,22.55775,50.9574,22.5578a180.24492,180.24492,0,0,0,35.4096-3.5949v-54.8218h-49.7891Z"/>
        </g>
        <g>
          <circle class="cls-54" cx="490.67255" cy="1193.05819" r="372.45449" transform="translate(-699.90487 696.39654) rotate(-45)"/>
          <circle class="cls-55" cx="490.67255" cy="1193.05819" r="360.06989" transform="translate(-699.90487 696.39654) rotate(-45)"/>
          <path class="cls-5" d="M158.75128,1178.793c-.05932,0-.11862,0-.17952-.0033a3.37544,3.37544,0,0,1-3.1918-3.5442,336.90161,336.90161,0,0,1,4.8799-42.175,3.37231,3.37231,0,1,1,6.6372,1.1989,330.87408,330.87408,0,0,0-4.7811,41.3253A3.37245,3.37245,0,0,1,158.75128,1178.793Z"/>
          <path class="cls-5" d="M193.75876,1046.856a3.37256,3.37256,0,0,1-3.0073-4.8914c57.495-113.9063,172.419-184.6658,299.92082-184.6658a338.72277,338.72277,0,0,1,60.5682,5.4514,3.37158,3.37158,0,1,1-1.2089,6.6339,332.26528,332.26528,0,0,0-59.3593-5.3394c-124.94243,0-237.55752,69.3398-293.89962,180.9568A3.37146,3.37146,0,0,1,193.75876,1046.856Z"/>
          <circle class="cls-56" cx="498.5177" cy="1200.90361" r="304.75482"/>
          <g>
            <path class="cls-57" d="M378.65755,1079.48991V1363.79H304.966v-186.2921a222.57848,222.57848,0,0,1-34.61059,23.4537q-16.7262,8.9649-41.9433,17.1603v-63.6861q37.20015-12.7722,57.77329-30.6984a124.5358,124.5358,0,0,0,32.1945-44.2375Z"/>
            <path class="cls-58" d="M459.48958,1213.53641q-17.1711-9.72495-25.0411-21.7371-10.7307-16.397-10.7317-37.7541,0-35.08185,30.9438-57.3937,24.147-17.1612,63.8543-17.1616,52.5855,0,77.7152,21.3564,25.1286,21.357,25.1307,53.7705a66.47916,66.47916,0,0,1-10.0167,35.2749q-7.5111,12.2064-23.6094,23.6447,21.2835,10.86855,31.7481,28.7918a77.239,77.239,0,0,1,10.4634,39.6608,86.97287,86.97287,0,0,1-9.0329,39.1847q-9.03315,18.211-22.1791,28.1249-13.1454,9.9159-32.7322,14.5867a179.6507,179.6507,0,0,1-41.7638,4.6711q-41.67765,0-63.6749-10.4872-22.001-10.48335-33.4479-30.8894-11.448-20.40075-11.4475-45.5714,0-24.59865,10.7316-41.6627Q437.13153,1222.88156,459.48958,1213.53641Zm28.7974,65.402q0,18.4971,10.5521,30.2222,10.5513,11.72745,24.1468,11.7268,13.05525,0,23.4312-11.9178,10.3707-11.913,10.3738-30.2222,0-18.492-10.4637-30.3177-10.46265-11.8197-24.2355-11.8212-13.595,0-23.6991,11.4405Q488.28588,1259.49011,488.287,1278.93841Zm3.9347-120.3177q0,14.49375,8.4954,23.3584,8.4945,8.866,22.6269,8.867,12.5181,0,20.5688-8.7717,8.04975-8.76855,8.0492-22.6901,0-14.48865-8.407-23.5494-8.40915-9.0534-21.4633-9.0566-13.239,0-21.5528,8.8659Q492.22153,1144.51146,492.22168,1158.62071Z"/>
          </g>
          <path class="cls-59" d="M727.96478,1132.36421v53.427h49.919v29.9514h-49.919v53.7004h-33.9996v-53.7004h-49.6506v-29.9514h49.6506v-53.427Z"/>
        </g>
        <g>
          <g>
            <path class="cls-60" d="M2337.06368,286.18891a164.07275,164.07275,0,0,1,49.864-23.1981c6.6978-1.8228,42.8613,8.6879,65.2166,8.1741,30.6866-.7053,61.923-14.6707,87.2179-8.3671,25.1261,6.2616,45.6908,14.44,57.5647,22.8852,35.5418,25.2788,56.4096,72.4145,69.1263,119.1037-24.0794,24.7178-54.382,35.7035-54.382,35.7035l-5.5996,226.9456-134.1971,68.6606-153.1699-76.8998,5.4866-221.7806s-48.6393-22.6511-52.2081-30.8904S2294.15108,315.69371,2337.06368,286.18891Z"/>
            <path class="cls-61" d="M2346.68538,579.92751s-20.5046.3549-35.7168,12.0981c-12.5641,9.699-25.2768,57.2368-16.0867,88.6892,20.3173,69.5339,198.5329,35.2794,249.0892,32.2996s96.7303-27.957,81.6857-88.685S2346.68538,579.92751,2346.68538,579.92751Z"/>
            <path class="cls-62" d="M2409.74908,76.58881c-.6176,1.1697-39.5043,29.7847-39.5043,29.7847s8.5875,61.4356,43.4598,85.6954c38.3397,26.6719,92.4849-21.9689,92.4849-21.9689s43.0904,10.2431,66.0058-79.455c5.2574-20.579-25.09-22.3185-61.7161-18.5284C2463.24768,77.00421,2409.74908,76.58881,2409.74908,76.58881Z"/>
            <path class="cls-63" d="M2274.24858,405.53481s-65.179,180.7025,83.453,254.9706c30.862-4.1002,18.992-55.3525,18.992-55.3525s-64.5815-14.2919-45.1858-165.0322C2313.65068,425.42841,2274.24858,405.53481,2274.24858,405.53481Z"/>
            <path class="cls-64" d="M2662.919,405.53481s44.85,188.6288-83.453,254.9706c-30.8621-4.1002-18.9921-55.3525-18.9921-55.3525s52.0493-25.6333,45.1858-165.0322C2623.51688,425.42841,2662.919,405.53481,2662.919,405.53481Z"/>
            <g>
              <rect class="cls-65" x="2311.21758" y="463.17681" width="283.1658" height="191.233" rx="3.7045"/>
              <path class="cls-5" d="M2574.74778,658.56821H2330.854a23.82213,23.82213,0,0,1-23.7955-23.7929V482.81241a23.82434,23.82434,0,0,1,23.7955-23.7954h243.8938a23.82431,23.82431,0,0,1,23.7954,23.7954v151.9629A23.82211,23.82211,0,0,1,2574.74778,658.56821ZM2330.854,467.33531a15.49433,15.49433,0,0,0-15.4772,15.4771v151.9629a15.49213,15.49213,0,0,0,15.4772,15.4746h243.8938a15.492,15.492,0,0,0,15.4771-15.4746V482.81241a15.49425,15.49425,0,0,0-15.4771-15.4771Z"/>
            </g>
            <g>
              <g>
                <path class="cls-66" d="M2364.75148,1115.31131c10.4222-32.9018,53.5454-97.8718,53.5454-97.8718l9.018,1.5838,39.4955,16.9114s-26.0985,70.5813-44.6832,102.0446a34.4958,34.4958,0,0,1-6.5311,8.0622c-1.4296.4574-2.8786.874-4.3735,1.1957C2388.717,1152.07951,2369.49528,1135.71671,2364.75148,1115.31131Z"/>
                <path class="cls-67" d="M2363.78688,1118.61161c.2794-1.0583.6041-2.1615.9646-3.3003,4.7438,20.4054,23.9655,36.7682,46.4711,31.9259,1.4949-.3217,2.9439-.7383,4.3735-1.1957C2394.30188,1165.367,2356.29208,1147.00821,2363.78688,1118.61161Z"/>
                <path class="cls-68" d="M2427.58138,996.96431l-6.2079,11.6383a25.21857,25.21857,0,0,0-1.1294,20.7666,31.08827,31.08827,0,0,0,15.0188,16.5975,24.74758,24.74758,0,0,0,17.6736,2.03,20.08,20.08,0,0,0,12.8951-10.3419l9.0015-18.0963Z"/>
              </g>
              <path class="cls-69" d="M2533.41908,576.45081c-38.1631-3.5244-61.1384,26.4768-62.0277,62.2562.3707.8347-6.0442,189.4113-51.8329,366.835a193.003,193.003,0,0,1,48.4074,17.138q5.06745,2.6055,9.7635,5.568c59.3862-122.7356,90.682-236.5506,116.7979-367.0775C2602.34188,620.53871,2575.71718,580.35641,2533.41908,576.45081Z"/>
            </g>
            <g>
              <g>
                <path class="cls-70" d="M2662.61718,1008.96571c-18.4497-29.2157-76.6099-81.113-76.6099-81.113l-8.2875,3.8531-33.7487,26.5445s43.184,61.7123,69.1338,87.4357a34.4,34.4,0,0,0,8.3544,6.1367c1.4947.076,2.9978.1074,4.5209.035C2648.90938,1050.76751,2663.257,1029.96551,2662.61718,1008.96571Z"/>
                <path class="cls-71" d="M2664.38988,1011.917c-.5396-.9541-1.1343-1.9401-1.7727-2.9513.6398,20.9998-13.7078,41.8018-36.637,42.892-1.5231.0724-3.0262.041-4.5209-.035C2646.92028,1065.08351,2678.86718,1037.51781,2664.38988,1011.917Z"/>
                <path class="cls-72" d="M2571.82838,910.39071l8.9563,9.6864a25.3816,25.3816,0,0,1,6.393,19.8405,31.24265,31.24265,0,0,1-10.2366,19.9494,24.60168,24.60168,0,0,1-16.5164,6.5101,19.96953,19.96953,0,0,1-15.0708-6.7109l-13.2985-15.2287Z"/>
              </g>
              <path class="cls-73" d="M2536.96148,946.87591a117.08692,117.08692,0,0,1,46.7916-30.8581c.7121-.3857,1.4351-.7171,2.1506-1.0864-4.9826-9.3733-11.2793-21.6225-19.3766-37.8903-59.0647-119.4665-96.6193-180.5755-126.42-280.8548-11.577-38.9567-49.553-58.2641-87.39-36.3639-33.7774,19.55-40.5593,58.1425-24.4209,90.098,48.2819,95.6032,138.2198,223.3675,205.8017,300.1396C2535.049,948.99421,2535.99288,947.91911,2536.96148,946.87591Z"/>
            </g>
            <path class="cls-74" d="M2386.92768,262.99081s13.5606,58.7653,79.3986,57.5451c67.0582-1.2202,73.0359-57.7381,73.0359-57.7381l-43.804-9.3731-3.6606-48.8081-65.891,4.8808-1.2202,46.3678Z"/>
            <path class="cls-75" d="M2435.25708,66.32721s-75.511,146.2687,14.0624,181.7552c63.1809,25.0305,102.7939-97.1335,90.9787-130.2213-18.2687-51.1605-30.3-45.0894-30.3-45.0894Z"/>
            <path class="cls-76" d="M2558.46868,53.01791c37.304,10.2533,5.4227,91.1569-50.7401,72.025s-78.2327-18.8527-86.9847-3.4305-10.6322,70.1885-29.6212,43.119c-20.8187-29.6779-32.4273-89.2461-6.9014-108.4489,22.8126-17.1616,28.1361-43.77,55.498-42.8477,36.3185,1.2242,64.4053-14.8747,80.7985-3.2646C2539.34558,23.50451,2531.02058,45.47361,2558.46868,53.01791Z"/>
            <path class="cls-77" d="M2417.29018,134.18951s-16.1043-17.3276-18.6823,3.5568,5.698,47.7821,15.3941,33.0384S2417.29018,134.18951,2417.29018,134.18951Z"/>
          </g>
          <path class="cls-78" d="M2481.43468,528.28011c1.5602,10.5437-4.0888,20.1142-14.6325,21.6744a19.29887,19.29887,0,0,1-21.9161-16.266c-1.5603-10.5437,3.2658-21.0157,13.8095-22.5759S2479.87438,517.73641,2481.43468,528.28011Z"/>
        </g>
      </g>
    </g>
  </g>
</svg>
