<svg xmlns="http://www.w3.org/2000/svg" xmlns:xlink="http://www.w3.org/1999/xlink" viewBox="0 0 2831.28876 2799.99998">
  <defs>
    <style>
      .cls-1 {
        fill: none;
      }

      .cls-2 {
        fill: url(#linear-gradient);
      }

      .cls-3 {
        fill: #91b3fa;
      }

      .cls-22, .cls-23, .cls-4 {
        fill: #fff;
      }

      .cls-4 {
        opacity: 0.43;
      }

      .cls-17, .cls-5 {
        fill: #7d97f4;
      }

      .cls-6 {
        fill: url(#linear-gradient-2);
      }

      .cls-7 {
        fill: url(#linear-gradient-3);
      }

      .cls-8 {
        fill: url(#linear-gradient-4);
      }

      .cls-9 {
        fill: url(#linear-gradient-5);
      }

      .cls-10 {
        fill: url(#linear-gradient-6);
      }

      .cls-11 {
        fill: url(#linear-gradient-7);
      }

      .cls-12 {
        fill: url(#linear-gradient-8);
      }

      .cls-13 {
        fill: url(#linear-gradient-9);
      }

      .cls-14 {
        fill: url(#linear-gradient-10);
      }

      .cls-15 {
        fill: url(#linear-gradient-11);
      }

      .cls-16 {
        clip-path: url(#clip-path);
      }

      .cls-17 {
        opacity: 0.75;
      }

      .cls-18 {
        fill: url(#linear-gradient-12);
      }

      .cls-19 {
        fill: url(#linear-gradient-13);
      }

      .cls-20 {
        fill: url(#linear-gradient-14);
      }

      .cls-21 {
        fill: url(#linear-gradient-15);
      }

      .cls-22 {
        opacity: 0.36;
      }

      .cls-24 {
        fill: url(#linear-gradient-16);
      }

      .cls-25 {
        fill: url(#linear-gradient-17);
      }

      .cls-26 {
        fill: url(#linear-gradient-18);
      }

      .cls-27 {
        fill: url(#linear-gradient-19);
      }

      .cls-28 {
        fill: url(#linear-gradient-20);
      }

      .cls-29 {
        fill: url(#linear-gradient-21);
      }

      .cls-30 {
        fill: url(#linear-gradient-22);
      }

      .cls-31 {
        fill: url(#linear-gradient-23);
      }

      .cls-32 {
        fill: url(#linear-gradient-24);
      }

      .cls-33 {
        fill: url(#linear-gradient-25);
      }

      .cls-34 {
        fill: url(#linear-gradient-26);
      }

      .cls-35 {
        fill: url(#linear-gradient-27);
      }

      .cls-36 {
        fill: url(#linear-gradient-28);
      }

      .cls-37 {
        fill: url(#linear-gradient-29);
      }
    </style>
    <linearGradient id="linear-gradient" x1="3012.35246" y1="3229.05845" x2="1076.86869" y2="1168.70529" gradientUnits="userSpaceOnUse">
      <stop offset="0" stop-color="#dae3fe"/>
      <stop offset="1" stop-color="#e9effd"/>
    </linearGradient>
    <linearGradient id="linear-gradient-2" x1="527.71523" y1="2207.30956" x2="1779.55736" y2="-269.92818" gradientTransform="matrix(0.9848, -0.1735, 0.1735, 0.9848, -11.48719, 71.22023)" gradientUnits="userSpaceOnUse">
      <stop offset="0" stop-color="#09005d"/>
      <stop offset="1" stop-color="#1a0f91"/>
    </linearGradient>
    <linearGradient id="linear-gradient-3" x1="111.10802" y1="1856.77147" x2="1285.7907" y2="-467.77744" xlink:href="#linear-gradient-2"/>
    <linearGradient id="linear-gradient-4" x1="733.44015" y1="632.00615" x2="317.77355" y2="1592.65619" xlink:href="#linear-gradient-2"/>
    <linearGradient id="linear-gradient-5" x1="503.82516" y1="1011.77234" x2="173.10406" y2="1613.50105" gradientTransform="translate(194.69662 -14.66499)" xlink:href="#linear-gradient-2"/>
    <linearGradient id="linear-gradient-6" x1="-2186.4337" y1="4.32329" x2="-892.00989" y2="-2557.17822" gradientTransform="matrix(-0.9848, 0.1735, -0.1735, -0.9848, -344.12467, 940.40258)" xlink:href="#linear-gradient-2"/>
    <linearGradient id="linear-gradient-7" x1="215.46709" y1="1415.81699" x2="1905.19458" y2="1415.81699" gradientUnits="userSpaceOnUse">
      <stop offset="0" stop-color="#4f52ff"/>
      <stop offset="1" stop-color="#4042e2"/>
    </linearGradient>
    <linearGradient id="linear-gradient-8" x1="446.26634" y1="1074.05222" x2="621.41918" y2="732.96495" gradientTransform="translate(134.22882 -36.31431)" xlink:href="#linear-gradient-2"/>
    <linearGradient id="linear-gradient-9" x1="665.36371" y1="769.76256" x2="825.9583" y2="457.02557" gradientTransform="translate(80.92543 -68.56795)" xlink:href="#linear-gradient-2"/>
    <linearGradient id="linear-gradient-10" x1="-2635.63965" y1="1336.37648" x2="-1321.61598" y2="1336.37648" gradientTransform="matrix(-0.9866, 0.1629, 0.1629, 0.9866, -168.25056, 253.22162)" xlink:href="#linear-gradient-2"/>
    <linearGradient id="linear-gradient-11" x1="1549.45931" y1="2000.01161" x2="2910.24971" y2="-23.26505" xlink:href="#linear-gradient-7"/>
    <clipPath id="clip-path">
      <path class="cls-1" d="M1732.84082,2093.0964c-35.8082,0-67.0603-27.4225-74.3132-65.2048L1390.24572,630.1663a81.60753,81.60753,0,0,1,11.8674-60.9905c11.438-17.2027,28.5475-28.4562,48.1789-31.6892.5964-.0991,1.2221-.1963,1.8496-.2818l963.284-123.4927a75.03625,75.03625,0,0,1,10.3674-.7402c36.838,0,68.2591,28.3201,74.7135,67.3381l227.6766,1376.5182a81.535,81.535,0,0,1-12.8836,59.683c-11.4516,16.7286-28.3668,27.6906-47.629,30.8654l-922.7078,144.6978A74.04019,74.04019,0,0,1,1732.84082,2093.0964Z"/>
    </clipPath>
    <linearGradient id="linear-gradient-12" x1="1576.29466" y1="1319.19296" x2="2312.1689" y2="891.16351" gradientUnits="userSpaceOnUse">
      <stop offset="0" stop-color="#fe7062"/>
      <stop offset="1" stop-color="#ff928e"/>
    </linearGradient>
    <linearGradient id="linear-gradient-13" x1="2326.79003" y1="1049.67253" x2="2691.09888" y2="1173.74873" xlink:href="#linear-gradient-12"/>
    <linearGradient id="linear-gradient-14" x1="1535.85944" y1="1349.52437" x2="3041.22854" y2="-34.87895" gradientUnits="userSpaceOnUse">
      <stop offset="0" stop-color="#e1473d"/>
      <stop offset="1" stop-color="#e9605a"/>
    </linearGradient>
    <linearGradient id="linear-gradient-15" x1="2065.87394" y1="744.84703" x2="3447.87206" y2="-59.00756" xlink:href="#linear-gradient-12"/>
    <linearGradient id="linear-gradient-16" x1="191.28107" y1="2649.43844" x2="369.62969" y2="2649.43844" gradientTransform="matrix(0.7989, 0.6014, -0.6014, 0.7989, 2593.1742, 455.59625)" xlink:href="#linear-gradient-2"/>
    <linearGradient id="linear-gradient-17" x1="-1469.09733" y1="5074.08399" x2="-1273.21846" y2="5074.08399" gradientTransform="translate(4263.69476 5821.04997) rotate(114.38136)" xlink:href="#linear-gradient-2"/>
    <linearGradient id="linear-gradient-18" x1="1441.80171" y1="2597.5542" x2="400.1394" y2="682.24082" xlink:href="#linear-gradient-7"/>
    <linearGradient id="linear-gradient-19" x1="1415.63478" y1="2052.38727" x2="737.40323" y2="2380.9424" gradientTransform="matrix(0.6709, -0.7415, 0.7415, 0.6709, -945.48427, 773.25978)" gradientUnits="userSpaceOnUse">
      <stop offset="0" stop-color="#febbba"/>
      <stop offset="1" stop-color="#ff928e"/>
    </linearGradient>
    <linearGradient id="linear-gradient-20" x1="1126.30513" y1="2120.18985" x2="548.37508" y2="1801.67098" gradientTransform="matrix(0.6709, -0.7415, 0.7415, 0.6709, -945.48427, 773.25978)" xlink:href="#linear-gradient-12"/>
    <linearGradient id="linear-gradient-21" x1="975.44162" y1="1372.12122" x2="405.30943" y2="2280.76785" xlink:href="#linear-gradient-12"/>
    <linearGradient id="linear-gradient-22" x1="1023.08561" y1="1364.55622" x2="1072.52148" y2="1223.57256" gradientTransform="matrix(1, 0, 0, 1, 0, 0)" xlink:href="#linear-gradient-19"/>
    <linearGradient id="linear-gradient-23" x1="-5580.97936" y1="1070.72061" x2="-5826.84254" y2="1258.84344" gradientTransform="translate(6781.9826)" xlink:href="#linear-gradient-19"/>
    <linearGradient id="linear-gradient-24" x1="-5748.03585" y1="914.50606" x2="-5518.87686" y2="1209.54776" gradientTransform="translate(6781.9826)" xlink:href="#linear-gradient-2"/>
    <linearGradient id="linear-gradient-25" x1="-5607.63488" y1="1030.77965" x2="-5854.4068" y2="1219.5978" gradientTransform="translate(6781.9826)" xlink:href="#linear-gradient-19"/>
    <linearGradient id="linear-gradient-26" x1="771.71596" y1="1712.20915" x2="869.16201" y2="1009.92631" gradientTransform="matrix(1, 0, 0, 1, 0, 0)" xlink:href="#linear-gradient-19"/>
    <linearGradient id="linear-gradient-27" x1="1494.94694" y1="2568.6468" x2="453.28541" y2="653.33485" xlink:href="#linear-gradient-7"/>
    <linearGradient id="linear-gradient-28" x1="-4015.01434" y1="1113.09292" x2="-3793.76517" y2="1616.48464" gradientTransform="matrix(-0.9957, 0.0928, 0.0928, 0.9957, -2607.44636, 580.33059)" xlink:href="#linear-gradient-19"/>
    <linearGradient id="linear-gradient-29" x1="1853.13122" y1="1550.15056" x2="1909.84775" y2="1550.15056" gradientTransform="translate(-702.10564 212.71721) rotate(-17.48186)" gradientUnits="userSpaceOnUse">
      <stop offset="0" stop-color="#f9b776"/>
      <stop offset="1" stop-color="#f47960"/>
    </linearGradient>
  </defs>
  <g id="katman_2" data-name="katman 2">
    <g id="Illustration">
      <g>
        <path class="cls-2" d="M2431.22512,2402.4534c-71.4501,73.6484-135.3812,116.9413-184.3291,149.6245-477.3788,318.7502-1023.0752,226.8789-1191.791,195.4773-272.2021-50.6626-501.9783-86.4029-699.3971-264.7627-448.5951-405.288-426.7764-1250.749-83.9949-1774.4753,40.6436-62.0989,382.9061-569.4381,929.7837-640.9266,13.3759-1.7485,23.356-2.7443,32.0972-3.6697,84.6006-8.9573,608.8543-56.2321,1036.3309,301.9078,61.1914,51.2658,159.6656,143.7364,250.9831,284.7694C2854.80672,1166.0776,2855.86452,1964.7516,2431.22512,2402.4534Z"/>
        <g>
          <path class="cls-3" d="M193.59372,50.1616c5.869-16.8773,30.5173-14.664,33.2081,3.0008,26.0169,170.7842,108.265,616.4734,288.0187,869.7183,292.681,412.3406,443.7641,1042.043,188.7414,1327.21C703.56192,2250.0907-445.84158,1889.0994,193.59372,50.1616Z"/>
          <path class="cls-4" d="M201.85582,290.3582c-.0558,4.3923.2199,9.3013.3774,14.0151l.7285,14.2726,1.7785,28.5404c1.2929,19.0258,2.7859,38.0369,4.3348,57.043q4.804,57.01095,10.9075,113.899,11.9559,113.7882,28.2893,227.0497c22.0218,150.9251,48.9165,301.1776,83.3651,449.7286,17.5098,74.1934,35.8039,148.2228,56.9856,221.4532,2.4972,9.1979,5.2142,18.3285,8.0002,27.4411l8.2463,27.3672,8.2462,27.3673c2.8188,9.1011,5.8574,18.1299,8.7779,27.1999,5.9558,18.0971,11.6426,36.2878,17.8215,54.3095l18.888,53.947c1.5849,4.4923,3.0879,9.0141,4.7384,13.4818l5.0436,13.3686,10.0839,26.7388,10.0839,26.7422c3.4717,8.8697,7.1765,17.6459,10.7565,26.473l10.8222,26.4501c3.6851,8.7828,7.0387,17.7116,11.0421,26.3566l23.2458,52.2143a2164.05866,2164.05866,0,0,0,106.1317,202.411l.0099.0164a1.67874,1.67874,0,0,1-2.8647,1.7507c-40.5423-64.7856-76.5824-132.3013-109.5806-201.2461l-23.7905-52.1618c-4.0952-8.6384-7.5375-17.5558-11.3111-26.3336l-11.0979-26.4304c-3.6686-8.8222-7.4652-17.5935-11.0289-26.4583l-10.3562-26.7274-10.3563-26.729-5.1781-13.3653c-1.6965-4.4661-3.2453-8.9846-4.8762-13.4753-52.2439-143.6895-94.1742-290.9657-128.3767-439.8826l-12.5351-55.9158-11.6918-56.0947c-4.0263-18.6714-7.3964-37.4741-11.1077-56.2095l-5.4439-28.1252-5.0764-28.1926q-20.4861-112.7373-35.9745-226.295c-10.2578-75.6865-19.3113-151.5371-26.4222-227.5764q-5.2569-57.038-9.3455-114.1696c-1.2831-19.0488-2.5202-38.1009-3.5506-57.1677l-1.3847-28.6126-.5349-14.3218c-.0788-4.8221-.3314-9.4473-.151-14.5959a1.66757,1.66757,0,0,1,3.334.0771Z"/>
        </g>
        <g>
          <path class="cls-5" d="M537.18042,3.6744c6.761-8.0952,19.9099-1.7316,17.711,8.5837-21.2586,99.7298-68.8095,362.9843-22.378,540.3146,75.6007,288.7345,27.6754,667.9551-172.6244,772.2226C359.889,1324.7953-199.48418,885.7104,537.18042,3.6744Z"/>
          <path class="cls-4" d="M492.244,138.3552c-.8598,2.2806-1.7425,5.1059-2.6055,7.7294l-2.5136,8.0445-4.8467,16.1594q-4.7745,16.1841-9.3619,32.4273-9.106,32.5059-17.4737,65.2105-16.90275,65.359-31.3575,131.3037c-19.0193,87.9493-35.5742,176.4532-47.4005,265.6182-5.7261,44.5949-11.1733,89.2373-14.7796,134.0503-3.5801,44.8032-6.1626,89.6967-6.9173,134.6311-.7252,44.9197-.2789,89.8952,2.7761,134.7345a1306.28368,1306.28368,0,0,0,15.6361,133.878l.0033.0197a1.68007,1.68007,0,0,1-3.3012.6235c-9.211-44.1961-15.2029-89.0256-19.2719-134.006-3.7605-45.0231-4.9025-90.2086-4.8631-135.3694,1.0074-90.3316,8.4202-180.5025,20.6567-269.9268,6.028-44.7326,13.5261-89.2438,21.6477-133.622,8.1642-44.3717,17.2637-88.5728,27.5805-132.4867,10.2546-43.9238,21.1752-87.6917,33.2641-131.1413q9.1257-32.5725,18.9142-64.948c3.3143-10.7779,6.6285-21.5526,10.1069-32.2812l5.329-16.0594,2.7564-8.0084c.991-2.6908,1.8081-5.2405,3.0682-8.1774a1.66424,1.66424,0,0,1,3.0878,1.2404Z"/>
        </g>
        <g>
          <g>
            <path class="cls-6" d="M938.88212,1444.4756c-93.6526-531.5416,86.9092-1030.3159,421.2897-1267.2194-110.5822-30.3181-225.2641-36.029-340.4836-16.9912-591.1417,97.6747-855.3205,719.2862-735.4629,1399.5551,119.8571,680.2689,643.4624,1156.601,1169.5048,1063.9168,115.009-20.2637,220.6121-66.0494,314.1733-132.3361C1372.69132,2383.0449,1032.53522,1976.0169,938.88212,1444.4756Z"/>
            <path class="cls-7" d="M1360.17182,177.2562c-110.5822-30.3181-225.2637-36.0286-340.4836-16.9912-532.2042,87.9362-799.3788,600.5455-759.9007,1198.297,6.9145,104.6967,95.0071,182.3449,187.5412,166.0412l328.7321-57.9193c87.1432-15.3542,147.8889-100.9173,141.5231-199.52C887.70382,804.333,1063.30012,387.5851,1360.17182,177.2562Z"/>
            <path class="cls-8" d="M1360.17182,177.2562c-110.5822-30.3181-225.2637-36.0286-340.4836-16.9912-532.2042,87.9362-799.3788,600.5455-759.9007,1198.297,6.9145,104.6967,95.0071,182.3449,187.5412,166.0412l328.7321-57.9193c87.1432-15.3542,147.8889-100.9173,141.5231-199.52C887.70382,804.333,1063.30012,387.5851,1360.17182,177.2562Z"/>
            <ellipse class="cls-9" cx="582.82087" cy="1207.53555" rx="152.63369" ry="116.45642" transform="translate(-200.68587 119.44573) rotate(-9.99231)"/>
            <path class="cls-10" d="M1859.05472,1282.349c93.6531,531.5417-110.8333,1108.273-445.2141,1345.1765,160.7061-25.0753,249.3991-40.7025,364.4085-60.9658,526.042-92.6841,855.3204-719.2866,735.4629-1399.5551-119.8572-680.2689-643.4628-1156.601-1169.5048-1063.9169-115.0091,20.2637-364.9203,41.6177-490.2905,86.3848C1373.88822,246.8857,1765.40212,750.8078,1859.05472,1282.349Z"/>
            <path class="cls-11" d="M835.49062,254.2431h-.0008c1.5017-.2646,2.9883-.5177,4.4948-.7644,99.7343-16.3518,201.7308-3.1065,303.1559,39.3675,99.6686,41.7378,194.7681,109.7927,282.6582,202.2739,89.1144,93.7704,166.2668,207.8646,229.3148,339.114,65.7081,136.7883,113.1615,286.3795,141.0416,444.6185,28.1655,159.8565,36.5996,317.8527,25.0681,469.599-11.2016,147.4038-40.6861,282.5233-87.6346,401.6057-46.7603,118.6046-108.6941,215.7067-184.0814,288.6082-77.2447,74.6981-166.311,121.3653-264.7251,138.7051-99.4044,17.5141-203.0125,4.5012-307.9475-38.6775-103.3084-42.509-202.5748-111.8201-295.042-206.0063-93.9742-95.7218-175.1495-211.2903-241.2702-343.4943-69.2622-138.4862-118.4326-288.4546-146.1452-445.7398-27.3485-155.2224-31.8756-311.7754-13.4542-465.3087,17.3175-144.3347,53.8896-279.1741,108.7009-400.7725,52.3282-116.0909,120.5575-215.9717,197.3116-288.8453,77.6478-73.7216,161.2738-118.901,248.5551-134.2831Zm-10.5212-59.7012c-394.5583,69.5356-701.9516,688.7297-583.9761,1358.3167,118.4816,672.4595,609.7321,1162.5434,1054.3076,1084.2132,444.5759-78.3303,699.391-691.7654,580.9098-1364.2249C1757.72912,600.387,1275.51632,120.6436,830.03442,193.6804c-1.6963.2782-3.3719.5631-5.065.8615Z"/>
            <ellipse class="cls-12" cx="676.41342" cy="850.87403" rx="152.63364" ry="116.45646" transform="translate(-137.37886 130.27438) rotate(-9.99224)"/>
            <ellipse class="cls-13" cx="834.22724" cy="529.87325" rx="152.63348" ry="102.0985" transform="translate(-79.28738 152.78998) rotate(-9.99235)"/>
          </g>
          <g>
            <path class="cls-14" d="M1684.19572,2197.7424l984.4415-160.6301c82.1935-13.5421,115.0798-83.6551,101.0856-168.2592L2536.18492,456.9384c-13.7455-83.1012-89.352-140.4423-170.406-129.2379L1361.56532,457.2126c-85.5735,11.8291-143.3042,95.0569-126.5095,182.3831l275.7111,1433.5814C1526.65592,2155.7932,1603.55852,2211.0282,1684.19572,2197.7424Z"/>
            <path class="cls-15" d="M2674.14072,1986.6379c62.1817-10.245,104.0365-71.3906,93.3001-136.302L2539.76332,473.8167c-10.6469-64.3699-67.4847-108.108-129.3963-99.5732l-963.6167,123.5379c-.9792.134-1.9577.2829-2.9282.4424-30.6448,5.0491-57.2242,22.4208-74.8425,48.9146-17.6096,26.4799-23.9345,58.6292-17.8122,90.527l268.2824,1397.7275c12.278,63.9692,70.1182,106.132,131.6788,95.9892Z"/>
            <g class="cls-16">
              <g>
                <path class="cls-17" d="M2555.76122,495.3809a66.71687,66.71687,0,0,0-76.4378-52.9212l-277.6058,46.3061a66.7173,66.7173,0,0,0-54.6733,77.6919l70.2843,388.2731a59.40976,59.40976,0,0,0,69.0419,47.8775l356.5381-64.5397Z"/>
                <path class="cls-17" d="M2777.64262,1966.8565a66.71736,66.71736,0,0,0,52.3773-78.3082l-39.1307-198.7741c-149.3447,27.7521-474.2915,93.7386-633.7923,126.3043a43.74463,43.74463,0,0,0-34.4519,49.71l24.7355,156.3232a66.71741,66.71741,0,0,0,78.9808,54.9944Z"/>
                <path class="cls-17" d="M2012.42382,528.2593l84.7613,468.2488a39.7009,39.7009,0,0,1-31.9941,46.1376l-261.2518,47.2912a39.70123,39.70123,0,0,1-27.2111-4.8526l-335.9275-197.7422a39.70125,39.70125,0,0,1-19.1512-28.5214l-36.5239-252.1161a39.70092,39.70092,0,0,1,34.5741-45.1115l548.9418-65.6819A39.701,39.701,0,0,1,2012.42382,528.2593Z"/>
                <path class="cls-17" d="M1399.71262,1021.6056l357.8417,180.9973a29.08364,29.08364,0,0,0,19.1454,2.5013l244.4464-51.7074c24.0424-5.0857,43.1647,20.092,31.8136,41.8876l-136.4416,261.9843a29.08253,29.08253,0,0,0-2.8234,18.6141l42.4485,234.4996a29.083,29.083,0,0,1-23.4375,33.7985l-344.5186,62.3639a29.08286,29.08286,0,0,1-33.6038-22.4595l-164.5756-759.551Z"/>
                <path class="cls-17" d="M1606.52472,1891.5908c85.8817-13.4416,264.6157-39.5868,344.6036-51.2378a46.29158,46.29158,0,0,1,51.2311,33.2651l61.8957,219.7142a46.30217,46.30217,0,0,1-41.8574,58.7777l-366.7581,21.5025a46.30172,46.30172,0,0,1-48.0563-36.864l-39.2244-190.0567A46.28557,46.28557,0,0,1,1606.52472,1891.5908Z"/>
                <path class="cls-17" d="M2149.36872,1704.8256l570.242-147.6154a47.42836,47.42836,0,0,0,34.6498-55.0759l-82.8435-420.8241a47.42408,47.42408,0,0,0-56.1208-37.2889c-107.263,22.1478-254.0927,52.5177-344.5246,71.227-14.5516,3.0104-26.5587,12.798-33.2089,26.0866q-.0489.098-.0986.1967L2079.064,1455.4345a114.14484,114.14484,0,0,0-10.8369,69.2632l22.4101,141.6252A47.42848,47.42848,0,0,0,2149.36872,1704.8256Zm127.9371-278.0734,81.0384-185.2154a38.67868,38.67868,0,0,1,28.5455-22.5554l181.4525-32.8461a38.67862,38.67862,0,0,1,44.9497,31.1704l27.039,149.3723a38.67829,38.67829,0,0,1-29.1318,44.5235l-289.5299,68.6888C2290.62472,1487.2555,2264.51622,1455.9833,2277.30582,1426.7522Z"/>
              </g>
              <path class="cls-18" d="M2028.33422,1449.2727a38.36573,38.36573,0,0,1-35.1442-53.6123l126.3881-291.6712-343.5706,63.1055a38.28057,38.28057,0,0,1-26.6125-4.8041L1348.86192,922.755a21.83972,21.83972,0,0,1,22.4188-37.4872l398.8104,238.502,351.4198-64.5461a38.35333,38.35333,0,0,1,42.1173,52.9757L2037.309,1403.7098l421.4261-83.5915-9.572-110.6996a21.84067,21.84067,0,0,1,43.5186-3.767l9.9854,115.4576a38.29844,38.29844,0,0,1-30.7504,40.9294l-436.0712,86.4957A38.73009,38.73009,0,0,1,2028.33422,1449.2727Z"/>
            </g>
          </g>
        </g>
        <g>
          <circle class="cls-19" cx="2458.96539" cy="1094.6888" r="64.19539"/>
          <g>
            <path class="cls-20" d="M2782.46142,385.8999c0,122.0941-183.8938,433.5826-279.6884,587.2294-7.4337,11.9229-23.4466,19.1638-53.0973,19.1638-14.0504,0-8.524-7.2716-15.9576-19.1947-95.8009-153.6597-279.6692-465.119-279.6692-587.1985,0-159.203,140.6748-288.2629,314.2065-288.2629C2641.78632,97.637,2782.46142,226.6969,2782.46142,385.8999Z"/>
            <path class="cls-21" d="M2763.88212,385.8999c0,122.0939-183.8939,433.5826-279.6884,587.2294a40.66871,40.66871,0,0,1-69.0549-.0308c-95.8009-153.6599-279.6692-465.1191-279.6692-587.1986,0-159.203,140.675-288.2629,314.2067-288.2629C2623.207,97.637,2763.88212,226.6969,2763.88212,385.8999Z"/>
            <circle class="cls-22" cx="2457.34282" cy="399.15575" r="191.7704" transform="translate(437.49331 1854.51378) rotate(-45)"/>
            <circle class="cls-22" cx="2438.75612" cy="380.3073" r="139.4306"/>
            <path class="cls-23" d="M2449.675,644.9216c-129.9288,0-235.6307-105.7019-235.6307-235.6307a6.7204,6.7204,0,1,1,13.4408,0c0,122.5161,99.6739,222.1899,222.1899,222.1899,122.5193,0,222.1932-99.6738,222.1932-222.1899,0-122.5193-99.6739-222.1932-222.1932-222.1932-70.8431,0-135.8026,32.611-178.2152,89.4752a6.72239,6.72239,0,0,1-10.7763-8.0395c44.9788-60.2933,113.8629-94.8765,188.9915-94.8765,129.9288,0,235.634,105.7052,235.634,235.634S2579.60382,644.9216,2449.675,644.9216Z"/>
          </g>
        </g>
        <g>
          <g>
            <path class="cls-17" d="M1129.02132,2786.4343a21.86053,21.86053,0,0,0,21.7428,13.5163c36.9534-2.4791,135.1403-13.9159,198.6603-66.4133a9.71866,9.71866,0,0,0,1.606-13.3086c-16.381,13.2517-43.5329,28.7168-88.4613,44.9312C1193.51842,2790.0815,1152.66672,2790.7334,1129.02132,2786.4343Z"/>
            <path class="cls-24" d="M1136.88132,2708.1715s-23.9748,36.2464-8.0019,77.9667c.04.1042.1013.1937.1419.2961,23.6454,4.2991,64.4971,3.6472,133.5478-21.2744,44.9284-16.2144,72.0803-31.6795,88.4613-44.9312a9.93769,9.93769,0,0,0-3.7547-3.0938C1312.56092,2700.6858,1215.21572,2662.5558,1136.88132,2708.1715Z"/>
          </g>
          <path class="cls-5" d="M862.07362,2100.1369c4.3945,9.94,231.208,150.6549,231.208,150.6549-29.5986,105.0522-10.5564,289.6056,16.1562,486.7023,48.9739,8.4087,86.3249-12.3744,116.611-50.9002l7.9703-478.312a45.63158,45.63158,0,0,0-7.8131-26.3397c-65.1542-96.3694-171.3496-210.5543-282.2433-326.7794Z"/>
          <g>
            <path class="cls-17" d="M146.68712,2383.2768c-6.9982,5.6219-9.922,16.278-7.3129,26.169,10.2683,38.926,41.8779,141.2976,102.5456,197.6904a7.897,7.897,0,0,0,12.2176-1.1866c-15.3891-14.6055-35.1015-40.2319-59.3583-84.6801C157.498,2452.9562,148.00892,2409.4678,146.68712,2383.2768Z"/>
            <path class="cls-25" d="M218.196,2374.6067s-37.553-17.7022-71.2758,8.4539c-.0839.0653-.1503.1503-.2331.2162,1.3218,26.191,10.8109,69.6794,48.092,137.9927,24.2568,44.4482,43.9692,70.0746,59.3583,84.6801a11.19654,11.19654,0,0,0,1.9409-4.6852C263.17852,2560.6019,275.95622,2448.3223,218.196,2374.6067Z"/>
          </g>
          <path class="cls-5" d="M973.29192,1885.9858c-61.4402,65.56-88.0694,140.0151-111.2183,214.1511l-158.9372,245.1167a43.69431,43.69431,0,0,1-27.8595,18.7257l-435.486,87.1579c-37.4544-26.1827-57.2399-58.3556-51.668-99.1259,159.0664-59.2367,325.8737-125.3233,411.2094-119.2871,26.3303-154.0655,47.2413-336.0347,93.7705-386.0702l278.633,16.6869Z"/>
          <path class="cls-26" d="M796.40562,1799.3694l-76.3259-34.5707a72.60494,72.60494,0,0,1-42.6123-68.4457l12.3144-387.0768a99.70051,99.70051,0,0,1,107.421-96.227l160.6711,12.5614a45.005,45.005,0,0,1,40.6751,53.4308l-100.8404,520.328Z"/>
          <path class="cls-27" d="M1518.65412,1172.1191c-.5814,18.1674-4.7366,76.1648-48.8082,129.0903-38.5324,46.2728-85.8419,62.5647-104.2189,67.8623.8073,11.6322,4.2807,37.7027,23.2796,62.229a111.19659,111.19659,0,0,0,28.6694,25.9409c45.1702-24.3549,72.2181-52.5928,88.9823-75.3187,60.3662-81.8368,69.622-203.7125,69.6242-203.7238h0Z"/>
          <path class="cls-28" d="M1170.00832,1305.4536l47.0712,152.5239a306.58424,306.58424,0,0,0,191.0254,21.661c14.2211-2.9675,21.3694-18.8317,14.5732-31.6713a281.335,281.335,0,0,1-30.0168-92.9701Q1281.33537,1330.2258,1170.00832,1305.4536Z"/>
          <path class="cls-29" d="M894.62842,1238.6882c-69.1053,3.8454-177.577,66.7654-239.4998,152.6931-11.5777,16.066,66.6509,103.497,89.1689,94.7407,41.0977-15.9805,95.1614-77.8321,106.3068-73.9062-14.7604,166.9085-64.2566,279.5083-110.3917,354.075-29.0808,47.0025-61.4369,86.3442-47.4002,113.2258,23.1829,44.3958,155.6822,21.8052,273.383-7.4939l227.0405-355.7697a321.23889,321.23889,0,0,0,46.9126-128.2852l8.9657-64.1784S1045.20572,1230.3075,894.62842,1238.6882Z"/>
          <path class="cls-30" d="M1047.98772,1144.1917l-59.3161,127.0552a22.55068,22.55068,0,0,0,2.7713,23.5953c14.3629,17.5063,48.2862,45.9417,107.2933,25.5634,6.5056-2.2461,11.1874-8.5057,12.1759-15.8918l15.4471-115.3903Z"/>
          <g>
            <path class="cls-31" d="M1188.07152,978.6397s40.8599,102.7194,43.6045,156.6335c2.7439,53.9134,13.3598,88.897-43.6045,99.7548-56.9644,10.8564-104.9514-20.1984-130.9487-73.9028,0,0-40.7332-82.7526-31.5955-116.6425C1034.66432,1010.5936,1188.07152,978.6397,1188.07152,978.6397Z"/>
            <path class="cls-32" d="M1013.17432,997.2965c-36.3552,39.1434-37.3589,64.0189-34.0661,77.7339,3.142,13.0861,14.2781,27.4733,36.5497,56.2448,4.1123,5.3119,11.7313,19.7334,24.7885,37.1492a36.99091,36.99091,0,0,1,5.8725,11.2245,37.20738,37.20738,0,0,0,10.7872-1.1536,4.21209,4.21209,0,0,0,2.9301-4.3804l-1.5795-27.9756c-19.006-17.4694-14.7575-55.4533,12.657-63.8117-3.0696-16.444-2.6672-32.8493,9.0754-38.1195,26.0714-11.7015,129.3425-34.7467,151.6239-74.8499a74.62164,74.62164,0,0,0,9.1666-37.5115C1161.24472,931.106,1072.568,940.0114,1013.17432,997.2965Z"/>
            <path class="cls-33" d="M1078.358,1132.3689s-15.5891-65.6162-42.4704-47.2181c-26.8821,18.3967,13.9491,73.5183,35.5612,75.9744Z"/>
          </g>
          <path class="cls-34" d="M913.80212,1769.28c-18.2392-18.2547-57.975-25.9137-76.5339-28.5883a321.12538,321.12538,0,0,1-69.4032-90.0059c-41.3087-79.8508-24.8903-164.3335-30.4634-164.3335-15.411,0-64.553-57.4902-76.8814-73.013,0,0-23.0531,69.5876-20.1599,124.5088,7.9758,151.3946,165.2952,229.9725,173.1746,233.7576,9.801,44.035,53.0888,82.1109,68.5653,83.5517C889.23122,1855.8212,938.04312,1793.5411,913.80212,1769.28Z"/>
          <path class="cls-35" d="M771.54352,1620.4125c39.7751-12.4123,168.6423-401.9249,101.5534-385.779,24.8138-13.3884,63.3463-8.1509,104.0303,0-6.7831,145.5089-88.2715,285.8591-182.2278,422.4896Z"/>
          <g>
            <path class="cls-36" d="M1551.52262,1189.8157c2.2621,5.3844-17.1556,15.7141-31.1676-5.8633-1.4291-10.8338-12.3836-56.7963-6.7125-66.2595,30.2047-50.4004,91.7776-115.7892,91.7776-115.7892,12.381,10.131,4.0644,21.9918,4.0644,21.9918l-29.3834,36.9357c7.9541,11.6665,17.2244,21.2752,22.5033,35.7917a45.79937,45.79937,0,0,1-1.4179,33.9879c-4.7535,10.8245-11.2997,24.9295-17.6921,36.0861C1571.39542,1187.8127,1551.52262,1189.8157,1551.52262,1189.8157Z"/>
            <path class="cls-37" d="M1564.47582,1164.9683l-3.3471-.2822c.1739-2.0739,4.3545-50.9412,10.0346-62.459,2.4021-4.8763,3.0879-8.7418,2.0345-11.4851-.7252-1.8868-2.3265-3.393-4.886-4.5874l-26.1991,26.7667-6.8648,25.4739-3.242-.8729,7.0879-26.3205,28.4075-29.0211,1.0402.4135c4.0722,1.6243,6.6219,3.8951,7.7934,6.9435,1.4242,3.7048.7154,8.3415-2.1592,14.1726C1568.77452,1114.667,1564.51842,1164.4662,1564.47582,1164.9683Z"/>
          </g>
        </g>
      </g>
    </g>
  </g>
</svg>
